# Blender v2.67 (sub 0) OBJ File: 'caisse.blend'
# www.blender.org
g caisse
v 1.177124 -1.177124 -1.177124
v 1.177124 -1.177124 1.177124
v -1.177124 -1.177124 1.177124
v -1.177124 -1.177124 -1.177124
v 1.177124 1.177124 -1.177124
v 1.177124 1.177124 1.177124
v -1.177124 1.177124 1.177124
v -1.177124 1.177124 -1.177124
v 1.177124 0.950559 1.177124
v 1.177124 0.950559 -1.177124
v -1.177124 0.950559 1.177124
v -1.177124 0.950559 -1.177124
v 1.177124 -0.910126 -1.177124
v -1.177124 -0.910126 -1.177124
v -1.177124 -0.910126 1.177124
v 1.177124 -0.910126 1.177124
v 1.177124 0.950559 0.893563
v -1.177124 0.950559 0.893563
v -1.177124 -0.910126 0.893563
v 1.177124 -0.910126 0.893563
v 1.177124 1.177124 0.893563
v 1.177124 -1.177124 0.893563
v -1.177124 1.177124 0.893563
v -1.177124 -1.177124 0.893563
v -0.921988 -1.177124 -1.177124
v -0.921988 1.177124 -1.177124
v -0.921988 -1.177124 1.177124
v -0.921988 1.177124 1.177124
v 0.897063 -1.177124 -0.938623
v 0.897063 1.177124 0.893563
v 0.897063 -0.910126 -1.177124
v 0.897063 -0.910126 1.177124
v 1.177124 1.177124 -0.938623
v 1.177124 -0.910126 -0.938623
v -1.177124 -1.177124 -0.938623
v -1.177124 -0.910126 -0.938623
v -0.921988 -1.177124 0.893563
v -0.921988 -1.177124 -0.938623
v -0.921988 1.177124 -0.938623
v -0.921988 1.177124 0.893563
v -0.921988 0.950559 1.177124
v -0.921988 0.950559 -1.177124
v -0.921988 -0.910126 1.177124
v -0.921988 -0.910126 -1.177124
v -1.177124 0.950559 -0.938623
v 1.177124 0.950559 -0.938623
v -1.177124 1.177124 -0.938623
v 1.177124 -1.177124 -0.938623
v 0.897063 1.177124 -0.938623
v 0.897063 1.177124 -1.177124
v 0.897063 1.177124 1.177124
v 0.897063 -1.177124 0.893563
v 0.897063 0.950559 -1.177124
v 0.897063 -1.177124 -1.177124
v 0.897063 0.950559 1.177124
v 0.897063 -1.177124 1.177124
v 0.897063 1.076308 0.893563
v -0.921988 1.076308 -0.938623
v -0.921988 1.076308 0.893563
v 0.897063 1.076308 -0.938623
v 0.922561 -1.116715 -0.995651
v -0.896491 -1.116715 0.836535
v -0.896491 -1.116715 -0.995651
v 0.922561 -1.116715 0.836535
v 0.897063 -0.910126 -1.061913
v 0.897063 -0.910126 1.061913
v -0.921988 0.950559 1.061913
v -0.921988 0.950559 -1.061913
v -0.921988 -0.910126 1.061913
v -0.921988 -0.910126 -1.061913
v 0.897063 0.950559 -1.061913
v 0.897063 0.950559 1.061913
v 1.028453 0.950559 0.893563
v -1.028453 0.950559 0.893563
v -1.028453 -0.910126 0.893563
v 1.028453 -0.910126 0.893563
v 1.028453 -0.910126 -0.938623
v -1.028453 -0.910126 -0.938623
v -1.028453 0.950559 -0.938623
v 1.028453 0.950559 -0.938623
v 0.974892 1.065175 -0.864618
v -0.852496 1.065175 0.962769
v -0.987893 1.065175 0.827371
v 0.839495 1.065175 -1.000016
v 0.974892 1.136723 -0.864618
v -0.852496 1.136723 0.962769
v -0.987893 1.136723 0.827371
v 0.839495 1.136723 -1.000016
v 0.974892 -1.149859 0.827371
v -0.852496 -1.149859 -1.000016
v -0.987893 -1.149859 -0.864619
v 0.839495 -1.149859 0.962769
v 0.974892 -1.078311 0.827371
v -0.852496 -1.078311 -1.000016
v -0.987893 -1.078311 -0.864619
v 0.839495 -1.078311 0.962769
v 1.141204 0.980964 -0.864618
v 1.141203 -0.846423 0.962769
v 1.141203 -0.981821 0.827371
v 1.141204 0.845567 -1.000016
v 1.069655 0.980964 -0.864618
v 1.069655 -0.846423 0.962769
v 1.069655 -0.981821 0.827371
v 1.069655 0.845567 -1.000016
v -1.053719 0.980964 0.827371
v -1.053719 -0.846423 -1.000016
v -1.053719 -0.981821 -0.864619
v -1.053719 0.845567 0.962769
v -1.125268 0.980964 0.827371
v -1.125268 -0.846423 -1.000016
v -1.125268 -0.981821 -0.864619
v -1.125268 0.845567 0.962769
v 0.827984 0.998328 -1.136636
v -0.999403 -0.829060 -1.136636
v -0.864006 -0.964458 -1.136636
v 0.963381 0.862930 -1.136636
v 0.827984 0.998328 -1.065087
v -0.999403 -0.829060 -1.065087
v -0.864006 -0.964458 -1.065087
v 0.963381 0.862930 -1.065087
v -0.864006 0.998328 1.052488
v 0.963381 -0.829060 1.052488
v 0.827984 -0.964458 1.052488
v -0.999404 0.862930 1.052488
v -0.864006 0.998328 1.124037
v 0.963381 -0.829060 1.124037
v 0.827984 -0.964458 1.124037
v -0.999404 0.862930 1.124037
vt 0.588257 0.886176
vt 0.651337 0.886176
vt 0.651337 0.988623
vt 0.105233 0.106938
vt 0.051938 0.106938
vt 0.105233 0.011527
vt 0.588257 0.011527
vt 0.651337 0.011527
vt 0.651337 0.106938
vt 0.105233 0.988623
vt 0.051938 0.988623
vt 0.105233 0.886176
vt 0.051938 0.886176
vt 0.588257 0.106938
vt 0.588257 0.988623
vt 0.051938 0.011527
vt 0.147191 0.838621
vt 0.147191 0.158816
vt 0.555002 0.838621
vt 0.555002 0.158816
vt 0.837545 0.936976
vt 0.837547 0.086391
vt 0.869803 0.086391
vt 0.837548 0.023368
vt 0.988381 0.086391
vt 0.988379 0.936976
vt 0.956126 0.086391
vt 0.837545 1.000000
vt 0.869801 0.936976
vt 0.751222 0.936975
vt 0.751224 0.086391
vt 0.869801 1.000000
vt 0.956124 0.936976
vt 0.869803 0.023368
vn 1.000000 -0.000000 0.000000
vn 0.000000 0.000000 1.000000
vn -1.000000 0.000000 0.000000
vn 0.000000 -1.000000 0.000000
vn 0.000000 0.000000 -1.000000
vn 0.000000 1.000000 -0.000000
vn -0.921297 0.388861 0.000000
vn 0.000000 1.000000 0.000001
vn 0.000000 0.686465 0.727162
vn 0.000000 -0.686465 -0.727162
vn 0.921297 -0.388861 0.000000
vn 0.000000 1.000000 -0.000001
vn 0.707107 -0.000000 0.707107
vn -0.707107 0.000000 0.707107
vn -0.707107 0.000000 -0.707107
vn 0.707107 0.000000 -0.707107
vn 0.000000 0.707107 0.707107
vn 0.000000 -0.707107 0.707107
vn -0.000000 -0.707107 -0.707107
vn 0.000000 0.707107 -0.707107
vn -0.707107 0.707107 0.000000
vn -0.707107 -0.707107 0.000000
vn 0.707107 -0.707107 0.000000
vn 0.707107 0.707107 -0.000001
vn 0.707107 0.707107 -0.000000
vn -0.707106 0.707107 -0.000001
vn 0.707107 -0.707107 -0.000001
vn 0.707106 0.707107 0.000000
vn -0.707107 -0.707107 -0.000001
s off
f 20/1/1 16/2/1 2/3/1
f 43/1/2 15/2/2 3/3/2
f 36/4/3 14/5/3 35/6/3
f 28/7/2 7/8/2 11/9/2
f 37/1/4 27/2/4 3/3/4
f 21/7/1 6/8/1 9/9/1
f 47/10/3 8/11/3 45/12/3
f 42/1/5 12/2/5 8/3/5
f 45/12/3 12/13/3 36/4/3
f 41/14/2 11/9/2 15/2/2
f 38/12/4 37/1/4 24/15/4
f 34/12/1 20/1/1 22/15/1
f 17/14/1 9/9/1 16/2/1
f 33/6/1 21/7/1 17/14/1
f 7/3/3 23/15/3 11/2/3
f 31/4/5 13/5/5 1/16/5
f 15/9/3 19/14/3 3/8/3
f 11/2/3 18/1/3 15/9/3
f 20/1/6 34/12/6 77/17/6
f 29/4/7 52/14/7 61/18/7
f 43/1/8 32/12/8 66/17/8
f 36/4/6 19/14/6 78/18/6
f 5/16/1 33/6/1 46/4/1
f 25/13/4 38/12/4 35/10/4
f 19/14/3 36/4/3 24/7/3
f 32/12/2 43/1/2 27/15/2
f 47/9/6 39/14/6 26/7/6
f 23/15/3 47/10/3 18/1/3
f 39/14/6 47/9/6 23/2/6
f 13/13/1 34/12/1 48/10/1
f 30/12/3 49/4/3 57/17/3
f 10/5/1 46/4/1 34/12/1
f 40/1/6 23/2/6 7/3/6
f 52/14/4 56/9/4 27/2/4
f 14/9/5 44/14/5 25/7/5
f 49/4/6 33/5/6 5/16/6
f 44/14/5 14/9/5 12/2/5
f 53/12/5 42/1/5 26/15/5
f 30/12/6 40/1/6 28/15/6
f 51/6/2 28/7/2 41/14/2
f 54/5/4 29/4/4 38/12/4
f 44/14/1 42/1/1 68/19/1
f 1/16/4 48/6/4 29/4/4
f 10/13/5 53/12/5 50/10/5
f 48/6/4 22/7/4 52/14/4
f 21/13/6 30/12/6 51/10/6
f 22/7/4 2/8/4 56/9/4
f 9/5/2 55/4/2 32/12/2
f 6/16/2 51/6/2 55/4/2
f 16/13/2 32/12/2 56/10/2
f 33/5/6 49/4/6 30/12/6
f 13/5/5 31/4/5 53/12/5
f 39/14/6 49/4/6 50/6/6
f 44/14/5 31/4/5 54/6/5
f 60/18/6 58/20/6 59/19/6
f 40/1/5 30/12/5 59/19/5
f 39/14/1 40/1/1 59/19/1
f 49/4/2 39/14/2 58/20/2
f 61/18/4 64/20/4 62/19/4
f 38/12/9 29/4/9 63/17/9
f 52/14/10 37/1/10 64/20/10
f 37/1/11 38/12/11 62/19/11
f 72/18/2 67/20/2 69/19/2
f 65/18/5 70/20/5 68/19/5
f 32/12/3 55/4/3 66/17/3
f 55/4/4 41/14/4 67/20/4
f 53/12/3 31/4/3 71/17/3
f 41/14/1 43/1/1 69/19/1
f 31/4/12 44/14/12 70/20/12
f 42/1/4 53/12/4 71/17/4
f 80/18/1 73/20/1 76/19/1
f 74/19/3 79/17/3 75/20/3
f 45/12/2 36/4/2 78/18/2
f 46/4/4 17/14/4 73/20/4
f 19/14/5 18/1/5 74/19/5
f 18/1/4 45/12/4 79/17/4
f 34/12/2 46/4/2 80/18/2
f 17/14/5 20/1/5 76/19/5
f 85/21/13 86/22/13 82/23/13
f 86/22/14 87/24/14 82/23/14
f 87/25/15 88/26/15 83/27/15
f 88/28/16 85/21/16 81/29/16
f 81/29/4 82/23/4 83/27/4
f 88/30/6 87/31/6 86/22/6
f 93/23/16 89/22/16 90/21/16
f 94/29/15 90/21/15 95/32/15
f 95/33/14 91/26/14 96/27/14
f 96/34/13 92/24/13 89/22/13
f 89/22/4 92/31/4 91/30/4
f 96/27/6 93/23/6 94/29/6
f 101/33/17 102/27/17 98/25/17
f 102/34/18 103/23/18 99/22/18
f 103/23/19 104/29/19 100/21/19
f 104/29/20 101/32/20 97/28/20
f 97/30/1 98/31/1 99/22/1
f 104/29/3 103/23/3 101/33/3
f 109/21/20 105/29/20 106/23/20
f 110/22/19 106/23/19 107/34/19
f 111/25/18 107/27/18 108/33/18
f 112/28/17 108/32/17 105/29/17
f 105/29/1 108/33/1 107/27/1
f 112/30/3 109/21/3 111/31/3
f 117/25/21 113/27/21 118/26/21
f 118/28/22 114/32/22 119/21/22
f 119/21/23 115/29/23 116/23/23
f 120/22/24 116/23/24 113/34/24
f 113/27/5 116/23/5 114/33/5
f 120/22/2 117/31/2 118/30/2
f 125/25/25 126/26/25 122/33/25
f 126/28/23 127/21/23 123/29/23
f 127/21/22 128/22/22 123/29/22
f 128/22/26 125/24/26 124/23/26
f 121/27/5 122/33/5 123/29/5
f 128/22/2 127/21/2 125/31/2
f 22/15/1 20/1/1 2/3/1
f 27/15/2 43/1/2 3/3/2
f 14/5/3 4/16/3 35/6/3
f 41/14/2 28/7/2 11/9/2
f 24/15/4 37/1/4 3/3/4
f 17/14/1 21/7/1 9/9/1
f 8/11/3 12/13/3 45/12/3
f 26/15/5 42/1/5 8/3/5
f 12/13/3 14/5/3 36/4/3
f 43/1/2 41/14/2 15/2/2
f 35/10/4 38/12/4 24/15/4
f 48/10/1 34/12/1 22/15/1
f 20/1/1 17/14/1 16/2/1
f 46/4/1 33/6/1 17/14/1
f 23/15/3 18/1/3 11/2/3
f 54/6/5 31/4/5 1/16/5
f 19/14/3 24/7/3 3/8/3
f 18/1/3 19/14/3 15/9/3
f 76/19/6 20/1/6 77/17/6
f 52/14/7 64/20/7 61/18/7
f 69/19/8 43/1/8 66/17/8
f 19/14/6 75/20/6 78/18/6
f 10/5/1 5/16/1 46/4/1
f 4/11/4 25/13/4 35/10/4
f 36/4/3 35/6/3 24/7/3
f 56/10/2 32/12/2 27/15/2
f 8/8/6 47/9/6 26/7/6
f 47/10/3 45/12/3 18/1/3
f 40/1/6 39/14/6 23/2/6
f 1/11/1 13/13/1 48/10/1
f 49/4/3 60/18/3 57/17/3
f 13/13/1 10/5/1 34/12/1
f 28/15/6 40/1/6 7/3/6
f 37/1/4 52/14/4 27/2/4
f 4/8/5 14/9/5 25/7/5
f 50/6/6 49/4/6 5/16/6
f 42/1/5 44/14/5 12/2/5
f 50/10/5 53/12/5 26/15/5
f 51/10/6 30/12/6 28/15/6
f 55/4/2 51/6/2 41/14/2
f 25/13/4 54/5/4 38/12/4
f 70/20/1 44/14/1 68/19/1
f 54/5/4 1/16/4 29/4/4
f 5/11/5 10/13/5 50/10/5
f 29/4/4 48/6/4 52/14/4
f 6/11/6 21/13/6 51/10/6
f 52/14/4 22/7/4 56/9/4
f 16/13/2 9/5/2 32/12/2
f 9/5/2 6/16/2 55/4/2
f 2/11/2 16/13/2 56/10/2
f 21/13/6 33/5/6 30/12/6
f 10/13/5 13/5/5 53/12/5
f 26/7/6 39/14/6 50/6/6
f 25/7/5 44/14/5 54/6/5
f 57/17/6 60/18/6 59/19/6
f 30/12/5 57/17/5 59/19/5
f 58/20/1 39/14/1 59/19/1
f 60/18/2 49/4/2 58/20/2
f 63/17/4 61/18/4 62/19/4
f 29/4/9 61/18/9 63/17/9
f 37/1/10 62/19/10 64/20/10
f 38/12/11 63/17/11 62/19/11
f 66/17/2 72/18/2 69/19/2
f 71/17/5 65/18/5 68/19/5
f 55/4/3 72/18/3 66/17/3
f 72/18/4 55/4/4 67/20/4
f 31/4/3 65/18/3 71/17/3
f 67/20/1 41/14/1 69/19/1
f 65/18/12 31/4/12 70/20/12
f 68/19/4 42/1/4 71/17/4
f 77/17/1 80/18/1 76/19/1
f 79/17/3 78/18/3 75/20/3
f 79/17/2 45/12/2 78/18/2
f 80/18/4 46/4/4 73/20/4
f 75/20/5 19/14/5 74/19/5
f 74/19/4 18/1/4 79/17/4
f 77/17/2 34/12/2 80/18/2
f 73/20/5 17/14/5 76/19/5
f 81/29/13 85/21/13 82/23/13
f 87/24/14 83/34/14 82/23/14
f 88/26/15 84/33/15 83/27/15
f 84/32/16 88/28/16 81/29/16
f 84/33/4 81/29/4 83/27/4
f 85/21/6 88/30/6 86/22/6
f 94/29/16 93/23/16 90/21/16
f 90/21/15 91/28/15 95/32/15
f 91/26/14 92/25/14 96/27/14
f 93/23/13 96/34/13 89/22/13
f 90/21/4 89/22/4 91/30/4
f 95/33/6 96/27/6 94/29/6
f 97/26/17 101/33/17 98/25/17
f 98/24/18 102/34/18 99/22/18
f 99/22/19 103/23/19 100/21/19
f 100/21/20 104/29/20 97/28/20
f 100/21/1 97/30/1 99/22/1
f 103/23/3 102/27/3 101/33/3
f 110/22/20 109/21/20 106/23/20
f 111/24/19 110/22/19 107/34/19
f 112/26/18 111/25/18 108/33/18
f 109/21/17 112/28/17 105/29/17
f 106/23/1 105/29/1 107/27/1
f 109/21/3 110/22/3 111/31/3
f 113/27/21 114/33/21 118/26/21
f 114/32/22 115/29/22 119/21/22
f 120/22/27 119/21/27 116/23/27
f 117/24/28 120/22/28 113/34/28
f 116/23/5 115/29/5 114/33/5
f 119/21/2 120/22/2 118/30/2
f 121/27/25 125/25/25 122/33/25
f 122/32/23 126/28/23 123/29/23
f 128/22/29 124/23/29 123/29/29
f 125/24/21 121/34/21 124/23/21
f 124/23/5 121/27/5 123/29/5
f 127/21/2 126/30/2 125/31/2
