# Blender v2.70 (sub 0) OBJ File: 'debris.blend'
# www.blender.org
g debris1
v 0.425355 -0.066128 0.964295
v -0.426457 -0.066128 0.823463
v 0.425355 0.066128 1.276360
v -0.426457 0.066128 0.881355
v 0.197342 -0.066128 0.887481
v 0.085071 -0.066128 1.124340
v 0.006694 -0.066128 0.890225
v -0.198632 -0.066128 0.929488
v 0.255213 0.066128 0.874898
v 0.085071 0.066128 1.103053
v -0.085071 0.066128 0.832121
v -0.255213 0.066128 0.897954
v 0.425355 -0.066128 0.428571
v 0.425355 -0.066128 0.714286
v -0.426457 -0.066128 0.714285
v -0.426457 -0.066128 0.428571
v 0.425355 0.066128 0.428572
v 0.425355 0.066128 0.714286
v -0.426457 0.066128 0.714285
v -0.426457 0.066128 0.428571
v 0.255213 -0.066128 0.714286
v 0.255213 -0.066128 0.428571
v 0.085071 -0.066128 0.428571
v 0.085071 -0.066128 0.714286
v -0.085071 -0.066128 0.428571
v -0.085071 -0.066128 0.714285
v -0.255213 -0.066128 0.714285
v -0.255213 -0.066128 0.428571
v 0.255213 0.066128 0.714286
v 0.255213 0.066128 0.428572
v 0.085071 0.066128 0.714286
v 0.085071 0.066128 0.428572
v -0.085071 0.066128 0.714286
v -0.085071 0.066128 0.428571
v -0.255213 0.066128 0.428571
v -0.255213 0.066128 0.714286
v 0.425355 0.000000 0.893720
v -0.426457 0.005114 0.962387
v 0.255213 0.000000 1.145371
v 0.135679 0.000000 0.965806
v -0.110400 0.000000 0.769445
v -0.255213 0.000000 1.091857
v 0.425355 0.000000 0.714286
v -0.426457 0.000000 0.714285
v -0.255213 0.066128 0.177239
v -0.085071 0.066128 0.177239
v 0.085071 0.066128 0.177239
v 0.255213 0.066128 0.177239
v -0.255213 -0.066128 0.177239
v -0.085071 -0.066128 0.177239
v 0.085071 -0.066128 0.177239
v 0.255213 -0.066128 0.177239
v -0.426457 0.066128 0.177239
v 0.425355 0.066128 0.177240
v -0.426457 -0.066128 0.177239
v 0.425355 -0.066128 0.177239
v 0.425355 -0.066128 -0.115062
v -0.426457 -0.066128 -0.115063
v 0.425355 0.066128 -0.115062
v -0.426457 0.066128 -0.115063
v 0.255213 -0.066128 -0.115062
v 0.085071 -0.066128 -0.115062
v -0.085071 -0.066128 -0.115063
v -0.255213 -0.066128 -0.115063
v 0.255213 0.066128 -0.115062
v 0.085071 0.066128 -0.115062
v -0.085071 0.066128 -0.115062
v -0.255213 0.066128 -0.115062
v -0.255213 0.066128 -0.403374
v -0.085071 0.066128 -0.403374
v 0.085071 0.066128 -0.403373
v 0.255213 0.066128 -0.403373
v -0.255213 -0.066128 -0.403374
v -0.085071 -0.066128 -0.403374
v 0.085071 -0.066128 -0.403374
v 0.255213 -0.066128 -0.403374
v -0.426457 0.066128 -0.403374
v 0.425355 0.066128 -0.403373
v -0.426457 -0.066128 -0.403374
v 0.425355 -0.066128 -0.403374
v 0.425355 -0.066128 -0.721542
v -0.426457 -0.066128 -0.721543
v 0.425355 0.066128 -0.721542
v -0.426457 0.066128 -0.721543
v 0.255213 -0.066128 -0.721543
v 0.085071 -0.066128 -0.688439
v -0.085071 -0.066128 -0.721543
v -0.255213 -0.066128 -0.721543
v 0.255213 0.066128 -0.721542
v 0.085071 0.066128 -0.688438
v -0.085071 0.066128 -0.721542
v -0.255213 0.066128 -0.721542
vt 0.381600 0.653662
vt 0.293209 0.623880
vt 0.315646 0.556741
vt 0.315648 0.445980
vt 0.381606 0.445982
vt 0.381604 0.556743
vt 0.249684 0.715699
vt 0.249689 0.556739
vt 0.249691 0.445979
vt 0.183732 0.556737
vt 0.183734 0.445978
vt 0.117776 0.556736
vt 0.219304 0.624942
vt 0.117777 0.445978
vt 0.051392 0.556736
vt 0.139708 0.640161
vt 0.051393 0.445977
vt 0.498835 0.445984
vt 0.498833 0.556746
vt 0.432875 0.556744
vt 0.498832 0.619010
vt 0.432869 0.774646
vt 0.564794 0.445985
vt 0.564792 0.556747
vt 0.564790 0.707460
vt 0.630753 0.445986
vt 0.630751 0.556748
vt 0.630750 0.602429
vt 0.696710 0.556749
vt 0.696709 0.627951
vt 0.763097 0.445987
vt 0.763095 0.556750
vt 0.763095 0.621517
vt 0.407237 0.626305
vt 0.407239 0.556744
vt 0.000123 0.556736
vt 0.025758 0.556736
vt 0.023775 0.652913
vt 0.051392 0.599059
vt 0.391086 0.914494
vt 0.221686 0.967452
vt 0.280773 0.871382
vt 0.387303 0.874916
vt 0.436831 0.874123
vt 0.526032 0.967452
vt 0.367646 0.816412
vt 0.455162 0.842341
vt 0.173687 0.742466
vt 0.089545 0.870328
vt 0.108197 0.883119
vt 0.074047 0.882983
vt 0.124766 0.867801
vt 0.432877 0.445983
vt 0.000123 0.445977
vt 0.000123 0.348546
vt 0.051393 0.348546
vt 0.381607 0.348549
vt 0.696711 0.445986
vt 0.696712 0.348553
vt 0.763098 0.348554
vt 0.630754 0.348552
vt 0.564795 0.348551
vt 0.498837 0.348551
vt 0.432878 0.348550
vt 0.117777 0.348546
vt 0.183734 0.348547
vt 0.249692 0.348547
vt 0.315650 0.348548
vt 0.315650 0.235234
vt 0.249693 0.235233
vt 0.183735 0.235233
vt 0.117778 0.235233
vt 0.051393 0.235233
vt 0.432879 0.235235
vt 0.498838 0.235235
vt 0.564796 0.235236
vt 0.630755 0.235236
vt 0.696714 0.235237
vt 0.763099 0.235237
vt 0.381608 0.235234
vt 0.000123 0.235233
vt 0.000123 0.123466
vt 0.051394 0.123466
vt 0.381609 0.123466
vt 0.696715 0.123468
vt 0.763100 0.123468
vt 0.630756 0.123467
vt 0.564797 0.123467
vt 0.498839 0.123467
vt 0.432880 0.123466
vt 0.117778 0.123466
vt 0.183735 0.123466
vt 0.249693 0.123466
vt 0.315651 0.123466
vt 0.315650 0.000123
vt 0.249692 0.012957
vt 0.183735 0.000124
vt 0.117777 0.000124
vt 0.051393 0.000125
vt 0.432880 0.000123
vt 0.498839 0.000123
vt 0.564798 0.012956
vt 0.630757 0.000123
vt 0.696716 0.000124
vt 0.763101 0.000124
vt 0.381609 0.000123
vt 0.000123 0.000125
vt 0.813192 0.826162
vt 0.747234 0.826164
vt 0.747233 0.774893
vt 0.680039 0.826165
vt 0.680038 0.774894
vt 0.612844 0.826166
vt 0.612844 0.774895
vt 0.546886 0.826166
vt 0.546886 0.774895
vt 0.480501 0.774895
vt 0.045899 0.896276
vt 0.075436 0.905206
vt 0.053569 0.879923
vt 0.051752 0.853699
vt 0.109837 0.900969
vt 0.000123 0.621501
vt 0.813191 0.774891
vt 0.480501 0.826166
vn 0.000000 -1.000000 0.000000
vn 0.000000 1.000000 -0.000000
vn 1.000000 0.000001 0.000000
vn 1.000000 0.000002 0.000000
vn -1.000000 0.000000 0.000000
vn 0.679106 -0.531359 0.506431
vn -0.336022 0.914906 0.223686
vn 0.331417 0.916490 0.224072
vn -0.372851 -0.914338 0.158017
vn 0.269287 -0.945694 0.182066
vn -0.224466 0.711099 0.666298
vn 0.856750 0.317903 0.406099
vn -0.476471 -0.819983 0.317180
vn 0.889862 -0.219991 0.399688
vn 0.079925 0.904937 0.417972
vn -0.593493 0.307548 0.743761
vn -0.529229 0.829774 0.177175
vn 1.000000 0.000000 0.000000
vn 0.000001 0.000004 -1.000000
vn -0.190985 0.000002 -0.981593
vn 0.190986 0.000002 -0.981593
vn 0.000000 0.000002 -1.000000
vn 0.000001 0.000002 -1.000000
vn -0.031273 0.946010 0.322625
vn -0.395740 0.733645 0.552407
vn -0.152120 -0.932746 0.326871
vn -0.348306 -0.834100 0.427738
vn 0.123933 0.939176 0.320295
vn 0.734068 -0.593662 0.329712
vn -0.419820 -0.868472 0.263643
vn -0.557441 -0.448604 0.698580
vn -0.190985 0.000003 -0.981593
vn 0.190986 0.000003 -0.981593
vn 0.000000 0.000000 -1.000000
s off
f 1/1/1 5/2/1 21/3/1
f 22/4/1 13/5/1 14/6/1
f 6/7/1 24/8/1 21/3/1
f 24/8/1 23/9/1 22/4/1
f 26/10/1 24/8/1 6/7/1
f 25/11/1 23/9/1 24/8/1
f 27/12/1 26/10/1 7/13/1
f 28/14/1 25/11/1 26/10/1
f 15/15/1 27/12/1 8/16/1
f 16/17/1 28/14/1 27/12/1
f 30/18/2 29/19/2 18/20/2
f 29/19/2 9/21/2 3/22/2
f 32/23/2 31/24/2 29/19/2
f 10/25/2 9/21/2 29/19/2
f 34/26/2 33/27/2 31/24/2
f 33/27/2 11/28/2 10/25/2
f 36/29/2 33/27/2 34/26/2
f 12/30/2 11/28/2 33/27/2
f 20/31/2 19/32/2 36/29/2
f 19/32/2 4/33/2 12/30/2
f 3/22/3 37/34/3 43/35/3
f 1/1/4 14/6/4 43/35/4
f 19/36/5 44/37/5 38/38/5
f 15/15/5 2/39/5 38/38/5
f 9/40/6 10/41/6 40/42/6
f 9/40/7 40/42/7 39/43/7
f 9/40/8 39/43/8 37/44/8
f 3/45/9 9/40/9 37/44/9
f 5/46/10 37/44/10 39/43/10
f 1/47/11 37/44/11 5/46/11
f 5/46/12 40/42/12 6/48/12
f 5/46/13 39/43/13 40/42/13
f 8/49/14 41/50/14 42/51/14
f 7/52/15 41/50/15 8/49/15
f 7/52/16 40/42/16 41/50/16
f 6/48/17 40/42/17 7/52/17
f 13/5/3 43/35/3 14/6/3
f 13/5/3 17/53/3 43/35/3
f 17/53/3 18/20/3 43/35/3
f 15/15/5 44/37/5 16/17/5
f 16/17/5 44/37/5 20/54/5
f 19/36/5 20/54/5 44/37/5
f 20/54/5 53/55/5 55/56/5
f 17/53/18 13/5/18 56/57/18
f 35/58/2 45/59/2 53/60/2
f 34/26/2 46/61/2 45/59/2
f 32/23/2 47/62/2 46/61/2
f 30/18/2 48/63/2 47/62/2
f 17/53/2 54/64/2 48/63/2
f 28/14/1 16/17/1 55/56/1
f 25/11/1 28/14/1 49/65/1
f 23/9/1 25/11/1 50/66/1
f 23/9/1 51/67/1 52/68/1
f 13/5/1 22/4/1 52/68/1
f 56/57/1 52/68/1 61/69/1
f 51/67/1 62/70/1 61/69/1
f 51/67/1 50/66/1 63/71/1
f 49/65/1 64/72/1 63/71/1
f 55/56/1 58/73/1 64/72/1
f 54/64/2 59/74/2 65/75/2
f 48/63/2 65/75/2 66/76/2
f 47/62/2 66/76/2 67/77/2
f 46/61/2 67/77/2 68/78/2
f 45/59/2 68/78/2 60/79/2
f 54/64/3 56/57/3 57/80/3
f 53/55/5 60/81/5 58/73/5
f 60/81/5 77/82/5 79/83/5
f 59/74/3 57/80/3 80/84/3
f 68/78/2 69/85/2 77/86/2
f 68/78/2 67/77/2 70/87/2
f 66/76/2 71/88/2 70/87/2
f 65/75/2 72/89/2 71/88/2
f 59/74/2 78/90/2 72/89/2
f 64/72/1 58/73/1 79/83/1
f 64/72/1 73/91/1 74/92/1
f 62/70/1 63/71/1 74/92/1
f 61/69/1 62/70/1 75/93/1
f 57/80/1 61/69/1 76/94/1
f 80/84/1 76/94/1 85/95/1
f 75/93/1 86/96/1 85/95/1
f 75/93/1 74/92/1 87/97/1
f 73/91/1 88/98/1 87/97/1
f 79/83/1 82/99/1 88/98/1
f 78/90/2 83/100/2 89/101/2
f 71/88/2 72/89/2 89/101/2
f 71/88/2 90/102/2 91/103/2
f 70/87/2 91/103/2 92/104/2
f 69/85/2 92/104/2 84/105/2
f 78/90/3 80/84/3 81/106/3
f 77/82/5 84/107/5 82/99/5
f 81/108/19 85/109/19 89/110/19
f 85/109/20 86/111/20 90/112/20
f 86/111/21 87/113/21 91/114/21
f 87/113/22 88/115/22 92/116/22
f 84/117/23 92/116/23 88/115/23
f 4/118/24 42/51/24 12/119/24
f 4/118/25 38/120/25 42/51/25
f 2/121/26 8/49/26 42/51/26
f 2/121/27 42/51/27 38/120/27
f 11/122/28 12/119/28 42/51/28
f 11/122/29 42/51/29 41/50/29
f 10/41/30 11/122/30 40/42/30
f 11/122/31 41/50/31 40/42/31
f 14/6/1 1/1/1 21/3/1
f 21/3/1 22/4/1 14/6/1
f 5/2/1 6/7/1 21/3/1
f 21/3/1 24/8/1 22/4/1
f 7/13/2 26/10/2 6/7/2
f 26/10/1 25/11/1 24/8/1
f 8/16/1 27/12/1 7/13/1
f 27/12/1 28/14/1 26/10/1
f 2/39/1 15/15/1 8/16/1
f 15/15/1 16/17/1 27/12/1
f 17/53/2 30/18/2 18/20/2
f 18/20/2 29/19/2 3/22/2
f 30/18/2 32/23/2 29/19/2
f 31/24/2 10/25/2 29/19/2
f 32/23/2 34/26/2 31/24/2
f 31/24/2 33/27/2 10/25/2
f 35/58/2 36/29/2 34/26/2
f 36/29/2 12/30/2 33/27/2
f 35/58/2 20/31/2 36/29/2
f 36/29/2 19/32/2 12/30/2
f 18/20/4 3/22/4 43/35/4
f 37/34/18 1/1/18 43/35/18
f 4/123/5 19/36/5 38/38/5
f 44/37/5 15/15/5 38/38/5
f 16/17/5 20/54/5 55/56/5
f 54/64/4 17/53/4 56/57/4
f 20/31/2 35/58/2 53/60/2
f 35/58/2 34/26/2 45/59/2
f 34/26/2 32/23/2 46/61/2
f 32/23/2 30/18/2 47/62/2
f 30/18/2 17/53/2 48/63/2
f 49/65/1 28/14/1 55/56/1
f 50/66/1 25/11/1 49/65/1
f 51/67/1 23/9/1 50/66/1
f 22/4/1 23/9/1 52/68/1
f 56/57/1 13/5/1 52/68/1
f 57/80/1 56/57/1 61/69/1
f 52/68/1 51/67/1 61/69/1
f 62/70/1 51/67/1 63/71/1
f 50/66/1 49/65/1 63/71/1
f 49/65/1 55/56/1 64/72/1
f 48/63/2 54/64/2 65/75/2
f 47/62/2 48/63/2 66/76/2
f 46/61/2 47/62/2 67/77/2
f 45/59/2 46/61/2 68/78/2
f 53/60/2 45/59/2 60/79/2
f 59/74/4 54/64/4 57/80/4
f 55/56/5 53/55/5 58/73/5
f 58/73/5 60/81/5 79/83/5
f 78/90/3 59/74/3 80/84/3
f 60/79/2 68/78/2 77/86/2
f 69/85/2 68/78/2 70/87/2
f 67/77/2 66/76/2 70/87/2
f 66/76/2 65/75/2 71/88/2
f 65/75/2 59/74/2 72/89/2
f 73/91/1 64/72/1 79/83/1
f 63/71/1 64/72/1 74/92/1
f 75/93/1 62/70/1 74/92/1
f 76/94/1 61/69/1 75/93/1
f 80/84/1 57/80/1 76/94/1
f 81/106/1 80/84/1 85/95/1
f 76/94/1 75/93/1 85/95/1
f 86/96/1 75/93/1 87/97/1
f 74/92/1 73/91/1 87/97/1
f 73/91/1 79/83/1 88/98/1
f 72/89/2 78/90/2 89/101/2
f 90/102/2 71/88/2 89/101/2
f 70/87/2 71/88/2 91/103/2
f 69/85/2 70/87/2 92/104/2
f 77/86/2 69/85/2 84/105/2
f 83/100/3 78/90/3 81/106/3
f 79/83/5 77/82/5 82/99/5
f 83/124/19 81/108/19 89/110/19
f 89/110/32 85/109/32 90/112/32
f 90/112/33 86/111/33 91/114/33
f 91/114/22 87/113/22 92/116/22
f 82/125/34 84/117/34 88/115/34
