# Blender v2.59 (sub 0) OBJ File: 'debris.blend'
# www.blender.org
g debris2
v 0.115699 -1.485853 -0.066582
v 0.651857 -0.511944 -0.242540
v 0.374621 -0.510521 0.404184
v -0.349616 -0.551157 0.364259
v -0.482237 -0.510521 -0.344979
v 0.120665 -0.518200 -0.709027
v 1.333277 1.425328 0.587550
v 0.412601 1.248753 0.936685
v -0.314516 1.578061 0.296074
v -0.149999 1.613081 -0.713820
v 0.773289 1.497186 -0.493553
v 0.152596 2.539191 0.003714
v 0.994062 0.506863 -0.886528
v 1.194193 0.591239 -0.269863
v 1.366324 0.706178 0.221198
v 0.553644 0.568678 0.541191
v 0.001633 0.506863 1.022157
v -0.603720 0.506863 0.770642
v -0.780912 0.569178 0.257909
v -0.582103 0.495791 -0.374326
v -0.480700 0.628406 -0.911696
v 0.266966 0.506863 -0.885357
vt 0.429203 0.170546
vt 0.694138 0.000000
vt 0.535872 0.254950
vt 0.661741 0.303575
vt 0.313695 0.000000
vt 0.813537 0.314385
vt 1.000000 0.232072
vt 0.363126 0.458366
vt 0.469301 0.535153
vt 0.267495 0.835687
vt 0.253062 0.418172
vt 0.029145 0.543043
vt 0.581687 0.639236
vt 0.709860 0.910629
vt 0.523240 0.427528
vt 0.462072 0.415579
vt 0.407538 0.408427
vt 0.336962 0.337155
vt 0.244774 0.289098
vt 0.140697 0.244496
vt 0.965358 0.620072
vt 0.787454 0.533582
vt 0.684649 0.508815
vt 0.596921 0.458533
vt 0.000000 0.191675
vn 0.842667 -0.398483 0.362109
vn 0.593091 -0.447444 -0.669356
vn -0.025706 -0.429000 0.902939
vn -0.861433 -0.490148 0.132997
vn -0.454892 -0.490954 -0.742992
vn 0.728859 0.595441 -0.337956
vn 0.180523 0.599900 0.779443
vn -0.462965 0.456175 0.759979
vn -0.906711 0.399953 -0.133838
vn 0.258934 0.537289 -0.802667
vn 0.884141 0.328815 -0.331928
vn 0.725020 -0.525174 -0.445576
vn 0.393532 -0.402870 0.826334
vn 0.631782 -0.416645 0.653650
vn -0.365543 0.303852 0.879802
vn -0.174155 -0.477644 0.861119
vn -0.856378 0.407872 -0.316635
vn -0.968717 -0.244620 -0.041824
vn 0.063244 0.176164 -0.982327
vn -0.258296 -0.297905 -0.918986
vn 0.876310 -0.435884 -0.205147
vn 0.867711 0.278526 -0.411705
vn 0.656201 -0.201183 0.727273
vn 0.502026 -0.354611 0.788810
vn -0.905987 -0.322781 0.273863
vn -0.621296 0.451471 0.640441
vn -0.972551 -0.102606 -0.208845
vn -0.937527 0.324298 -0.125992
vn -0.001587 -0.169308 -0.985562
vn 0.146167 0.298420 -0.943176
s off
f 3/1/1 1/2/1 2/3/1
f 2/3/2 1/2/2 6/4/2
f 4/5/3 1/2/3 3/1/3
f 5/6/4 1/2/4 4/7/4
f 6/4/5 1/2/5 5/6/5
f 7/8/6 11/9/6 12/10/6
f 8/11/7 7/8/7 12/10/7
f 9/12/8 8/11/8 12/10/8
f 10/13/9 9/14/9 12/10/9
f 11/9/10 10/13/10 12/10/10
f 13/15/11 11/9/11 14/16/11
f 6/4/12 13/15/12 14/16/12
f 6/4/12 14/16/12 2/3/12
f 15/17/13 7/8/13 16/18/13
f 2/3/14 15/17/14 16/18/14
f 2/3/14 16/18/14 3/1/14
f 17/19/15 8/11/15 18/20/15
f 3/1/16 17/19/16 18/20/16
f 3/1/16 18/20/16 4/5/16
f 19/21/17 9/14/17 20/22/17
f 4/7/18 19/21/18 20/22/18
f 4/7/18 20/22/18 5/6/18
f 21/23/19 10/13/19 22/24/19
f 5/6/20 21/23/20 22/24/20
f 5/6/20 22/24/20 6/4/20
f 15/17/21 2/3/21 14/16/21
f 7/8/22 15/17/22 14/16/22
f 7/8/22 14/16/22 11/9/22
f 17/19/23 3/1/23 16/18/23
f 8/11/24 17/19/24 16/18/24
f 8/11/24 16/18/24 7/8/24
f 19/25/25 4/5/25 18/20/25
f 9/12/26 19/25/26 18/20/26
f 9/12/26 18/20/26 8/11/26
f 21/23/27 5/6/27 20/22/27
f 10/13/28 21/23/28 20/22/28
f 10/13/28 20/22/28 9/14/28
f 13/15/29 6/4/29 22/24/29
f 11/9/30 13/15/30 22/24/30
f 11/9/30 22/24/30 10/13/30
