# Blender v2.59 (sub 0) OBJ File: 'poutre.blend'
# www.blender.org
g planche
v 0.622807 -0.200033 -7.413785
v 0.622807 -0.200033 7.413784
v -0.622807 -0.200033 7.413783
v -0.622807 -0.200033 -7.413787
v 0.622807 0.200033 -7.413781
v 0.622806 0.200033 7.413788
v -0.622807 0.200033 7.413782
v -0.622807 0.200033 -7.413785
vt 0.953827 0.803934
vt 0.036476 0.803934
vt 0.036476 0.465907
vt 0.953827 0.465910
vt 0.953827 0.006595
vt 0.953827 0.345366
vt 0.036476 0.345364
vt 0.036476 0.006592
vt 0.953827 0.938127
vt 0.036476 0.938125
vt 0.004107 0.803934
vt 0.004107 0.460807
vt 0.998474 0.803934
vt 0.998474 0.471011
vn 0.000000 -1.000000 0.000000
vn 0.000000 1.000000 0.000000
vn 1.000000 0.000000 0.000000
vn -0.000003 -0.000005 1.000000
vn -1.000000 -0.000000 -0.000000
vn 0.000003 0.000008 -1.000000
s off
f 1/1/1 2/2/1 3/3/1
f 1/1/1 3/3/1 4/4/1
f 5/5/2 8/6/2 7/7/2
f 5/5/2 7/7/2 6/8/2
f 1/1/3 5/9/3 6/10/3
f 1/1/3 6/10/3 2/2/3
f 2/2/4 6/11/4 7/12/4
f 2/2/4 7/12/4 3/3/4
f 3/3/5 7/7/5 8/6/5
f 3/3/5 8/6/5 4/4/5
f 5/13/6 1/1/6 4/4/6
f 5/13/6 4/4/6 8/14/6
