# Blender v2.59 (sub 0) OBJ File: ''
# www.blender.org
g roche 4
v 1.196314 -1.000000 -1.000000
v 1.336993 -1.000000 1.000000
v -1.000000 -1.000000 1.000000
v -1.000000 -1.000000 -1.000000
v 1.053475 0.873076 -0.950404
v 0.999999 1.000000 1.000001
v -1.000000 1.000000 1.000000
v -0.951652 0.968410 -0.990938
v 1.627645 -1.126221 -0.494667
v 1.843507 -1.157315 0.033337
v 1.790732 -1.104119 0.493367
v 0.489137 -1.081657 -1.136575
v -0.006849 -1.168602 -1.256527
v -0.442898 -1.162740 -1.111540
v 1.347691 -0.558696 -1.159879
v 1.260617 -0.071009 -1.175833
v 1.143283 0.378991 -1.041717
v 0.580468 -1.100005 1.150326
v -0.030425 -1.133041 1.123837
v -0.513751 -1.089353 1.147063
v 1.453541 -0.511859 1.202310
v 1.406339 0.010736 1.149287
v 1.250167 0.491543 1.196982
v -1.112736 -1.069380 0.444943
v -1.231463 -1.262209 0.017182
v -1.100114 -1.167591 -0.448261
v -1.196337 -0.469229 1.210303
v -1.142141 -0.049334 1.200310
v -1.106577 0.558061 1.190001
v -1.208242 -0.452377 -1.064235
v -1.144621 -0.050245 -1.240306
v -1.076084 0.459735 -1.070656
v 1.107200 0.995460 -0.424029
v 1.178907 1.199994 0.020197
v 1.197552 1.189943 0.517985
v 0.595298 1.040839 -1.025384
v 0.011153 1.018111 -1.160093
v -0.451266 1.094876 -1.129145
v 0.527805 1.074904 1.206138
v -0.044483 1.246447 1.121264
v -0.493799 1.163548 1.202289
v -1.082640 1.180811 0.574639
v -1.260330 1.190729 -0.006182
v -1.073919 1.104694 -0.432734
v 0.843194 -1.309831 -0.495195
v 1.012536 -1.430588 0.074778
v 0.837065 -1.266124 0.547073
v 0.032799 -1.381272 -0.638919
v -0.054478 -1.460984 -0.005193
v 0.010144 -1.383897 0.512606
v -0.607324 -1.384731 -0.625502
v -0.575771 -1.360981 -0.001720
v -0.541735 -1.311224 0.571056
v 0.648388 1.113963 -0.527643
v -0.024153 1.335186 -0.547164
v -0.459909 1.234864 -0.537558
v 0.646230 1.346559 -0.024931
v -0.075958 1.549170 -0.044681
v -0.566009 1.361423 0.001306
v 0.559055 1.360282 0.702768
v 0.062358 1.558527 0.662432
v -0.596208 1.420088 0.634962
v 1.974195 -0.549883 -0.628537
v 1.761285 0.028014 -0.696462
v 1.398521 0.565236 -0.564102
v 2.323074 -0.514689 0.110822
v 2.322625 -0.053639 -0.009085
v 1.748633 0.586844 0.018228
v 2.208739 -0.497947 0.565145
v 1.965659 -0.015502 0.727854
v 1.595480 0.554386 0.571259
v 0.691258 -0.519743 1.391832
v 0.729747 -0.001782 1.381690
v 0.597185 0.475487 1.312010
v 0.004711 -0.477975 1.306189
v -0.025180 0.133983 1.535815
v 0.035495 0.599733 1.342433
v -0.655466 -0.481381 1.296613
v -0.663612 0.018609 1.493954
v -0.523612 0.606335 1.424253
v -1.237586 -0.543647 0.636703
v -1.311859 0.050606 0.674123
v -1.327718 0.674200 0.667340
v -1.488818 -0.622791 0.094516
v -1.564144 0.043923 -0.008399
v -1.533438 0.561854 0.042207
v -1.313174 -0.526116 -0.618365
v -1.392850 -0.047499 -0.669482
v -1.295122 0.470570 -0.518059
v 0.631784 0.505531 -1.281118
v 0.584565 -0.023982 -1.351545
v 0.609475 -0.524897 -1.410580
v -0.094046 0.489072 -1.445232
v 0.053827 -0.094481 -1.482336
v -0.098301 -0.581532 -1.431668
v -0.520709 0.623460 -1.306227
v -0.697217 0.024043 -1.522586
v -0.572265 -0.631415 -1.285411
vt 0.644096 0.536408
vt 0.634492 0.616101
vt 0.577909 0.654525
vt 0.590971 0.561225
vt 0.644233 0.492132
vt 0.598814 0.495701
vt 0.639137 0.436782
vt 0.592103 0.420247
vt 0.628274 0.350684
vt 0.573852 0.315499
vt 0.531041 0.651279
vt 0.534672 0.555425
vt 0.530848 0.484651
vt 0.537019 0.396931
vt 0.534251 0.300501
vt 0.494036 0.652097
vt 0.496371 0.562751
vt 0.495386 0.485303
vt 0.493466 0.402202
vt 0.500568 0.322869
vt 0.456515 0.626607
vt 0.454280 0.543751
vt 0.456200 0.485235
vt 0.458333 0.426660
vt 0.455678 0.343414
vt 0.264935 0.330093
vt 0.301830 0.343824
vt 0.301515 0.427618
vt 0.261535 0.406175
vt 0.236963 0.311457
vt 0.232179 0.400732
vt 0.197989 0.314961
vt 0.185623 0.379034
vt 0.163588 0.297356
vt 0.150152 0.376018
vt 0.304830 0.485078
vt 0.263093 0.478323
vt 0.230999 0.469765
vt 0.181947 0.455855
vt 0.142118 0.449184
vt 0.295802 0.553280
vt 0.261076 0.559306
vt 0.218324 0.554127
vt 0.182765 0.558807
vt 0.135422 0.523134
vt 0.298800 0.620218
vt 0.257126 0.647562
vt 0.222361 0.633070
vt 0.177123 0.642750
vt 0.142075 0.606482
vt 0.743056 0.325052
vt 0.783654 0.346969
vt 0.790735 0.435050
vt 0.750417 0.413484
vt 0.704261 0.311828
vt 0.706786 0.410044
vt 0.664226 0.322195
vt 0.674038 0.430781
vt 0.795974 0.513447
vt 0.737948 0.499816
vt 0.694974 0.493526
vt 0.676760 0.500570
vt 0.786762 0.587705
vt 0.735240 0.569261
vt 0.697825 0.563400
vt 0.676596 0.537067
vt 0.770081 0.667174
vt 0.728072 0.656612
vt 0.699261 0.637537
vt 0.668619 0.632405
vt 0.776153 0.747817
vt 0.730739 0.743158
vt 0.696872 0.727735
vt 0.662097 0.726148
vt 0.617583 0.726841
vt 0.790731 0.836771
vt 0.739836 0.823082
vt 0.704805 0.831756
vt 0.659159 0.821605
vt 0.609443 0.817652
vt 0.781503 0.905617
vt 0.736649 0.903845
vt 0.694730 0.917597
vt 0.656553 0.917794
vt 0.610156 0.890864
vt 0.771375 0.992238
vt 0.732996 0.997659
vt 0.686059 0.997106
vt 0.654233 1.000000
vt 0.611339 0.968689
vt 0.333605 0.655124
vt 0.332043 0.570913
vt 0.380704 0.661578
vt 0.374781 0.580019
vt 0.412926 0.661103
vt 0.417082 0.574617
vt 0.343786 0.489084
vt 0.375374 0.481803
vt 0.417203 0.494548
vt 0.345291 0.412119
vt 0.381160 0.393212
vt 0.414211 0.398864
vt 0.341191 0.327377
vt 0.380513 0.303873
vt 0.410966 0.332064
vt 0.151280 0.071129
vt 0.163349 0.000000
vt 0.218438 0.000000
vt 0.207480 0.089766
vt 0.154043 0.146312
vt 0.204854 0.160722
vt 0.157801 0.219402
vt 0.199158 0.234987
vt 0.257328 0.001819
vt 0.257578 0.091599
vt 0.243224 0.156982
vt 0.248684 0.236684
vt 0.291687 0.006997
vt 0.293128 0.091412
vt 0.290657 0.187803
vt 0.275551 0.267704
vt 0.332378 0.041935
vt 0.340611 0.128356
vt 0.327769 0.188722
vt 0.320955 0.270877
vn 0.527512 -0.748253 0.402264
vn 0.344829 -0.679708 0.647328
vn 0.091098 -0.700186 0.708090
vn 0.139500 -0.943297 0.301126
vn 0.593890 -0.803369 -0.043123
vn 0.179998 -0.982818 0.040132
vn 0.503006 -0.753685 -0.422926
vn 0.170537 -0.941771 -0.289743
vn 0.345714 -0.666524 -0.660451
vn 0.204291 -0.696890 -0.687429
vn -0.020569 -0.696463 0.717277
vn -0.016633 -0.963195 0.268227
vn -0.031983 -0.998871 0.034211
vn 0.038514 -0.966491 -0.253761
vn 0.001648 -0.678335 -0.734733
vn -0.164495 -0.663167 0.730125
vn -0.214270 -0.940184 0.264748
vn -0.200293 -0.977538 0.065401
vn -0.230995 -0.940825 -0.247841
vn -0.258705 -0.687582 -0.678396
vn -0.585711 -0.624012 0.517167
vn -0.654653 -0.679403 0.331339
vn -0.664724 -0.744438 0.062532
vn -0.656789 -0.704581 -0.268593
vn -0.592395 -0.534959 -0.602374
vn -0.198431 0.732353 -0.651326
vn -0.586352 0.592456 -0.552416
vn -0.599963 0.716819 -0.355205
vn -0.213782 0.926695 -0.309000
vn 0.077853 0.710044 -0.699820
vn 0.037599 0.931974 -0.360485
vn 0.284951 0.744957 -0.603168
vn 0.276223 0.903439 -0.327830
vn 0.569048 0.605182 -0.556688
vn 0.545030 0.745476 -0.383587
vn -0.688803 0.713736 -0.126835
vn -0.285409 0.945463 -0.156865
vn -0.020447 0.979125 -0.202063
vn 0.292184 0.933134 -0.209418
vn 0.531602 0.829432 -0.171361
vn -0.633076 0.729606 0.258583
vn -0.311167 0.922086 0.229957
vn 0.060427 0.968444 0.241768
vn 0.297220 0.910611 0.287118
vn 0.569781 0.782495 0.251015
vn -0.601733 0.560930 0.568529
vn -0.199011 0.630451 0.750237
vn 0.045961 0.669424 0.741447
vn 0.206336 0.552477 0.807550
vn 0.473861 0.597858 0.646504
vn 0.550768 0.376690 -0.744804
vn 0.708518 0.530076 -0.465804
vn 0.489212 0.217444 -0.844600
vn 0.710562 0.346263 -0.612507
vn 0.493179 -0.188818 -0.849178
vn 0.778314 -0.217322 -0.589038
vn 0.758446 0.641713 -0.113620
vn 0.916868 0.376141 -0.133427
vn 0.976836 -0.208960 -0.045442
vn 0.747765 0.547624 0.375378
vn 0.754967 0.334697 0.563860
vn 0.848781 -0.178991 0.497482
vn 0.501541 0.337565 0.796533
vn 0.501663 0.189398 0.844050
vn 0.461196 -0.183538 0.868099
vn 0.191595 0.248909 0.949370
vn 0.189123 0.045045 0.980895
vn 0.119083 -0.224952 0.967040
vn 0.083010 0.280282 0.956298
vn 0.056673 0.018555 0.998199
vn -0.015778 -0.279427 0.960021
vn -0.173528 0.291421 0.940703
vn -0.219001 -0.058657 0.973937
vn -0.155278 -0.292398 0.943571
vn -0.702902 0.230842 0.672750
vn -0.751915 -0.025666 0.658711
vn -0.733757 -0.239235 0.635884
vn -0.909207 0.244911 0.336619
vn -0.947478 -0.022004 0.319010
vn -0.934049 -0.214820 0.285257
vn -0.970885 0.238014 -0.026276
vn -0.999908 -0.009705 0.006623
vn -0.960112 -0.261544 0.098575
vn -0.892850 0.269692 -0.360576
vn -0.944060 0.040559 -0.327219
vn -0.925810 -0.251350 -0.282205
vn -0.725608 0.335002 -0.601032
vn -0.716178 0.015290 -0.697714
vn -0.758660 -0.282449 -0.587054
vn 0.211341 -0.179632 -0.960753
vn 0.247291 0.101474 -0.963591
vn 0.288919 0.285165 -0.913877
vn -0.039460 -0.254921 -0.966124
vn 0.069582 0.012482 -0.997497
vn 0.061342 0.288766 -0.955412
vn -0.281259 -0.307596 -0.908963
vn -0.302957 0.032533 -0.952422
vn -0.242134 0.341594 -0.908078s 1
f 11/1/1 2/2/2 18/3/3
f 11/1/1 18/3/3 47/4/4
f 10/5/5 11/1/1 47/4/4
f 10/5/5 47/4/4 46/6/6
f 9/7/7 10/5/5 46/6/6
f 9/7/7 46/6/6 45/8/8
f 1/9/9 9/7/7 45/8/8
f 1/9/9 45/8/8 12/10/10
f 47/4/4 18/3/3 19/11/11
f 47/4/4 19/11/11 50/12/12
f 46/6/6 47/4/4 50/12/12
f 46/6/6 50/12/12 49/13/13
f 45/8/8 46/6/6 49/13/13
f 45/8/8 49/13/13 48/14/14
f 12/10/10 45/8/8 48/14/14
f 12/10/10 48/14/14 13/15/15
f 50/12/12 19/11/11 20/16/16
f 50/12/12 20/16/16 53/17/17
f 49/13/13 50/12/12 53/17/17
f 49/13/13 53/17/17 52/18/18
f 48/14/14 49/13/13 52/18/18
f 48/14/14 52/18/18 51/19/19
f 13/15/15 48/14/14 51/19/19
f 13/15/15 51/19/19 14/20/20
f 53/17/17 20/16/16 3/21/21
f 53/17/17 3/21/21 24/22/22
f 52/18/18 53/17/17 24/22/22
f 52/18/18 24/22/22 25/23/23
f 51/19/19 52/18/18 25/23/23
f 51/19/19 25/23/23 26/24/24
f 14/20/20 51/19/19 26/24/24
f 14/20/20 26/24/24 4/25/25
f 38/26/26 8/27/27 44/28/28
f 38/26/26 44/28/28 56/29/29
f 37/30/30 38/26/26 56/29/29
f 37/30/30 56/29/29 55/31/31
f 36/32/32 37/30/30 55/31/31
f 36/32/32 55/31/31 54/33/33
f 5/34/34 36/32/32 54/33/33
f 5/34/34 54/33/33 33/35/35
f 56/29/29 44/28/28 43/36/36
f 56/29/29 43/36/36 59/37/37
f 55/31/31 56/29/29 59/37/37
f 55/31/31 59/37/37 58/38/38
f 54/33/33 55/31/31 58/38/38
f 54/33/33 58/38/38 57/39/39
f 33/35/35 54/33/33 57/39/39
f 33/35/35 57/39/39 34/40/40
f 59/37/37 43/36/36 42/41/41
f 59/37/37 42/41/41 62/42/42
f 58/38/38 59/37/37 62/42/42
f 58/38/38 62/42/42 61/43/43
f 57/39/39 58/38/38 61/43/43
f 57/39/39 61/43/43 60/44/44
f 34/40/40 57/39/39 60/44/44
f 34/40/40 60/44/44 35/45/45
f 62/42/42 42/41/41 7/46/46
f 62/42/42 7/46/46 41/47/47
f 61/43/43 62/42/42 41/47/47
f 61/43/43 41/47/47 40/48/48
f 60/44/44 61/43/43 40/48/48
f 60/44/44 40/48/48 39/49/49
f 35/45/45 60/44/44 39/49/49
f 35/45/45 39/49/49 6/50/50
f 17/51/51 5/52/34 33/53/35
f 17/51/51 33/53/35 65/54/52
f 16/55/53 17/51/51 65/54/52
f 16/55/53 65/54/52 64/56/54
f 15/57/55 16/55/53 64/56/54
f 15/57/55 64/56/54 63/58/56
f 1/9/9 15/57/55 63/58/56
f 1/9/9 63/58/56 9/7/7
f 65/54/52 33/53/35 34/59/40
f 65/54/52 34/59/40 68/60/57
f 64/56/54 65/54/52 68/60/57
f 64/56/54 68/60/57 67/61/58
f 63/58/56 64/56/54 67/61/58
f 63/58/56 67/61/58 66/62/59
f 9/7/7 63/58/56 66/62/59
f 9/7/7 66/62/59 10/5/5
f 68/60/57 34/59/40 35/63/45
f 68/60/57 35/63/45 71/64/60
f 67/61/58 68/60/57 71/64/60
f 67/61/58 71/64/60 70/65/61
f 66/62/59 67/61/58 70/65/61
f 66/62/59 70/65/61 69/66/62
f 10/5/5 66/62/59 69/66/62
f 10/5/5 69/66/62 11/1/1
f 71/64/60 35/63/45 6/67/50
f 71/64/60 6/67/50 23/68/63
f 70/65/61 71/64/60 23/68/63
f 70/65/61 23/68/63 22/69/64
f 69/66/62 70/65/61 22/69/64
f 69/66/62 22/69/64 21/70/65
f 11/1/1 69/66/62 21/70/65
f 11/1/1 21/70/65 2/2/2
f 23/68/63 6/67/50 39/71/49
f 23/68/63 39/71/49 74/72/66
f 22/69/64 23/68/63 74/72/66
f 22/69/64 74/72/66 73/73/67
f 21/70/65 22/69/64 73/73/67
f 21/70/65 73/73/67 72/74/68
f 2/2/2 21/70/65 72/74/68
f 2/2/2 72/74/68 18/75/3
f 74/72/66 39/71/49 40/76/48
f 74/72/66 40/76/48 77/77/69
f 73/73/67 74/72/66 77/77/69
f 73/73/67 77/77/69 76/78/70
f 72/74/68 73/73/67 76/78/70
f 72/74/68 76/78/70 75/79/71
f 18/75/3 72/74/68 75/79/71
f 18/75/3 75/79/71 19/80/11
f 77/77/69 40/76/48 41/81/47
f 77/77/69 41/81/47 80/82/72
f 76/78/70 77/77/69 80/82/72
f 76/78/70 80/82/72 79/83/73
f 75/79/71 76/78/70 79/83/73
f 75/79/71 79/83/73 78/84/74
f 19/80/11 75/79/71 78/84/74
f 19/80/11 78/84/74 20/85/16
f 80/82/72 41/81/47 7/86/46
f 80/82/72 7/86/46 29/87/75
f 79/83/73 80/82/72 29/87/75
f 79/83/73 29/87/75 28/88/76
f 78/84/74 79/83/73 28/88/76
f 78/84/74 28/88/76 27/89/77
f 20/85/16 78/84/74 27/89/77
f 20/85/16 27/89/77 3/90/21
f 29/91/75 7/46/46 42/41/41
f 29/91/75 42/41/41 83/92/78
f 28/93/76 29/91/75 83/92/78
f 28/93/76 83/92/78 82/94/79
f 27/95/77 28/93/76 82/94/79
f 27/95/77 82/94/79 81/96/80
f 3/21/21 27/95/77 81/96/80
f 3/21/21 81/96/80 24/22/22
f 83/92/78 42/41/41 43/36/36
f 83/92/78 43/36/36 86/97/81
f 82/94/79 83/92/78 86/97/81
f 82/94/79 86/97/81 85/98/82
f 81/96/80 82/94/79 85/98/82
f 81/96/80 85/98/82 84/99/83
f 24/22/22 81/96/80 84/99/83
f 24/22/22 84/99/83 25/23/23
f 86/97/81 43/36/36 44/28/28
f 86/97/81 44/28/28 89/100/84
f 85/98/82 86/97/81 89/100/84
f 85/98/82 89/100/84 88/101/85
f 84/99/83 85/98/82 88/101/85
f 84/99/83 88/101/85 87/102/86
f 25/23/23 84/99/83 87/102/86
f 25/23/23 87/102/86 26/24/24
f 89/100/84 44/28/28 8/27/27
f 89/100/84 8/27/27 32/103/87
f 88/101/85 89/100/84 32/103/87
f 88/101/85 32/103/87 31/104/88
f 87/102/86 88/101/85 31/104/88
f 87/102/86 31/104/88 30/105/89
f 26/24/24 87/102/86 30/105/89
f 26/24/24 30/105/89 4/25/25
f 15/106/55 1/107/9 12/108/10
f 15/106/55 12/108/10 92/109/90
f 16/110/53 15/106/55 92/109/90
f 16/110/53 92/109/90 91/111/91
f 17/112/51 16/110/53 91/111/91
f 17/112/51 91/111/91 90/113/92
f 5/34/34 17/112/51 90/113/92
f 5/34/34 90/113/92 36/32/32
f 92/109/90 12/108/10 13/114/15
f 92/109/90 13/114/15 95/115/93
f 91/111/91 92/109/90 95/115/93
f 91/111/91 95/115/93 94/116/94
f 90/113/92 91/111/91 94/116/94
f 90/113/92 94/116/94 93/117/95
f 36/32/32 90/113/92 93/117/95
f 36/32/32 93/117/95 37/30/30
f 95/115/93 13/114/15 14/118/20
f 95/115/93 14/118/20 98/119/96
f 94/116/94 95/115/93 98/119/96
f 94/116/94 98/119/96 97/120/97
f 93/117/95 94/116/94 97/120/97
f 93/117/95 97/120/97 96/121/98
f 37/30/30 93/117/95 96/121/98
f 37/30/30 96/121/98 38/26/26
f 98/119/96 14/118/20 4/122/25
f 98/119/96 4/122/25 30/123/89
f 97/120/97 98/119/96 30/123/89
f 97/120/97 30/123/89 31/124/88
f 96/121/98 97/120/97 31/124/88
f 96/121/98 31/124/88 32/125/87
f 38/26/26 96/121/98 32/125/87
f 38/26/26 32/125/87 8/27/27
