# Blender v2.59 (sub 0) OBJ File: ''
# www.blender.org
g roche2
v 0.531588 0.282133 -0.855776
v 0.311067 -0.140716 -1.042921
v -0.071820 0.268236 -0.856507
v 0.046410 0.458482 -0.653301
v 0.748092 0.629682 -0.652000
v 0.355226 0.779541 -0.474256
v -0.739855 0.608272 -0.635967
v -0.252461 0.850161 -0.504958
v -0.169126 1.122097 -0.385760
v 0.045569 -0.102466 -0.935350
v -0.547246 0.359514 -0.817972
v -0.383351 -0.104377 -1.020631
v 1.041865 0.396344 -0.281264
v 1.135745 0.368312 0.012089
v 0.850721 -0.258156 -0.275320
v 0.876256 0.044867 -0.648732
v 0.583428 -0.802845 -0.573093
v 0.453902 -0.452075 -0.751043
v 1.145398 -0.165042 0.044449
v 0.774076 -0.674519 -0.270112
v 0.984468 -0.535013 0.038807
v 0.483378 0.951181 0.111157
v 0.739882 0.771111 -0.109705
v 0.583355 0.590014 0.461257
v 1.055804 0.520530 0.314322
v -0.079335 1.295171 -0.027892
v 0.187718 0.908453 0.404984
v -0.148121 1.381139 0.319622
v -0.093323 -0.776722 -0.592255
v -0.084153 -0.434464 -0.750528
v -0.639522 -0.787661 -0.606092
v -0.479228 -0.379635 -0.768586
v 0.334815 -0.984251 -0.460626
v -0.274475 -0.941113 -0.451898
v -0.049405 -1.156632 -0.323891
v 1.092646 -0.075794 0.646364
v 1.059647 -0.167933 0.346333
v 0.627016 -0.755240 0.628380
v 0.876236 -0.728362 0.377881
v 0.672326 0.304977 0.815316
v 0.837668 -0.397915 0.831468
v 0.384255 0.076491 0.944468
v -0.757909 1.057720 -0.430127
v -0.614343 1.335812 -0.182333
v -0.946905 1.175288 0.377535
v -0.583600 1.494611 0.413095
v -0.959835 0.691883 -0.332343
v -1.097446 0.919982 0.278062
v -1.153756 0.363082 0.018737
v -0.800240 -0.091335 -0.322784
v -0.646653 0.123590 -0.625010
v -0.802721 -0.600500 -0.259937
v -1.124874 0.098527 -0.021678
v -0.977059 -0.369122 0.007092
v -0.472381 0.606683 0.997187
v -0.502901 0.057514 1.041474
v 0.405911 0.562436 0.838195
v -0.080396 1.057055 0.653923
v 0.132550 0.066103 0.881379
v 0.340012 -1.061428 0.598489
v -0.000576 -1.214925 0.442881
v 0.352577 -0.935053 -0.072242
v 0.593681 -0.981562 0.153883
v 0.021716 -1.199813 0.035886
v -0.875862 -0.553395 0.322378
v -0.499066 -0.820711 -0.159429
v -0.466903 -0.944528 0.187857
v -0.630050 -0.815384 0.696129
v -0.343298 -0.989449 0.549847
v -0.564601 -0.410409 0.829418
v -0.867004 0.240867 0.656217
v -0.819344 -0.098153 0.428014
v 0.122265 -0.549460 0.688328
v -0.188133 -0.361709 0.739423
vt 0.582865 0.595581
vt 0.547628 0.631310
vt 0.538070 0.520425
vt 0.568198 0.496803
vt 0.617087 0.582379
vt 0.618095 0.498655
vt 0.505038 0.355730
vt 0.576356 0.376061
vt 0.613983 0.344274
vt 0.525767 0.600449
vt 0.503809 0.445163
vt 0.490716 0.547293
vt 0.641039 0.643639
vt 0.663385 0.666945
vt 0.611167 0.748616
vt 0.599811 0.664581
vt 0.538435 0.827413
vt 0.540823 0.720959
vt 0.653458 0.754333
vt 0.588396 0.839095
vt 0.636782 0.832578
vt 0.688174 0.496021
vt 0.663606 0.563261
vt 0.736272 0.585229
vt 0.690689 0.653590
vt 0.668576 0.331169
vt 0.734364 0.443820
vt 0.713600 0.290459
vt 0.459081 0.733838
vt 0.487585 0.655461
vt 0.399908 0.641604
vt 0.453615 0.581556
vt 0.136689 0.769972
vt 0.058765 0.717845
vt 0.096071 0.690727
vt 0.164073 0.726258
vt 0.205513 0.795997
vt 0.140491 0.667294
vt 0.711967 0.763123
vt 0.681147 0.772923
vt 0.714062 0.947042
vt 0.673359 0.905485
vt 0.757661 0.687218
vt 0.736865 0.844995
vt 0.793991 0.737814
vt 0.889254 0.181132
vt 0.952043 0.217457
vt 0.912370 0.285829
vt 0.881084 0.312931
vt 0.861383 0.219848
vt 0.830383 0.287026
vt 0.894214 0.440263
vt 0.861060 0.384659
vt 0.820881 0.364792
vt 0.956623 0.308566
vt 0.926729 0.419556
vt 0.986635 0.418925
vt 0.418580 0.443949
vt 0.466421 0.452288
vt 0.406050 0.276049
vt 0.475326 0.273467
vt 0.372637 0.541150
vt 0.390604 0.338898
vt 0.356941 0.441594
vt 0.875361 0.573443
vt 0.901261 0.691651
vt 0.782523 0.621482
vt 0.820801 0.477707
vt 0.773678 0.479742
vt 0.823644 0.722630
vt 0.117701 0.471130
vt 0.149312 0.516465
vt 0.094807 0.603426
vt 0.077924 0.537896
vt 0.079918 0.412606
vt 0.041246 0.464467
vt 0.032813 0.634129
vt 0.005632 0.543320
vt 0.141010 0.593623
vt 0.278245 0.578974
vt 0.294248 0.675072
vt 0.206769 0.675533
vt 0.204254 0.584072
vt 0.238015 0.462265
vt 0.193357 0.493374
vt 0.249039 0.726498
vt 0.241343 0.346030
vt 0.244126 0.206487
vt 0.318535 0.215576
vt 0.317706 0.324327
vt 0.306433 0.448180
vt 0.949544 0.578191
vt 0.149325 0.361439
vt 0.191090 0.324282
vt 0.122166 0.181134
vt 0.156192 0.195609
vt 0.054934 0.307582
vn 0.274117 0.288491 -0.917386
vn 0.207739 -0.178594 -0.961730
vn -0.014801 0.472030 -0.881436
vn 0.017579 0.590258 -0.807001
vn 0.451491 0.619983 -0.641652
vn 0.184149 0.755943 -0.628132
vn -0.530259 0.173589 -0.829859
vn 0.041108 0.426862 -0.903378
vn 0.162725 0.660604 -0.732871
vn -0.218574 -0.132023 -0.966826
vn -0.420270 0.284005 -0.861782
vn -0.269997 -0.154973 -0.950285
vn 0.920408 0.242744 -0.306406
vn 0.959075 0.253639 -0.125736
vn 0.872402 -0.220099 -0.436354
vn 0.785241 -0.141392 -0.602802
vn 0.508011 -0.609729 -0.608386
vn 0.297403 -0.396680 -0.868435
vn 0.970306 -0.141301 -0.196173
vn 0.818476 -0.454299 -0.351604
vn 0.852412 -0.491714 -0.177618
vn 0.555712 0.814264 0.167699
vn 0.549974 0.832759 -0.063448
vn 0.539384 0.708487 0.455061
vn 0.714194 0.585131 0.384075
vn 0.453475 0.857295 -0.243629
vn 0.554033 0.755730 0.349101
vn 0.488479 0.787133 0.376507
vn -0.003937 -0.523606 -0.851924
vn -0.041322 -0.463546 -0.885098
vn -0.580462 -0.624622 -0.522324
vn -0.479141 -0.297189 -0.825861
vn 0.341563 -0.816523 -0.465377
vn -0.321421 -0.804376 -0.499619
vn -0.146794 -0.895993 -0.419080
vn 0.892941 -0.027558 0.449263
vn 0.957183 -0.224372 0.182836
vn 0.666005 -0.624165 0.408368
vn 0.763329 -0.559893 0.322214
vn 0.509873 0.426069 0.747307
vn 0.523209 -0.381756 0.761895
vn -0.056215 0.199042 0.978362
vn -0.442305 0.568133 -0.693930
vn -0.273843 0.840358 -0.467727
vn -0.728874 0.574999 0.371563
vn -0.207465 0.874447 0.438490
vn -0.859798 0.139927 -0.491043
vn -0.940397 0.287942 0.180761
vn -0.992370 -0.076632 -0.096377
vn -0.789697 -0.102542 -0.604846
vn -0.828608 -0.134983 -0.543260
vn -0.835170 -0.532945 -0.135655
vn -0.978393 -0.109348 -0.175298
vn -0.896847 -0.433149 -0.089633
vn -0.251198 0.310251 0.916837
vn -0.271126 -0.162450 0.948698
vn 0.438063 0.457228 0.773949
vn 0.323588 0.737114 0.593219
vn 0.030396 -0.086459 0.995788
vn 0.213294 -0.757836 0.616565
vn -0.058168 -0.923826 0.378338
vn 0.367718 -0.925352 -0.092074
vn 0.418683 -0.905606 -0.067476
vn 0.090609 -0.995605 -0.022614
vn -0.885189 -0.414289 0.211524
vn -0.635334 -0.762200 -0.123997
vn -0.596515 -0.799768 -0.067110
vn -0.475845 -0.574206 0.666189
vn -0.245399 -0.767083 0.592700
vn -0.371075 -0.320658 0.871456
vn -0.836085 -0.107944 0.537797
vn -0.877804 -0.186041 0.441359
vn -0.088626 -0.304025 0.948515
vn 0.122868 -0.378430 0.917417
s 1
f 1/1/1 2/2/2 3/3/3
f 1/1/1 3/3/3 4/4/4
f 5/5/5 1/1/1 4/4/4
f 5/5/5 4/4/4 6/6/6
f 4/4/4 3/3/3 7/7/7
f 4/4/4 7/7/7 8/8/8
f 6/6/6 4/4/4 8/8/8
f 6/6/6 8/8/8 9/9/9
f 3/3/3 2/2/2 10/10/10
f 10/10/10 11/11/11 3/3/3
f 7/7/7 3/3/3 11/11/11
f 11/11/11 10/10/10 12/12/12
f 13/13/13 14/14/14 15/15/15
f 13/13/13 15/15/15 16/16/16
f 5/5/5 13/13/13 16/16/16
f 16/16/16 1/1/1 5/5/5
f 16/16/16 15/15/15 17/17/17
f 16/16/16 17/17/17 18/18/18
f 1/1/1 16/16/16 18/18/18
f 1/1/1 18/18/18 2/2/2
f 15/15/15 14/14/14 19/19/19
f 19/19/19 20/20/20 15/15/15
f 17/17/17 15/15/15 20/20/20
f 20/20/20 19/19/19 21/21/21
f 6/6/6 9/9/9 22/22/22
f 6/6/6 22/22/22 23/23/23
f 5/5/5 6/6/6 23/23/23
f 5/5/5 23/23/23 13/13/13
f 23/23/23 22/22/22 24/24/24
f 23/23/23 24/24/24 25/25/25
f 13/13/13 23/23/23 25/25/25
f 13/13/13 25/25/25 14/14/14
f 22/22/22 9/9/9 26/26/26
f 26/26/26 27/27/27 22/22/22
f 24/24/24 22/22/22 27/27/27
f 27/27/27 26/26/26 28/28/28
f 18/18/18 17/17/17 29/29/29
f 18/18/18 29/29/29 30/30/30
f 2/2/2 18/18/18 30/30/30
f 2/2/2 30/30/30 10/10/10
f 30/30/30 29/29/29 31/31/31
f 30/30/30 31/31/31 32/32/32
f 10/10/10 30/30/30 32/32/32
f 10/10/10 32/32/32 12/12/12
f 29/33/29 17/34/17 33/35/33
f 33/35/33 34/36/34 29/33/29
f 31/37/31 29/33/29 34/36/34
f 34/36/34 33/35/33 35/38/35
f 25/25/25 24/24/24 36/39/36
f 25/25/25 36/39/36 37/40/37
f 14/14/14 25/25/25 37/40/37
f 14/14/14 37/40/37 19/19/19
f 37/40/37 36/39/36 38/41/38
f 37/40/37 38/41/38 39/42/39
f 19/19/19 37/40/37 39/42/39
f 19/19/19 39/42/39 21/21/21
f 36/39/36 24/24/24 40/43/40
f 40/43/40 41/44/41 36/39/36
f 38/41/38 36/39/36 41/44/41
f 41/44/41 40/43/40 42/45/42
f 8/46/8 7/47/7 43/48/43
f 8/46/8 43/48/43 44/49/44
f 9/50/9 8/46/8 44/49/44
f 9/50/9 44/49/44 26/51/26
f 44/49/44 43/48/43 45/52/45
f 44/49/44 45/52/45 46/53/46
f 26/51/26 44/49/44 46/53/46
f 26/51/26 46/53/46 28/54/28
f 43/48/43 7/47/7 47/55/47
f 47/55/47 48/56/48 43/48/43
f 45/52/45 43/48/43 48/56/48
f 48/56/48 47/55/47 49/57/49
f 32/32/32 31/31/31 50/58/50
f 32/32/32 50/58/50 51/59/51
f 12/12/12 32/32/32 51/59/51
f 12/12/12 51/59/51 11/11/11
f 51/59/51 50/58/50 49/60/49
f 51/59/51 49/60/49 47/61/47
f 11/11/11 51/59/51 47/61/47
f 11/11/11 47/61/47 7/7/7
f 50/58/50 31/31/31 52/62/52
f 52/62/52 53/63/53 50/58/50
f 49/60/49 50/58/50 53/63/53
f 53/63/53 52/62/52 54/64/54
f 55/65/55 56/66/56 57/67/57
f 55/65/55 57/67/57 58/68/58
f 45/52/45 55/65/55 58/68/58
f 45/52/45 58/68/58 46/53/46
f 58/68/58 57/67/57 24/24/24
f 58/68/58 24/24/24 27/69/27
f 46/53/46 58/68/58 27/69/27
f 46/53/46 27/69/27 28/54/28
f 57/67/57 56/66/56 59/70/59
f 59/70/59 40/43/40 57/67/57
f 24/24/24 57/67/57 40/43/40
f 40/43/40 59/70/59 42/45/42
f 60/71/60 61/72/61 62/73/62
f 60/71/60 62/73/62 63/74/63
f 38/75/38 60/71/60 63/74/63
f 38/75/38 63/74/63 39/76/39
f 63/74/63 62/73/62 17/34/17
f 63/74/63 17/34/17 20/77/20
f 39/76/39 63/74/63 20/77/20
f 39/76/39 20/77/20 21/78/21
f 62/73/62 61/72/61 64/79/64
f 64/79/64 33/35/33 62/73/62
f 17/34/17 62/73/62 33/35/33
f 33/35/33 64/79/64 35/38/35
f 65/80/65 54/81/54 66/82/66
f 65/80/65 66/82/66 67/83/67
f 68/84/68 65/80/65 67/83/67
f 68/84/68 67/83/67 69/85/69
f 67/83/67 66/82/66 35/38/35
f 67/83/67 35/38/35 64/79/64
f 69/85/69 67/83/67 64/79/64
f 69/85/69 64/79/64 61/72/61
f 66/82/66 54/81/54 52/86/52
f 52/86/52 34/36/34 66/82/66
f 35/38/35 66/82/66 34/36/34
f 34/36/34 52/86/52 31/37/31
f 70/87/70 56/88/56 71/89/71
f 70/87/70 71/89/71 72/90/72
f 68/84/68 70/87/70 72/90/72
f 68/84/68 72/90/72 65/91/65
f 72/90/72 71/89/71 49/60/49
f 72/90/72 49/60/49 53/63/53
f 65/91/65 72/90/72 53/63/53
f 65/91/65 53/63/53 54/64/54
f 71/92/71 56/66/56 55/65/55
f 55/65/55 48/56/48 71/92/71
f 49/57/49 71/92/71 48/56/48
f 48/56/48 55/65/55 45/52/45
f 69/85/69 61/72/61 73/93/73
f 69/85/69 73/93/73 74/94/74
f 68/84/68 69/85/69 74/94/74
f 68/84/68 74/94/74 70/87/70
f 74/94/74 73/93/73 42/95/42
f 74/94/74 42/95/42 59/96/59
f 70/87/70 74/94/74 59/96/59
f 70/87/70 59/96/59 56/88/56
f 73/93/73 61/72/61 60/71/60
f 60/71/60 41/97/41 73/93/73
f 42/95/42 73/93/73 41/97/41
f 41/97/41 60/71/60 38/75/38
