# Blender v2.75 (sub 0) OBJ File: 'bouteille.blend'
# www.blender.org
g bouchon
v -0.008459 -0.006504 0.000000
v -0.005982 -0.006504 0.005982
v -0.000000 -0.006504 0.008459
v 0.005982 -0.006504 0.005982
v 0.008459 -0.006504 0.000000
v 0.005982 -0.006504 -0.005982
v -0.000000 -0.006504 -0.008459
v -0.005982 -0.006504 -0.005982
v -0.011634 0.008759 -0.000000
v -0.008227 0.008759 0.008227
v -0.000000 0.008759 0.011634
v 0.008227 0.008759 0.008227
v 0.011634 0.008759 0.000000
v 0.008227 0.008759 -0.008227
v -0.000000 0.008759 -0.011634
v -0.008227 0.008759 -0.008227
v -0.000000 0.008759 -0.000000
vt 0.336076 0.387593
vt 0.495412 0.149603
vt 0.352799 0.069465
vt 0.673898 0.987634
vt 0.960015 0.974836
vt 0.939992 0.812479
vt 0.826082 0.506838
vt 0.734963 0.370979
vt 0.510258 0.548559
vt 0.623840 0.250928
vt 0.199465 0.012461
vt 0.120889 0.287875
vt 0.894982 0.655207
vt 0.626612 0.755226
vt 0.576513 0.647345
vt 0.349428 0.489687
vt 0.267634 0.687153
vt 0.465101 0.605360
vt 0.465101 0.768946
vt 0.349427 0.884619
vt 0.185841 0.884619
vt 0.070168 0.768946
vt 0.070168 0.605360
vt 0.185841 0.489687
vt 0.232380 0.329323
vt 0.659338 0.869582
vt 0.429459 0.461268
vn -0.375800 -0.188700 0.907300
vn -0.907300 -0.188700 -0.375800
vn 0.907300 -0.188700 -0.375800
vn 0.375800 -0.188700 0.907300
vn -0.907300 -0.188700 0.375800
vn -0.375800 -0.188700 -0.907300
vn 0.375800 -0.188700 -0.907300
vn 0.907300 -0.188700 0.375800
vn 0.000000 1.000000 0.000000
s off
f 3/1/1 11/2/1 10/3/1
f 1/4/2 9/5/2 16/6/2
f 14/7/3 13/8/3 5/9/3
f 12/10/4 11/2/4 3/1/4
f 10/3/5 9/11/5 1/12/5
f 16/6/6 15/13/6 7/14/6
f 15/13/7 14/7/7 6/15/7
f 5/9/8 13/8/8 12/10/8
f 14/16/9 17/17/9 13/18/9
f 12/19/9 17/17/9 11/20/9
f 10/21/9 17/17/9 9/22/9
f 16/23/9 17/17/9 15/24/9
f 15/24/9 17/17/9 14/16/9
f 13/18/9 17/17/9 12/19/9
f 11/20/9 17/17/9 10/21/9
f 9/22/9 17/17/9 16/23/9
f 2/25/1 3/1/1 10/3/1
f 8/26/2 1/4/2 16/6/2
f 6/15/3 14/7/3 5/9/3
f 4/27/4 12/10/4 3/1/4
f 2/25/5 10/3/5 1/12/5
f 8/26/6 16/6/6 7/14/6
f 7/14/7 15/13/7 6/15/7
f 4/27/8 5/9/8 12/10/8
