# Blender v2.75 (sub 0) OBJ File: 'bouteille.blend'
# www.blender.org
o Cylinder.006
v 0.000000 -0.012827 -0.007000
v 0.000000 0.012827 -0.007000
v 0.004950 -0.012827 -0.004950
v 0.004950 0.012827 -0.004950
v 0.007000 -0.012827 0.000000
v 0.007000 0.012827 0.000000
v 0.004950 -0.012827 0.004950
v 0.004950 0.012827 0.004950
v -0.000000 -0.012827 0.007000
v -0.000000 0.012827 0.007000
v -0.004950 -0.012827 0.004950
v -0.004950 0.012827 0.004950
v -0.007000 -0.012827 -0.000000
v -0.007000 0.012827 -0.000000
v -0.004950 -0.012827 -0.004950
v -0.004950 0.012827 -0.004950
v -0.000000 0.013672 -0.006124
v 0.004330 0.013672 -0.004330
v 0.006124 0.013672 0.000000
v 0.004330 0.013672 0.004330
v -0.000000 0.013672 0.006124
v -0.004330 0.013672 0.004330
v -0.006124 0.013672 -0.000000
v -0.004330 0.013672 -0.004330
v -0.000000 0.013672 -0.000000
v -0.006045 -0.013581 -0.000000
v -0.004275 -0.013581 0.004275
v -0.000000 -0.013581 0.006045
v 0.004275 -0.013581 0.004275
v 0.006045 -0.013581 0.000000
v 0.004275 -0.013581 -0.004275
v -0.000000 -0.013581 -0.006045
v -0.004275 -0.013581 -0.004275
v -0.000000 -0.013581 0.000000
v 0.004950 0.002288 0.004950
v 0.007000 -0.002288 0.000000
v 0.007000 0.002288 0.000000
v 0.004950 -0.002288 -0.004950
v 0.004950 0.002288 -0.004950
v 0.000000 0.002288 -0.007000
v 0.000000 -0.002288 -0.007000
v 0.004950 -0.002288 0.004950
v -0.000000 0.002288 0.007000
v -0.000000 -0.002288 0.007000
v -0.004950 0.002288 0.004950
v -0.004950 -0.002288 0.004950
v -0.007000 0.002288 -0.000000
v -0.007000 -0.002288 -0.000000
v -0.004950 0.002288 -0.004950
v -0.004950 -0.002288 -0.004950
v 0.004361 0.000566 0.004361
v 0.006168 -0.000566 0.000000
v 0.006168 0.000566 0.000000
v 0.004361 -0.000566 -0.004361
v 0.004361 0.000566 -0.004361
v -0.000000 0.000566 -0.006168
v -0.000000 -0.000566 -0.006168
v 0.004361 -0.000566 0.004361
v -0.000000 0.000566 0.006168
v -0.000000 -0.000566 0.006168
v -0.004361 0.000566 0.004361
v -0.004361 -0.000566 0.004361
v -0.006168 0.000566 -0.000000
v -0.006168 -0.000566 -0.000000
v -0.004361 0.000566 -0.004361
v -0.004361 -0.000566 -0.004361
vt 0.601998 0.627367
vt 0.600496 0.751391
vt 0.362714 0.745857
vt 0.597687 0.874793
vt 0.362521 0.867020
vt 0.593970 0.993814
vt 0.359827 0.986503
vt 0.596051 0.000140
vt 0.600021 0.127252
vt 0.359067 0.131948
vt 0.601898 0.253173
vt 0.360839 0.254113
vt 0.602628 0.378307
vt 0.361794 0.376963
vt 0.602638 0.502992
vt 0.362277 0.500195
vt 0.362532 0.623328
vt 0.694977 0.000140
vt 0.707041 0.027748
vt 0.630970 0.103190
vt 0.825167 0.314448
vt 0.694977 0.314448
vt 0.705968 0.286396
vt 0.917226 0.092199
vt 0.889619 0.104263
vt 0.814176 0.028192
vt 0.602918 0.092199
vt 0.630526 0.210325
vt 0.917226 0.222389
vt 0.813103 0.286841
vt 0.825167 0.000140
vt 0.602918 0.222389
vt 0.889174 0.211399
vt 0.602918 0.534523
vt 0.602918 0.405770
vt 0.630512 0.416708
vt 0.822712 0.625564
vt 0.810935 0.598319
vt 0.886160 0.523585
vt 0.913754 0.405770
vt 0.886508 0.417548
vt 0.811775 0.342322
vt 0.822712 0.314728
vt 0.705737 0.341974
vt 0.693960 0.625564
vt 0.630164 0.522745
vt 0.913754 0.534523
vt 0.693960 0.314728
vt 0.704897 0.597971
vt 0.760072 0.157294
vt 0.240064 0.254142
vt 0.286239 0.254580
vt 0.286835 0.377099
vt 0.240257 0.132979
vt 0.002282 0.248609
vt 0.319469 0.979540
vt 0.318222 0.866342
vt 0.240246 0.376671
vt 0.000780 0.372633
vt 0.315571 0.499796
vt 0.315142 0.376664
vt 0.240501 0.499805
vt 0.000140 0.497007
vt 0.243711 0.868052
vt 0.290273 0.867179
vt 0.294449 0.980318
vt 0.240984 0.623037
vt 0.000150 0.621693
vt 0.758336 0.470146
vt 0.242951 0.013497
vt 0.005091 0.125207
vt 0.287207 0.500204
vt 0.249993 0.990551
vt 0.006727 0.999860
vt 0.312505 0.132821
vt 0.308329 0.019681
vt 0.241939 0.745887
vt 0.002757 0.872748
vt 0.315942 0.622901
vt 0.000880 0.746827
vt 0.283309 0.020460
vt 0.314354 0.254041
vt 0.287636 0.623336
vt 0.284556 0.133658
vt 0.316539 0.745420
vt 0.288424 0.745959
vt 0.352785 0.009449
vt 0.008808 0.006186
vn 0.382700 0.000000 -0.923900
vn 0.923900 0.000000 -0.382700
vn 0.923900 0.000000 0.382700
vn 0.382700 0.000000 0.923900
vn -0.382700 0.000000 0.923900
vn -0.923900 0.000000 0.382700
vn -0.923900 0.000000 -0.382700
vn -0.382700 0.000000 -0.923900
vn -0.276300 0.691900 0.667000
vn -0.276300 0.691900 -0.667000
vn 0.667000 0.691900 0.276300
vn -0.667000 0.691900 0.276300
vn 0.276300 0.691900 -0.667000
vn 0.276300 0.691900 0.667000
vn -0.667000 0.691900 -0.276300
vn 0.667000 0.691900 -0.276300
vn -0.600300 -0.760100 0.248700
vn 0.600300 -0.760100 0.248700
vn 0.248700 -0.760100 -0.600300
vn -0.248700 -0.760100 -0.600300
vn -0.248700 -0.760100 0.600300
vn 0.600300 -0.760100 -0.248700
vn -0.600300 -0.760100 -0.248700
vn 0.248700 -0.760100 0.600300
vn 0.000000 1.000000 0.000000
vn -0.843500 0.407900 0.349400
vn 0.843500 -0.407900 0.349400
vn -0.843500 -0.407900 -0.349400
vn 0.843500 0.407900 0.349400
vn 0.000000 -1.000000 0.000000
vn -0.843500 0.407900 -0.349400
vn 0.349400 -0.407900 0.843500
vn -0.349400 -0.407900 -0.843500
vn 0.349400 0.407900 0.843500
vn 0.843500 0.407900 -0.349400
vn -0.843500 -0.407900 0.349400
vn 0.843500 -0.407900 -0.349400
vn -0.349400 0.407900 0.843500
vn 0.349400 0.407900 -0.843500
vn -0.349400 -0.407900 0.843500
vn -0.349400 0.407900 -0.843500
vn 0.349400 -0.407900 -0.843500
s off
f 2/1/1 4/2/1 39/3/1
f 4/2/2 6/4/2 37/5/2
f 6/4/3 8/6/3 35/7/3
f 8/8/4 10/9/4 43/10/4
f 10/9/5 12/11/5 45/12/5
f 12/11/6 14/13/6 47/14/6
f 14/13/7 16/15/7 49/16/7
f 16/15/8 2/1/8 40/17/8
f 10/18/9 21/19/9 22/20/9
f 2/21/10 16/22/10 24/23/10
f 6/24/11 19/25/11 20/26/11
f 12/27/12 22/20/12 23/28/12
f 4/29/13 2/21/13 17/30/13
f 8/31/14 20/26/14 21/19/14
f 14/32/15 23/28/15 24/23/15
f 4/29/16 18/33/16 19/25/16
f 11/34/17 13/35/17 26/36/17
f 7/37/18 29/38/18 30/39/18
f 3/40/19 31/41/19 32/42/19
f 1/43/20 32/42/20 33/44/20
f 9/45/21 11/34/21 27/46/21
f 3/40/22 5/47/22 30/39/22
f 15/48/23 33/44/23 26/36/23
f 9/45/24 28/49/24 29/38/24
f 19/25/25 18/33/25 25/50/25
f 24/23/25 23/28/25 25/50/25
f 22/20/25 21/19/25 25/50/25
f 20/26/25 19/25/25 25/50/25
f 18/33/25 17/30/25 25/50/25
f 17/30/25 24/23/25 25/50/25
f 23/28/25 22/20/25 25/50/25
f 21/19/25 20/26/25 25/50/25
f 46/51/26 62/52/26 64/53/26
f 44/54/5 46/51/5 11/55/5
f 35/7/27 51/56/27 53/57/27
f 46/51/6 48/58/6 13/59/6
f 49/16/28 65/60/28 63/61/28
f 48/58/7 50/62/7 15/63/7
f 36/64/29 52/65/29 58/66/29
f 50/62/8 41/67/8 1/68/8
f 33/44/30 32/42/30 34/69/30
f 32/42/30 31/41/30 34/69/30
f 30/39/30 29/38/30 34/69/30
f 28/49/30 27/46/30 34/69/30
f 26/36/30 33/44/30 34/69/30
f 31/41/30 30/39/30 34/69/30
f 29/38/30 28/49/30 34/69/30
f 27/46/30 26/36/30 34/69/30
f 42/70/4 44/54/4 9/71/4
f 48/58/31 64/53/31 66/72/31
f 36/64/3 42/73/3 7/74/3
f 43/10/32 59/75/32 51/76/32
f 38/77/2 36/64/2 5/78/2
f 40/17/33 56/79/33 65/60/33
f 41/67/1 38/77/1 3/80/1
f 44/54/34 42/70/34 58/81/34
f 59/75/5 61/82/5 62/52/5
f 61/82/6 63/61/6 64/53/6
f 63/61/7 65/60/7 66/72/7
f 65/60/8 56/79/8 57/83/8
f 51/76/4 59/75/4 60/84/4
f 53/57/3 51/56/3 58/66/3
f 55/85/2 53/57/2 52/65/2
f 56/79/1 55/85/1 54/86/1
f 38/77/35 54/86/35 52/65/35
f 47/14/36 63/61/36 61/82/36
f 37/5/37 53/57/37 55/85/37
f 46/51/38 44/54/38 60/84/38
f 41/67/39 57/83/39 54/86/39
f 45/12/40 61/82/40 59/75/40
f 41/67/41 50/62/41 66/72/41
f 40/17/42 39/3/42 55/85/42
f 40/17/1 2/1/1 39/3/1
f 39/3/2 4/2/2 37/5/2
f 37/5/3 6/4/3 35/7/3
f 35/87/4 8/8/4 43/10/4
f 43/10/5 10/9/5 45/12/5
f 45/12/6 12/11/6 47/14/6
f 47/14/7 14/13/7 49/16/7
f 49/16/8 16/15/8 40/17/8
f 12/27/9 10/18/9 22/20/9
f 17/30/10 2/21/10 24/23/10
f 8/31/11 6/24/11 20/26/11
f 14/32/12 12/27/12 23/28/12
f 18/33/13 4/29/13 17/30/13
f 10/18/14 8/31/14 21/19/14
f 16/22/15 14/32/15 24/23/15
f 6/24/16 4/29/16 19/25/16
f 27/46/17 11/34/17 26/36/17
f 5/47/18 7/37/18 30/39/18
f 1/43/19 3/40/19 32/42/19
f 15/48/20 1/43/20 33/44/20
f 28/49/21 9/45/21 27/46/21
f 31/41/22 3/40/22 30/39/22
f 13/35/23 15/48/23 26/36/23
f 7/37/24 9/45/24 29/38/24
f 48/58/26 46/51/26 64/53/26
f 9/71/5 44/54/5 11/55/5
f 37/5/27 35/7/27 53/57/27
f 11/55/6 46/51/6 13/59/6
f 47/14/28 49/16/28 63/61/28
f 13/59/7 48/58/7 15/63/7
f 42/73/29 36/64/29 58/66/29
f 15/63/8 50/62/8 1/68/8
f 7/88/4 42/70/4 9/71/4
f 50/62/31 48/58/31 66/72/31
f 5/78/3 36/64/3 7/74/3
f 35/87/32 43/10/32 51/76/32
f 3/80/2 38/77/2 5/78/2
f 49/16/33 40/17/33 65/60/33
f 1/68/1 41/67/1 3/80/1
f 60/84/34 44/54/34 58/81/34
f 60/84/5 59/75/5 62/52/5
f 62/52/6 61/82/6 64/53/6
f 64/53/7 63/61/7 66/72/7
f 66/72/8 65/60/8 57/83/8
f 58/81/4 51/76/4 60/84/4
f 52/65/3 53/57/3 58/66/3
f 54/86/2 55/85/2 52/65/2
f 57/83/1 56/79/1 54/86/1
f 36/64/35 38/77/35 52/65/35
f 45/12/36 47/14/36 61/82/36
f 39/3/37 37/5/37 55/85/37
f 62/52/38 46/51/38 60/84/38
f 38/77/39 41/67/39 54/86/39
f 43/10/40 45/12/40 59/75/40
f 57/83/41 41/67/41 66/72/41
f 56/79/42 40/17/42 55/85/42
