# Blender v2.75 (sub 0) OBJ File: 'bouteille.blend'
# www.blender.org
o Cylinder.005
v 0.000000 -0.022629 -0.007000
v -0.000000 0.026454 -0.006447
v 0.004950 -0.022629 -0.004950
v 0.004558 0.026454 -0.004558
v 0.007000 -0.022629 0.000000
v 0.006447 0.026454 0.000000
v 0.004950 -0.022629 0.004950
v 0.004558 0.026454 0.004558
v -0.000000 -0.022629 0.007000
v -0.000000 0.026454 0.006447
v -0.004950 -0.022629 0.004950
v -0.004558 0.026454 0.004558
v -0.007000 -0.022629 -0.000000
v -0.006447 0.026454 -0.000000
v -0.004950 -0.022629 -0.004950
v -0.004558 0.026454 -0.004558
v 0.000000 0.024842 -0.007000
v 0.005747 0.024842 -0.004950
v 0.008127 0.024842 0.000000
v 0.005747 0.024842 0.004950
v -0.000000 0.024842 0.007000
v -0.005747 0.024842 0.004950
v -0.008127 0.024842 -0.000000
v -0.005747 0.024842 -0.004950
v 0.004950 0.022827 -0.004950
v 0.007000 0.022827 0.000000
v 0.004950 0.022827 0.004950
v -0.000000 0.022827 0.007000
v -0.004950 0.022827 0.004950
v -0.007000 0.022827 -0.000000
v -0.004950 0.022827 -0.004950
v 0.000000 0.022827 -0.007000
v 0.017786 0.000099 -0.004950
v 0.025153 0.000099 0.000000
v 0.017786 0.000099 0.004950
v -0.000000 0.000099 0.007000
v -0.017786 0.000099 0.004950
v -0.025153 0.000099 -0.000000
v -0.017786 0.000099 -0.004950
v 0.000000 0.000099 -0.007000
v -0.000000 0.026454 0.000000
v -0.000000 -0.022629 0.000000
vt 0.774021 0.369058
vt 0.783572 0.342978
vt 0.849670 0.343659
vt 0.869632 0.369058
vt 0.899150 0.294058
vt 0.893408 0.224232
vt 0.925052 0.217733
vt 0.842503 0.182064
vt 0.852055 0.155983
vt 0.776405 0.181382
vt 0.756443 0.155983
vt 0.726925 0.230984
vt 0.732667 0.300809
vt 0.701023 0.307309
vt 0.311320 0.175009
vt 0.306081 0.142409
vt 0.395062 0.150797
vt 0.229467 0.166680
vt 0.226211 0.133039
vt 0.305892 0.142598
vt 0.226022 0.133227
vt 0.229278 0.166869
vt 0.394873 0.150986
vt 0.311131 0.175198
vt 0.478615 0.175198
vt 0.483854 0.142598
vt 0.560468 0.166869
vt 0.563724 0.133227
vt 0.484043 0.142409
vt 0.563913 0.133038
vt 0.560657 0.166680
vt 0.478804 0.175009
vt 0.395062 0.523692
vt 0.395062 0.179127
vt 0.641477 0.527996
vt 0.641288 0.528185
vt 0.394873 0.179316
vt 0.394873 0.523881
vt 0.148459 0.528185
vt 0.148647 0.527996
vt 0.320409 0.843823
vt 0.248847 0.866901
vt 0.023142 0.531741
vt 0.022953 0.531930
vt 0.248658 0.867090
vt 0.320220 0.844012
vt 0.469526 0.844012
vt 0.541088 0.867090
vt 0.766793 0.531930
vt 0.766982 0.531741
vt 0.541277 0.866901
vt 0.469715 0.843823
vt 0.813038 0.262521
vt 0.850228 0.779814
vt 0.796041 0.725626
vt 0.888544 0.687310
vt 0.981047 0.648994
vt 0.981047 0.725626
vt 0.850228 0.594807
vt 0.926860 0.594807
vt 0.796041 0.648994
vt 0.926860 0.779814
vt 0.933287 0.306559
vt 0.692788 0.218482
vt 0.395062 0.843719
vt 0.394873 0.843908
vn 0.364800 0.302300 -0.880700
vn 0.730600 0.612000 -0.302600
vn 0.730600 0.612000 0.302600
vn 0.364800 0.302300 0.880700
vn -0.364800 0.302300 0.880700
vn -0.730600 0.612000 0.302600
vn -0.730600 0.612000 -0.302600
vn -0.364800 0.302300 -0.880700
vn -0.333100 -0.131800 -0.933600
vn -0.804700 -0.450300 -0.387000
vn -0.804700 -0.450300 0.387000
vn -0.333100 -0.131800 0.933600
vn 0.333100 -0.131800 0.933600
vn 0.804700 -0.450300 0.387000
vn 0.804700 -0.450300 -0.387000
vn 0.333100 -0.131800 -0.933600
vn 0.382700 0.000000 -0.923900
vn 0.819100 0.462600 -0.339300
vn 0.819100 0.462600 0.339300
vn 0.382700 -0.000000 0.923900
vn -0.382700 0.000000 0.923900
vn -0.819100 0.462600 0.339300
vn -0.819100 0.462600 -0.339300
vn -0.382700 -0.000000 -0.923900
vn -0.114300 -0.064500 -0.991400
vn -0.509400 -0.406900 -0.758200
vn -0.509400 -0.406900 0.758200
vn -0.114300 -0.064500 0.991400
vn 0.114300 -0.064500 0.991400
vn 0.509400 -0.406900 0.758200
vn 0.509400 -0.406900 -0.758200
vn 0.114300 -0.064500 -0.991400
vn 0.000000 1.000000 -0.000000
vn -0.000000 -1.000000 0.000000
vn 0.303400 0.430000 -0.850300
vn 0.656800 0.684700 -0.315900
vn 0.656800 0.684700 0.315900
vn 0.303400 0.430000 0.850300
vn -0.303400 0.430000 0.850300
vn -0.656800 0.684700 0.315900
vn -0.656800 0.684700 -0.315900
vn -0.303400 0.430000 -0.850300
vn -0.867700 -0.343400 -0.359400
vn -0.867700 -0.343400 0.359400
vn 0.867700 -0.343400 0.359400
vn 0.867700 -0.343400 -0.359400
vn 0.114300 0.064500 -0.991400
vn 0.509400 0.406900 -0.758200
vn 0.509400 0.406900 0.758200
vn 0.114300 0.064500 0.991400
vn -0.114300 0.064500 0.991400
vn -0.509400 0.406900 0.758200
vn -0.509400 0.406900 -0.758200
vn -0.114300 0.064500 -0.991400
vn -0.819100 -0.462600 -0.339300
vn -0.819100 -0.462600 0.339300
vn 0.819100 -0.462600 0.339300
vn 0.819100 -0.462600 -0.339300
s off
f 17/1/1 2/2/1 4/3/1
f 18/4/2 4/3/2 6/5/2
f 6/5/3 8/6/3 20/7/3
f 8/6/4 10/8/4 21/9/4
f 21/9/5 10/8/5 12/10/5
f 22/11/6 12/10/6 14/12/6
f 14/12/7 16/13/7 24/14/7
f 16/13/8 2/2/8 17/1/8
f 31/15/9 24/16/9 17/17/9
f 30/18/10 23/19/10 24/16/10
f 22/20/11 23/21/11 30/22/11
f 21/23/12 22/20/12 29/24/12
f 27/25/13 20/26/13 21/23/13
f 26/27/14 19/28/14 20/26/14
f 18/29/15 19/30/15 26/31/15
f 17/17/16 18/29/16 25/32/16
f 40/33/17 32/34/17 25/32/17
f 33/35/18 25/32/18 26/31/18
f 26/27/19 27/25/19 35/36/19
f 27/25/20 28/37/20 36/38/20
f 36/38/21 28/37/21 29/24/21
f 37/39/22 29/24/22 30/22/22
f 30/18/23 31/15/23 39/40/23
f 31/15/24 32/34/24 40/33/24
f 15/41/25 39/40/25 40/33/25
f 13/42/26 38/43/26 39/40/26
f 37/39/27 38/44/27 13/45/27
f 36/38/28 37/39/28 11/46/28
f 7/47/29 35/36/29 36/38/29
f 5/48/30 34/49/30 35/36/30
f 33/35/31 34/50/31 5/51/31
f 40/33/32 33/35/32 3/52/32
f 12/10/33 10/8/33 41/53/33
f 2/2/33 16/13/33 41/53/33
f 8/6/33 6/5/33 41/53/33
f 14/12/33 12/10/33 41/53/33
f 4/3/33 2/2/33 41/53/33
f 10/8/33 8/6/33 41/53/33
f 16/13/33 14/12/33 41/53/33
f 6/5/33 4/3/33 41/53/33
f 11/54/34 13/55/34 42/56/34
f 5/57/34 7/58/34 42/56/34
f 1/59/34 3/60/34 42/56/34
f 15/61/34 1/59/34 42/56/34
f 9/62/34 11/54/34 42/56/34
f 3/60/34 5/57/34 42/56/34
f 13/55/34 15/61/34 42/56/34
f 7/58/34 9/62/34 42/56/34
f 18/4/35 17/1/35 4/3/35
f 19/63/36 18/4/36 6/5/36
f 19/63/37 6/5/37 20/7/37
f 20/7/38 8/6/38 21/9/38
f 22/11/39 21/9/39 12/10/39
f 23/64/40 22/11/40 14/12/40
f 23/64/41 14/12/41 24/14/41
f 24/14/42 16/13/42 17/1/42
f 32/34/24 31/15/24 17/17/24
f 31/15/43 30/18/43 24/16/43
f 29/24/44 22/20/44 30/22/44
f 28/37/21 21/23/21 29/24/21
f 28/37/20 27/25/20 21/23/20
f 27/25/45 26/27/45 20/26/45
f 25/32/46 18/29/46 26/31/46
f 32/34/17 17/17/17 25/32/17
f 33/35/47 40/33/47 25/32/47
f 34/50/48 33/35/48 26/31/48
f 34/49/49 26/27/49 35/36/49
f 35/36/50 27/25/50 36/38/50
f 37/39/51 36/38/51 29/24/51
f 38/44/52 37/39/52 30/22/52
f 38/43/53 30/18/53 39/40/53
f 39/40/54 31/15/54 40/33/54
f 1/65/24 15/41/24 40/33/24
f 15/41/55 13/42/55 39/40/55
f 11/46/56 37/39/56 13/45/56
f 9/66/21 36/38/21 11/46/21
f 9/66/20 7/47/20 36/38/20
f 7/47/57 5/48/57 35/36/57
f 3/52/58 33/35/58 5/51/58
f 1/65/17 40/33/17 3/52/17
