# Blender v2.70 (sub 0) OBJ File: 'vase+fleur.blend'
# www.blender.org
o Sphere_Sphere.001
v 1.434898 3.358902 0.849405
v 1.361058 3.434343 0.858144
v 1.328822 3.347821 0.794938
v 1.510201 3.372538 0.699977
v 1.467552 3.453628 0.646820
v 1.404124 3.361457 0.645509
v 1.577610 3.264371 0.590700
v 1.562884 3.300657 0.492280
v 1.471534 3.253290 0.536233
v 1.597639 3.097763 0.585590
v 1.591209 3.065037 0.485052
v 1.491562 3.086682 0.531123
v 1.558555 2.970311 0.687638
v 1.535935 2.884794 0.629370
v 1.452478 2.959230 0.633171
v 1.483252 2.956675 0.837067
v 1.429441 2.865509 0.840695
v 1.377176 2.945594 0.782600
v 1.415843 3.064842 0.946343
v 1.334110 3.018480 0.995235
v 1.309766 3.053761 0.891876
v 1.366689 3.151022 0.701751
v 1.530305 3.168114 0.785763
v 1.395814 3.231450 0.951454
v 1.305785 3.254099 1.002462
v 1.289737 3.220369 0.896987
vt 1.000000 0.500000
vt 0.853553 0.146447
vt 0.750000 0.250000
vt 0.853553 0.500000
vt 0.500000 0.000000
vt 0.500000 0.146447
vt 0.146446 0.146447
vt 0.250000 0.250000
vt 0.000000 0.500000
vt 0.146446 0.500000
vt 0.146446 0.853553
vt 0.250000 0.750000
vt 0.500000 1.000000
vt 0.500000 0.853553
vt 0.853553 0.853553
vt 0.750000 0.750000
vt 0.500000 0.500000
vn -0.250587 0.888455 0.384472
vn 0.092471 0.950591 -0.296304
vn -0.780175 0.309610 -0.543504
vn 0.707694 0.428022 0.562059
vn 0.840541 0.452071 0.298471
vn 0.399609 0.457778 -0.794183
vn 0.959441 0.261269 0.105716
vn -0.652516 0.104740 -0.750450
vn 0.490860 -0.301279 -0.817469
vn 0.994751 -0.032563 0.096713
vn 0.312784 -0.881954 -0.352519
vn -0.688620 -0.452101 -0.566881
vn 0.925810 -0.257363 0.276711
vn -0.030274 -0.944090 0.328257
vn 0.792993 -0.281411 0.540269
vn -0.337382 -0.451277 0.826106
vn -0.958892 -0.273080 -0.076937
vn 0.674093 -0.090640 0.733024
vn -0.428632 0.307779 0.849391
vn -0.996826 0.042390 -0.067263
vn 0.638783 0.203223 0.742058
vn -0.885739 -0.092502 -0.454787
vn -0.922788 0.283761 -0.260506
vn 0.885739 0.092502 0.454787
vn -0.614612 -0.210730 -0.760125
vn -0.831233 -0.477950 -0.283883
g Sphere_Sphere.001_jaune
s 1
f 2/1/1 5/2/2 6/3/3
f 2/1/1 1/4/4 4/3/5
f 6/3/3 5/2/2 8/5/6
f 4/3/5 7/6/7 8/5/6
f 9/6/8 8/5/6 11/7/9
f 7/6/7 10/8/10 11/7/9
f 11/7/9 14/9/11 15/10/12
f 11/7/9 10/8/10 13/10/13
f 15/10/12 14/9/11 17/11/14
f 13/10/13 16/12/15 17/11/14
f 17/11/14 20/13/16 21/14/17
f 17/11/14 16/12/15 19/14/18
f 20/13/16 25/15/19 26/16/20
f 19/14/18 24/16/21 25/15/19
f 22/17/22 3/4/23 6/3/3
f 1/4/4 23/17/24 4/3/5
f 22/17/22 6/3/3 9/6/8
f 4/3/5 23/17/24 7/6/7
f 22/17/22 9/6/8 12/8/25
f 7/6/7 23/17/24 10/8/10
f 22/17/22 12/8/25 15/10/12
f 10/8/10 23/17/24 13/10/13
f 22/17/22 15/10/12 18/12/26
f 13/10/13 23/17/24 16/12/15
f 22/17/22 18/12/26 21/14/17
f 16/12/15 23/17/24 19/14/18
f 22/17/22 21/14/17 26/16/20
f 19/14/18 23/17/24 24/16/21
f 22/17/22 26/16/20 3/4/23
f 26/16/20 25/15/19 2/1/1
f 24/16/21 1/4/4 2/1/1
f 24/16/21 23/17/24 1/4/4
f 3/4/23 2/1/1 6/3/3
f 5/2/2 2/1/1 4/3/5
f 9/6/8 6/3/3 8/5/6
f 5/2/2 4/3/5 8/5/6
f 12/8/25 9/6/8 11/7/9
f 8/5/6 7/6/7 11/7/9
f 12/8/25 11/7/9 15/10/12
f 14/9/11 11/7/9 13/10/13
f 18/12/26 15/10/12 17/11/14
f 14/9/11 13/10/13 17/11/14
f 18/12/26 17/11/14 21/14/17
f 20/13/16 17/11/14 19/14/18
f 21/14/17 20/13/16 26/16/20
f 20/13/16 19/14/18 25/15/19
f 3/4/23 26/16/20 2/1/1
f 25/15/19 24/16/21 2/1/1
o petal.015_petal
v 1.419729 4.400280 1.039653
v 1.604846 4.423879 0.674328
v 1.280360 3.366699 0.902264
v 1.465477 3.390298 0.536940
vt 0.000062 1.000000
vt 0.000062 0.000062
vt 0.999938 0.000062
vt 0.999938 1.000000
vn 0.882506 -0.176921 0.435755
g petal.015_petal_petal
s off
f 28/18/27 27/19/27 29/20/27
f 30/21/27 28/18/27 29/20/27
o petal.014_petal
v 2.177120 3.489738 -0.250146
v 2.226856 3.082779 -0.264215
v 1.473620 3.377005 0.523785
v 1.523357 2.970046 0.509717
vt 0.000062 1.000000
vt 0.000062 0.000062
vt 0.999938 0.000062
vt 0.999938 1.000000
vn 0.733526 0.066264 0.676423
vn 0.733526 0.066265 0.676423
g petal.014_petal_petal
s off
f 32/22/28 31/23/28 33/24/28
f 34/25/29 32/22/29 33/24/29
o petal.013_petal
v 1.863614 1.955258 0.672608
v 1.677680 1.939453 1.037938
v 1.512923 2.937661 0.536625
v 1.326989 2.921856 0.901954
vt 0.000062 1.000000
vt 0.000062 0.000062
vt 0.999938 0.000062
vt 0.999938 1.000000
vn 0.826699 0.355476 0.436126
g petal.013_petal_petal
s off
f 36/26/30 35/27/30 37/28/30
f 38/29/30 36/26/30 37/28/30
o petal.012_petal
v 1.112897 2.889313 1.944625
v 1.065964 3.296759 1.953135
v 1.319398 2.934624 0.914142
v 1.272464 3.342069 0.922652
vt 0.000062 1.000000
vt 0.000062 0.000062
vt 0.999938 0.000062
vt 0.999938 1.000000
vn 0.973846 0.108002 0.199899
g petal.012_petal_petal
s off
f 40/30/31 39/31/31 41/32/31
f 42/33/31 40/30/31 41/32/31
o petal.011_petal
v 1.430736 2.119359 1.482268
v 1.267798 2.389328 1.744670
v 1.424707 2.850666 0.726129
v 1.261769 3.120635 0.988532
vt 0.000062 1.000000
vt 0.000062 0.000062
vt 0.999938 0.000062
vt 0.999938 1.000000
vn 0.917719 0.289165 0.272351
g petal.011_petal_petal
s off
f 44/34/32 43/35/32 45/36/32
f 46/37/32 44/34/32 45/36/32
o petal.010_petal
v 2.181050 2.484383 -0.053261
v 2.077371 2.186663 0.209229
v 1.537078 3.149290 0.446528
v 1.433399 2.851570 0.709017
vt 0.000062 1.000000
vt 0.000062 0.000062
vt 0.999938 0.000062
vt 0.999938 1.000000
vn 0.749246 0.271629 0.604026
vn 0.749247 0.271630 0.604025
g petal.010_petal_petal
s off
f 48/38/33 47/39/33 49/40/33
f 50/41/34 48/38/34 49/40/34
o petal.009_petal
v 1.854639 4.251169 0.222985
v 2.019057 3.985897 -0.043256
v 1.368007 3.457690 0.713056
v 1.532425 3.192417 0.446815
vt 0.000062 0.000062
vt 0.999938 0.000062
vt 0.999938 1.000000
vt 0.000062 1.000000
vn 0.790798 -0.113513 0.601459
g petal.009_petal_petal
s off
f 51/42/35 53/43/35 54/44/35
f 52/45/35 51/42/35 54/44/35
o petal.008_petal
v 1.108231 3.856212 1.756997
v 1.208841 4.159219 1.499410
v 1.258208 3.153374 0.988807
v 1.358817 3.456382 0.731219
vt 0.000062 0.000062
vt 0.999938 0.000062
vt 0.999938 1.000000
vt 0.000062 1.000000
vn 0.958919 -0.089576 0.269168
vn 0.958919 -0.089575 0.269168
g petal.008_petal_petal
s off
f 55/46/36 57/47/36 58/48/36
f 56/49/37 55/46/37 58/48/37
o petal.007_petal
v 1.014691 3.330113 1.936199
v 1.034973 3.722103 1.816951
v 1.283254 3.021403 0.967095
v 1.303535 3.413392 0.847847
vt 0.000062 1.000000
vt 0.000062 0.000062
vt 0.999938 0.000062
vt 0.999938 1.000000
vn 0.965597 0.028667 0.258459
g petal.007_petal_petal
s off
f 60/50/38 59/51/38 61/52/38
f 62/53/38 60/50/38 61/52/38
o petal.006_petal
v 1.123004 4.193150 1.433518
v 1.273905 4.380874 1.101440
v 1.258300 3.259861 0.967409
v 1.409201 3.447585 0.635331
vt 0.000062 0.000062
vt 0.999938 0.000062
vt 0.999938 1.000000
vt 0.000062 1.000000
vn 0.920949 -0.058876 0.385210
vn 0.920949 -0.058877 0.385210
g petal.006_petal_petal
s off
f 63/54/39 65/55/39 66/56/39
f 64/57/40 63/54/40 66/56/40
o petal.005_petal
v 1.553179 4.433038 0.663085
v 1.742991 4.329280 0.314527
v 1.310807 3.423369 0.831654
v 1.500620 3.319612 0.483096
vt 0.000062 0.000062
vt 0.999938 0.000062
vt 0.999938 1.000000
vt 0.000062 1.000000
vn 0.856051 -0.121621 0.502379
g petal.005_petal_petal
s off
f 67/58/41 69/59/41 70/60/41
f 68/61/41 67/58/41 70/60/41
o petal.004_petal
v 1.968823 3.913368 -0.156827
v 2.082509 3.547644 -0.303826
v 1.424730 3.437137 0.607213
v 1.538415 3.071414 0.460213
vt 0.000062 1.000000
vt 0.000062 0.000062
vt 0.999938 0.000062
vt 0.999938 1.000000
vn 0.809740 0.015939 0.586572
vn 0.809740 0.015939 0.586573
g petal.004_petal_petal
s off
f 72/62/42 71/63/42 73/64/42
f 74/65/43 72/62/43 73/64/43
o petal.003_petal
v 2.190836 2.997282 -0.286674
v 2.166942 2.607558 -0.160850
v 1.513319 3.281840 0.466048
v 1.489425 2.892116 0.591871
vt 0.000062 1.000000
vt 0.000062 0.000062
vt 0.999938 0.000062
vt 0.999938 1.000000
vn 0.762755 0.155866 0.627623
vn 0.762754 0.155866 0.627624
g petal.003_petal_petal
s off
f 76/66/44 75/67/44 77/68/44
f 78/69/45 76/66/45 77/68/45
o petal.002_petal
v 1.985826 2.143583 0.170122
v 1.834190 1.958169 0.503161
v 1.536722 3.046834 0.468510
v 1.385086 2.861419 0.801550
vt 0.000062 0.000062
vt 0.999938 0.000062
vt 0.999938 1.000000
vt 0.000062 1.000000
vn 0.825289 0.241746 0.510350
g petal.002_petal_petal
s off
f 79/70/46 81/71/46 82/72/46
f 80/73/46 79/70/46 82/72/46
o petal.001_petal
v 1.642895 1.920233 0.999587
v 1.453332 2.029992 1.346439
v 1.482479 2.883006 0.607253
v 1.292916 2.992764 0.954105
vt 0.000062 0.000062
vt 0.999938 0.000062
vt 0.999938 1.000000
vt 0.000062 1.000000
vn 0.873622 0.301277 0.382120
vn 0.873623 0.301277 0.382120
g petal.001_petal_petal
s off
f 83/74/47 85/75/47 86/76/47
f 84/77/48 83/74/48 86/76/48
o petal
v 1.148084 2.414996 1.746438
v 1.032454 2.778363 1.897705
v 1.372233 2.869978 0.824842
v 1.256603 3.233344 0.976109
vt 0.000062 0.000062
vt 0.999938 0.000062
vt 0.999938 1.000000
vt 0.000062 1.000000
vn 0.935494 0.168370 0.310651
vn 0.935494 0.168369 0.310650
g petal_petal_petal
s off
f 87/78/49 89/79/49 90/80/49
f 88/81/50 87/78/50 90/80/50
o Cylinder_Cylinder.001
v 0.000000 0.018788 -0.050200
v 1.287691 3.163668 0.610989
v 0.035496 0.018788 -0.035496
v 1.292274 3.125539 0.609819
v 0.050200 0.018788 0.000000
v 1.283330 3.096372 0.633173
v 0.035496 0.018788 0.035496
v 1.266097 3.093251 0.667371
v -0.000000 0.018788 0.050200
v 1.250670 3.118005 0.692379
v -0.035496 0.018788 0.035496
v 1.246086 3.156134 0.693548
v -0.050200 0.018788 -0.000000
v 1.255031 3.185302 0.670194
v -0.035496 0.018788 -0.035496
v 1.272264 3.188422 0.635997
v 0.000000 0.414866 -0.050200
v 0.000000 0.810944 -0.050200
v 0.000000 1.207022 -0.050200
v 0.000116 1.604430 -0.050140
v 0.021588 2.004558 -0.039115
v 0.115412 2.386335 0.009061
v 0.311105 2.723970 0.109543
v 0.602334 2.971315 0.259080
v 0.938051 3.105522 0.431460
v 0.944453 3.067638 0.431224
v 0.615238 2.935259 0.262182
v 0.340973 2.702886 0.121356
v 0.149679 2.376138 0.023133
v 0.055854 1.994361 -0.025043
v 0.035555 1.602204 -0.035467
v 0.035496 1.207022 -0.035496
v 0.035496 0.810944 -0.035496
v 0.035496 0.414866 -0.035496
v 0.936900 3.038659 0.455292
v 0.612657 2.907677 0.288804
v 0.351371 2.686758 0.154642
v 0.163441 2.368338 0.058146
v 0.069616 1.986560 0.009970
v 0.050214 1.600501 0.000007
v 0.050200 1.207022 0.000000
v 0.050200 0.810944 0.000000
v 0.050200 0.414866 0.000000
v 0.919815 3.035558 0.489566
v 0.596105 2.904726 0.323351
v 0.336207 2.685032 0.189902
v 0.148637 2.367503 0.093591
v 0.054813 1.985726 0.045415
v 0.035506 1.600319 0.035501
v 0.035496 1.207022 0.035496
v 0.035496 0.810944 0.035496
v 0.035496 0.414866 0.035496
v 0.903208 3.060153 0.513968
v 0.575277 2.928134 0.345586
v 0.304364 2.698720 0.206481
v 0.113939 2.374123 0.108704
v 0.020115 1.992346 0.060528
v 0.000047 1.601764 0.050224
v -0.000000 1.207022 0.050200
v -0.000000 0.810944 0.050200
v -0.000000 0.414866 0.050200
v 0.896805 3.098036 0.514204
v 0.562373 2.964190 0.342483
v 0.274496 2.719803 0.194668
v 0.079673 2.384320 0.094632
v -0.014152 2.002543 0.046456
v -0.035392 1.603990 0.035550
v -0.035496 1.207022 0.035496
v -0.035496 0.810944 0.035496
v -0.035496 0.414866 0.035496
v 0.904359 3.127016 0.490135
v 0.564954 2.991773 0.315861
v 0.264098 2.735932 0.161382
v 0.065911 2.392120 0.059619
v -0.027914 2.010344 0.011443
v -0.050051 1.605693 0.000076
v -0.050200 1.207022 -0.000000
v -0.050200 0.810944 -0.000000
v -0.050200 0.414866 -0.000000
v 0.921443 3.130116 0.455862
v 0.581506 2.994724 0.281314
v 0.279262 2.737658 0.126122
v 0.080714 2.392955 0.024174
v -0.013110 2.011178 -0.024002
v -0.035343 1.605875 -0.035418
v -0.035496 1.207022 -0.035496
v -0.035496 0.810944 -0.035496
v -0.035496 0.414866 -0.035496
v 1.362224 3.180547 0.627417
v 1.368802 3.125828 0.625739
v 1.355966 3.083969 0.659254
v 1.331234 3.079491 0.708331
v 1.309095 3.115016 0.744220
v 1.302517 3.169734 0.745899
v 1.315353 3.211594 0.712383
v 1.340085 3.216072 0.663307
v 1.485134 3.257095 0.537490
v 1.505686 3.086138 0.532246
v 1.465581 2.955359 0.636959
v 1.388313 2.941366 0.790289
v 1.319144 3.052357 0.902417
v 1.298592 3.223314 0.907662
v 1.338697 3.354094 0.802949
v 1.415965 3.368086 0.649619
vn 0.221931 0.439344 -0.870449
vn 0.333537 -0.308695 -0.890744
vn 0.498001 -0.276528 -0.821863
vn 0.172674 -0.889035 -0.423963
vn 0.405744 -0.858028 -0.314829
vn -0.168554 -0.951537 0.257149
vn 0.065096 -0.920865 0.384320
vn -0.485824 -0.457930 0.744438
vn -0.316568 -0.425520 0.847743
vn -0.591113 0.292489 0.751640
vn -0.503891 0.318155 0.803003
vn -0.427168 0.858455 0.283792
vn -0.395154 0.868587 0.298959
vn -0.092227 0.918577 -0.384259
vn 0.297708 0.461898 -0.835444
vn 0.000000 0.000000 -1.000000
vn 0.707083 0.000000 -0.707083
vn 0.707107 0.000000 -0.707107
vn -0.000031 0.000092 -1.000000
vn 0.707083 0.000000 -0.707114
vn -0.006531 0.014130 -0.999878
vn 0.702231 -0.008820 -0.711875
vn -0.018464 0.076601 -0.996887
vn 0.686239 -0.047914 -0.725761
vn 0.003632 0.204779 -0.978790
vn 0.661367 -0.108921 -0.742088
vn 0.079409 0.339854 -0.937101
vn 0.617420 -0.180517 -0.765618
vn 0.189093 0.428205 -0.883663
vn 0.551683 -0.242592 -0.797967
vn 1.000000 0.000000 0.000000
vn 1.000000 -0.000031 0.000000
vn 0.999664 -0.025208 -0.003021
vn 0.989776 -0.141697 -0.015625
vn 0.927488 -0.370251 -0.051241
vn 0.783197 -0.608966 -0.125492
vn 0.590289 -0.775628 -0.223487
vn 0.707083 0.000000 0.707083
vn 0.707107 0.000000 0.707107
vn 0.707083 -0.000031 0.707083
vn 0.705435 -0.026917 0.708243
vn 0.691397 -0.151646 0.706351
vn 0.622425 -0.398846 0.673391
vn 0.466994 -0.655416 0.593554
vn 0.261483 -0.833064 0.487411
vn 0.000000 0.000000 0.999969
vn -0.000000 0.000000 1.000000
vn 0.000000 -0.000031 0.999969
vn -0.006287 -0.013184 0.999878
vn -0.027345 -0.072237 0.997009
vn -0.065249 -0.175085 0.982360
vn -0.135258 -0.289407 0.947569
vn -0.233009 -0.379131 0.895505
vn -0.707083 0.000000 0.707083
vn -0.707107 0.000000 0.707107
vn -0.707114 0.000061 0.707053
vn -0.711997 0.009491 0.702109
vn -0.721213 0.051790 0.690725
vn -0.704856 0.145817 0.694174
vn -0.650349 0.241523 0.720176
vn -0.577685 0.298624 0.759636
vn -0.999969 0.000000 0.000000
vn -1.000000 0.000000 0.000000
vn -1.000000 0.000183 0.000000
vn -0.999603 0.027680 -0.003265
vn -0.988861 0.148564 -0.006745
vn -0.930479 0.365886 0.016907
vn -0.787652 0.609882 0.087374
vn -0.577624 0.791955 0.197760
vn -0.707083 0.000000 -0.707083
vn -0.707107 0.000000 -0.707107
vn -0.707114 0.000183 -0.707083
vn -0.708304 0.029664 -0.705252
vn -0.701071 0.159001 -0.695090
vn -0.642567 0.388226 -0.660573
vn -0.492599 0.647389 -0.581530
vn -0.265755 0.843471 -0.466811
vn -0.067080 0.926511 -0.370159
vn -0.573138 0.615406 -0.541032
vn -0.819361 0.570818 -0.052431
vn -0.947172 0.154088 0.281228
vn -0.881680 -0.390667 0.264534
vn -0.661245 -0.744377 -0.092776
vn -0.415021 -0.699789 -0.581378
vn -0.287210 -0.283029 -0.915067
vn -0.352702 0.261727 -0.898343
vn -0.768228 0.334319 -0.545945
vn -0.632912 0.117187 -0.765304
vn -0.919389 0.306946 -0.245985
vn -0.997846 0.051101 -0.041136
vn -0.957640 -0.283344 -0.051394
vn -0.822325 -0.500474 -0.270754
vn -0.671164 -0.473101 -0.570713
vn -0.592707 -0.217258 -0.775563
g Cylinder_Cylinder.001_vert
s 1
f 92//51 94//52 116//53
f 94//52 96//54 125//55
f 96//54 98//56 134//57
f 134//57 98//56 100//58
f 143//59 100//58 102//60
f 152//61 102//60 104//62
f 161//63 104//62 106//64
f 106//64 92//51 115//65
f 107//66 124//67 93//68
f 108//66 123//67 124//67
f 109//69 122//70 123//67
f 110//71 121//72 122//70
f 111//73 120//74 121//72
f 111//73 112//75 119//76
f 112//75 113//77 118//78
f 113//77 114//79 117//80
f 115//65 116//53 117//80
f 124//67 133//81 95//81
f 123//67 132//81 133//81
f 122//70 131//82 132//81
f 121//72 130//83 131//82
f 120//74 129//84 130//83
f 119//76 128//85 129//84
f 119//76 118//78 127//86
f 118//78 117//80 126//87
f 116//53 125//55 126//87
f 133//81 142//88 97//89
f 132//81 141//88 142//88
f 131//82 140//90 141//88
f 130//83 139//91 140//90
f 129//84 138//92 139//91
f 128//85 137//93 138//92
f 128//85 127//86 136//94
f 127//86 126//87 135//95
f 125//55 134//57 135//95
f 142//88 151//96 99//97
f 141//88 150//97 151//96
f 140//90 149//98 150//97
f 140//90 139//91 148//99
f 139//91 138//92 147//100
f 137//93 146//101 147//100
f 136//94 145//102 146//101
f 135//95 144//103 145//102
f 135//95 134//57 143//59
f 151//96 160//104 101//105
f 150//97 159//104 160//104
f 149//98 158//106 159//104
f 149//98 148//99 157//107
f 148//99 147//100 156//108
f 146//101 155//109 156//108
f 145//102 154//110 155//109
f 144//103 153//111 154//110
f 144//103 143//59 152//61
f 160//104 169//112 103//113
f 159//104 168//113 169//112
f 158//106 167//114 168//113
f 158//106 157//107 166//115
f 157//107 156//108 165//116
f 155//109 164//117 165//116
f 154//110 163//118 164//117
f 153//111 162//119 163//118
f 153//111 152//61 161//63
f 169//112 178//120 105//121
f 168//113 177//120 178//120
f 167//114 176//122 177//120
f 167//114 166//115 175//123
f 166//115 165//116 174//124
f 164//117 173//125 174//124
f 163//118 172//126 173//125
f 162//119 171//127 172//126
f 162//119 161//63 170//128
f 105//121 178//120 107//66
f 178//120 177//120 108//66
f 177//120 176//122 109//69
f 175//123 110//71 109//69
f 174//124 111//73 110//71
f 173//125 112//75 111//73
f 173//125 172//126 113//77
f 172//126 171//127 114//79
f 170//128 115//65 114//79
f 92//51 106//64 186//129
f 106//64 104//62 185//130
f 102//60 184//131 185//130
f 102//60 100//58 183//132
f 100//58 98//56 182//133
f 98//56 96//54 181//134
f 94//52 180//135 181//134
f 94//52 92//51 179//136
f 186//129 194//137 187//138
f 186//129 185//130 193//139
f 184//131 192//140 193//139
f 183//132 191//141 192//140
f 183//132 182//133 190//142
f 182//133 181//134 189//143
f 181//134 180//135 188//144
f 180//135 179//136 187//138
f 115//65 92//51 116//53
f 116//53 94//52 125//55
f 125//55 96//54 134//57
f 143//59 134//57 100//58
f 152//61 143//59 102//60
f 161//63 152//61 104//62
f 170//128 161//63 106//64
f 170//128 106//64 115//65
f 91//66 107//66 93//68
f 107//66 108//66 124//67
f 108//66 109//69 123//67
f 109//69 110//71 122//70
f 110//71 111//73 121//72
f 120//74 111//73 119//76
f 119//76 112//75 118//78
f 118//78 113//77 117//80
f 114//79 115//65 117//80
f 93//68 124//67 95//81
f 124//67 123//67 133//81
f 123//67 122//70 132//81
f 122//70 121//72 131//82
f 121//72 120//74 130//83
f 120//74 119//76 129//84
f 128//85 119//76 127//86
f 127//86 118//78 126//87
f 117//80 116//53 126//87
f 95//81 133//81 97//89
f 133//81 132//81 142//88
f 132//81 131//82 141//88
f 131//82 130//83 140//90
f 130//83 129//84 139//91
f 129//84 128//85 138//92
f 137//93 128//85 136//94
f 136//94 127//86 135//95
f 126//87 125//55 135//95
f 97//89 142//88 99//97
f 142//88 141//88 151//96
f 141//88 140//90 150//97
f 149//98 140//90 148//99
f 148//99 139//91 147//100
f 138//92 137//93 147//100
f 137//93 136//94 146//101
f 136//94 135//95 145//102
f 144//103 135//95 143//59
f 99//97 151//96 101//105
f 151//96 150//97 160//104
f 150//97 149//98 159//104
f 158//106 149//98 157//107
f 157//107 148//99 156//108
f 147//100 146//101 156//108
f 146//101 145//102 155//109
f 145//102 144//103 154//110
f 153//111 144//103 152//61
f 101//105 160//104 103//113
f 160//104 159//104 169//112
f 159//104 158//106 168//113
f 167//114 158//106 166//115
f 166//115 157//107 165//116
f 156//108 155//109 165//116
f 155//109 154//110 164//117
f 154//110 153//111 163//118
f 162//119 153//111 161//63
f 103//113 169//112 105//121
f 169//112 168//113 178//120
f 168//113 167//114 177//120
f 176//122 167//114 175//123
f 175//123 166//115 174//124
f 165//116 164//117 174//124
f 164//117 163//118 173//125
f 163//118 162//119 172//126
f 171//127 162//119 170//128
f 91//66 105//121 107//66
f 107//66 178//120 108//66
f 108//66 177//120 109//69
f 176//122 175//123 109//69
f 175//123 174//124 110//71
f 174//124 173//125 111//73
f 112//75 173//125 113//77
f 113//77 172//126 114//79
f 171//127 170//128 114//79
f 179//136 92//51 186//129
f 186//129 106//64 185//130
f 104//62 102//60 185//130
f 184//131 102//60 183//132
f 183//132 100//58 182//133
f 182//133 98//56 181//134
f 96//54 94//52 181//134
f 180//135 94//52 179//136
f 179//136 186//129 187//138
f 194//137 186//129 193//139
f 185//130 184//131 193//139
f 184//131 183//132 192//140
f 191//141 183//132 190//142
f 190//142 182//133 189//143
f 189//143 181//134 188//144
f 188//144 180//135 187//138
