# Blender v2.70 (sub 0) OBJ File: 'vase+fleur.blend'
# www.blender.org
o Sphere_Sphere.001
v 1.063508 3.900851 0.000000
v 0.971657 3.953610 0.000000
v 0.958963 3.842438 0.000000
v 1.094845 3.844765 -0.155105
v 1.015975 3.874292 -0.219352
v 0.990301 3.786352 -0.155105
v 1.170501 3.709362 -0.219352
v 1.122968 3.682803 -0.310211
v 1.065956 3.650949 -0.219352
v 1.246156 3.573959 -0.155105
v 1.229961 3.491314 -0.219352
v 1.141612 3.515545 -0.155105
v 1.277494 3.517873 0.000000
v 1.274279 3.411997 0.000000
v 1.172949 3.459460 0.000000
v 1.246156 3.573959 0.155106
v 1.229961 3.491314 0.219353
v 1.141612 3.515545 0.155106
v 1.170501 3.709362 0.219353
v 1.122968 3.682803 0.310212
v 1.065956 3.650949 0.219353
v 1.042341 3.637754 0.000000
v 1.203594 3.727853 0.000000
v 1.094845 3.844765 0.155106
v 1.015975 3.874292 0.219353
v 0.990301 3.786352 0.155106
vt 1.000000 0.500000
vt 0.853553 0.146447
vt 0.750000 0.250000
vt 0.853553 0.500000
vt 0.500000 0.000000
vt 0.500000 0.146447
vt 0.146446 0.146447
vt 0.250000 0.250000
vt 0.000000 0.500000
vt 0.146446 0.500000
vt 0.146446 0.853553
vt 0.250000 0.750000
vt 0.500000 1.000000
vt 0.500000 0.853553
vt 0.853553 0.853553
vt 0.750000 0.750000
vt 0.500000 0.500000
vn -0.456801 0.889553 0.000000
vn -0.314035 0.634022 -0.706656
vn -0.937346 -0.187231 -0.293741
vn 0.616260 0.787530 0.000000
vn 0.671529 0.688589 -0.273568
vn 0.030641 0.017121 -0.999359
vn -0.794061 -0.443678 -0.415387
vn 0.804956 0.449751 -0.386883
vn 0.375317 -0.599750 -0.706656
vn -0.650807 -0.700095 -0.293710
vn 0.938414 0.210944 -0.273568
vn 0.518113 -0.855281 0.000000
vn 0.993683 0.112003 0.000000
vn 0.375317 -0.599780 0.706656
vn -0.650807 -0.700095 0.293710
vn 0.938414 0.210944 0.273568
vn 0.030641 0.017121 0.999359
vn -0.794061 -0.443678 0.415387
vn 0.804956 0.449751 0.386883
vn -0.314035 0.634022 0.706656
vn -0.937346 -0.187231 0.293710
vn 0.671529 0.688589 0.273568
vn -0.872951 -0.487747 0.000000
vn -0.996704 -0.081027 0.000000
vn 0.872951 0.487747 0.000000
vn -0.591449 -0.806330 0.000000
g Sphere_Sphere.001_jaune
s 1
f 2/1/1 5/2/2 6/3/3
f 1/4/4 4/3/5 5/2/2
f 5/2/2 8/5/6 9/6/7
f 4/3/5 7/6/8 8/5/6
f 8/5/6 11/7/9 12/8/10
f 8/5/6 7/6/8 10/8/11
f 12/8/10 11/7/9 14/9/12
f 11/7/9 10/8/11 13/10/13
f 14/9/12 17/11/14 18/12/15
f 13/10/13 16/12/16 17/11/14
f 17/11/14 20/13/17 21/14/18
f 16/12/16 19/14/19 20/13/17
f 20/13/17 25/15/20 26/16/21
f 19/14/19 24/16/22 25/15/20
f 22/17/23 3/4/24 6/3/3
f 1/4/4 23/17/25 4/3/5
f 22/17/23 6/3/3 9/6/7
f 4/3/5 23/17/25 7/6/8
f 22/17/23 9/6/7 12/8/10
f 7/6/8 23/17/25 10/8/11
f 22/17/23 12/8/10 15/10/26
f 10/8/11 23/17/25 13/10/13
f 22/17/23 15/10/26 18/12/15
f 13/10/13 23/17/25 16/12/16
f 22/17/23 18/12/15 21/14/18
f 16/12/16 23/17/25 19/14/19
f 22/17/23 21/14/18 26/16/21
f 19/14/19 23/17/25 24/16/22
f 22/17/23 26/16/21 3/4/24
f 26/16/21 25/15/20 2/1/1
f 24/16/22 1/4/4 2/1/1
f 24/16/22 23/17/25 1/4/4
f 3/4/24 2/1/1 6/3/3
f 2/1/1 1/4/4 5/2/2
f 6/3/3 5/2/2 9/6/7
f 5/2/2 4/3/5 8/5/6
f 9/6/7 8/5/6 12/8/10
f 11/7/9 8/5/6 10/8/11
f 15/10/26 12/8/10 14/9/12
f 14/9/12 11/7/9 13/10/13
f 15/10/26 14/9/12 18/12/15
f 14/9/12 13/10/13 17/11/14
f 18/12/15 17/11/14 21/14/18
f 17/11/14 16/12/16 20/13/17
f 21/14/18 20/13/17 26/16/21
f 20/13/17 19/14/19 25/15/20
f 3/4/24 26/16/21 2/1/1
f 25/15/20 24/16/22 2/1/1
o petal.015_petal
v 0.725205 4.853724 -0.313812
v 0.806167 4.708824 -0.688960
v 0.931505 3.907231 0.096290
v 1.012467 3.762331 -0.278859
vt 0.000062 1.000000
vt 0.000062 0.000062
vt 0.999938 0.000062
vt 0.999938 1.000000
vn 0.960515 0.256282 0.108304
vn 0.960515 0.256282 0.108303
g petal.015_petal_petal
s off
f 28/18/27 27/19/27 29/20/27
f 30/21/28 28/18/28 29/20/28
o petal.014_petal
v 1.454715 3.548095 -1.224559
v 1.639910 3.216647 -1.069213
v 1.021695 3.745815 -0.286480
v 1.206890 3.414366 -0.131134
vt 0.000062 0.000062
vt 0.999938 0.000062
vt 0.999938 1.000000
vt 0.000062 1.000000
vn 0.791679 0.558455 0.247735
vn 0.791679 0.558455 0.247736
g petal.014_petal_petal
s off
f 31/22/29 33/23/29 34/24/29
f 32/25/30 31/22/30 34/24/30
o petal.013_petal
v 1.908616 2.735732 0.336989
v 1.824174 2.886862 0.708898
v 1.214607 3.400553 -0.090745
v 1.130165 3.551683 0.281164
vt 0.000062 1.000000
vt 0.000062 0.000062
vt 0.999938 0.000062
vt 0.999938 1.000000
vn 0.722755 0.681810 -0.112958
vn 0.722755 0.681811 -0.112958
g petal.013_petal_petal
s off
f 36/26/31 35/27/31 37/28/31
f 38/29/32 36/26/32 37/28/32
o petal.012_petal
v 1.173063 4.052176 1.220165
v 0.989044 4.381522 1.059059
v 1.121413 3.567347 0.288037
v 0.937393 3.896693 0.126930
vt 0.000062 1.000000
vt 0.000062 0.000062
vt 0.999938 0.000062
vt 0.999938 1.000000
vn 0.892394 0.378201 -0.246164
vn 0.892394 0.378202 -0.246164
g petal.012_petal_petal
s off
f 40/30/33 39/31/33 41/32/33
f 42/33/34 40/30/34 41/32/34
o petal.011_petal
v 1.632578 3.229768 1.078334
v 1.446341 3.563082 1.228351
v 1.205981 3.415992 0.134975
v 1.019744 3.749306 0.284992
vt 0.000062 1.000000
vt 0.000062 0.000062
vt 0.999938 0.000062
vt 0.999938 1.000000
vn 0.793375 0.555419 -0.249129
g petal.011_petal_petal
s off
f 44/34/35 43/35/35 45/36/35
f 46/37/35 44/34/35 45/36/35
o petal.010_petal
v 1.854206 2.833113 -0.609151
v 1.921369 2.712908 -0.222723
v 1.142699 3.529250 -0.268941
v 1.209863 3.409045 0.117487
vt 0.000062 0.000062
vt 0.999938 0.000062
vt 0.999938 1.000000
vt 0.000062 1.000000
vn 0.718134 0.690081 0.089846
vn 0.718134 0.690081 0.089845
g petal.010_petal_petal
s off
f 47/38/36 49/39/36 50/40/36
f 48/41/37 47/38/37 50/40/37
o petal.009_petal
v 0.996307 4.368524 -1.068406
v 1.181409 4.037242 -1.224216
v 0.938274 3.895118 -0.130798
v 1.123375 3.563836 -0.286608
vt 0.000062 1.000000
vt 0.000062 0.000062
vt 0.999938 0.000062
vt 0.999938 1.000000
vn 0.890708 0.381219 0.247611
vn 0.890709 0.381218 0.247611
g petal.009_petal_petal
s off
f 52/42/38 51/43/38 53/44/38
f 54/45/39 52/42/39 53/44/39
o petal.008_petal
v 0.788422 4.740582 0.630025
v 0.717670 4.867210 0.246297
v 1.005061 3.775586 0.271638
v 0.934308 3.902214 -0.112090
vt 0.000062 0.000062
vt 0.999938 0.000062
vt 0.999938 1.000000
vt 0.000062 1.000000
vn 0.963246 0.251395 -0.094646
vn 0.963246 0.251396 -0.094645
g petal.008_petal_petal
s off
f 55/46/40 57/47/40 58/48/40
f 56/49/41 55/46/41 58/48/41
o petal.007_petal
v 0.926954 4.390074 1.049066
v 0.781832 4.649804 0.766635
v 1.069513 3.660436 0.304824
v 0.924391 3.920166 0.022393
vt 0.000062 0.000062
vt 0.999938 0.000062
vt 0.999938 1.000000
vt 0.000062 1.000000
vn 0.925467 0.343583 -0.159567
vn 0.925467 0.343582 -0.159568
g petal.007_petal_petal
s off
f 59/50/42 61/51/42 62/52/42
f 60/53/43 59/50/43 62/52/43
o petal.006_petal
v 0.613266 4.843186 0.209100
v 0.612634 4.844317 -0.201126
v 0.963091 3.851116 0.205826
v 0.962460 3.852247 -0.204400
vt 0.000062 1.000000
vt 0.000062 0.000062
vt 0.999938 0.000062
vt 0.999938 1.000000
vn 0.943084 0.332554 -0.000536
vn 0.943084 0.332554 -0.000535
g petal.006_petal_petal
s off
f 64/54/44 63/55/44 65/56/44
f 66/57/45 64/54/45 65/56/45
o petal.005_petal
v 0.753452 4.700596 -0.683189
v 0.887068 4.461459 -0.988553
v 0.923993 3.920878 0.002046
v 1.057609 3.681741 -0.303318
vt 0.000062 1.000000
vt 0.000062 0.000062
vt 0.999938 0.000062
vt 0.999938 1.000000
vn 0.931466 0.332845 0.146917
vn 0.931466 0.332846 0.146917
g petal.005_petal_petal
s off
f 68/58/46 67/59/46 69/60/46
f 70/61/47 68/58/47 69/60/47
o petal.004_petal
v 1.136470 3.906790 -1.264774
v 1.336550 3.548701 -1.259525
v 0.974166 3.831296 -0.228169
v 1.174245 3.473207 -0.222921
vt 0.000062 0.000062
vt 0.999938 0.000062
vt 0.999938 1.000000
vt 0.000062 1.000000
vn 0.859253 0.482589 0.169682
vn 0.859254 0.482588 0.169682
g petal.004_petal_petal
s off
f 71/62/48 73/63/48 74/64/48
f 72/65/49 71/62/49 74/64/49
o petal.003_petal
v 1.632259 3.127767 -1.035252
v 1.774722 2.872794 -0.747189
v 1.078740 3.643922 -0.304642
v 1.221204 3.388950 -0.016579
vt 0.000062 0.000062
vt 0.999938 0.000062
vt 0.999938 1.000000
vt 0.000062 1.000000
vn 0.776226 0.610685 0.156645
vn 0.776226 0.610685 0.156646
g petal.003_petal_petal
s off
f 75/66/50 77/67/50 78/68/50
f 76/69/51 75/66/51 78/68/51
o petal.002_petal
v 1.844635 2.639362 -0.201076
v 1.843995 2.640507 0.209150
v 1.183140 3.457288 -0.204391
v 1.182500 3.458433 0.205835
vt 0.000062 0.000062
vt 0.999938 0.000062
vt 0.999938 1.000000
vt 0.000062 1.000000
vn 0.777541 0.628832 -0.000543
g petal.002_petal_petal
s off
f 79/70/52 81/71/52 82/72/52
f 80/73/52 79/70/52 82/72/52
o petal.001_petal
v 1.790916 2.843810 0.699377
v 1.655049 3.086977 1.000536
v 1.221419 3.388566 0.002595
v 1.085551 3.631732 0.303755
vt 0.000062 0.000062
vt 0.999938 0.000062
vt 0.999938 1.000000
vt 0.000062 1.000000
vn 0.772800 0.616817 -0.149391
vn 0.772800 0.616816 -0.149392
g petal.001_petal_petal
s off
f 83/74/53 85/75/53 86/76/53
f 84/77/54 83/74/54 86/76/54
o petal
v 1.328680 3.562783 1.262254
v 1.128585 3.920902 1.262254
v 1.172846 3.475712 0.225564
v 0.972750 3.833830 0.225564
vt 0.000062 0.000062
vt 0.999938 0.000062
vt 0.999938 1.000000
vt 0.000062 1.000000
vn 0.860313 0.480693 -0.169695
vn 0.860312 0.480693 -0.169695
g petal_petal_petal
s off
f 87/78/55 89/79/55 90/80/55
f 88/81/56 87/78/56 90/80/56
o Cylinder_Cylinder.001
v 0.000000 0.018788 -0.050200
v 0.946241 3.584058 -0.050199
v 0.035496 0.018788 -0.035496
v 0.963555 3.553071 -0.035496
v 0.050200 0.018788 0.000000
v 0.970727 3.540236 0.000000
v 0.035496 0.018788 0.035496
v 0.963555 3.553071 0.035497
v -0.000000 0.018788 0.050200
v 0.946241 3.584058 0.050200
v -0.035496 0.018788 0.035496
v 0.928927 3.615046 0.035497
v -0.050200 0.018788 -0.000000
v 0.921755 3.627882 0.000000
v -0.035496 0.018788 -0.035496
v 0.928927 3.615046 -0.035496
v 0.000000 0.414866 -0.050200
v 0.000000 0.810944 -0.050200
v 0.000000 1.207022 -0.050200
v -0.000099 1.603097 -0.050200
v -0.024836 1.998392 -0.050200
v -0.005865 2.394015 -0.050200
v 0.103836 2.774493 -0.050199
v 0.316859 3.108167 -0.050199
v 0.610456 3.373989 -0.050199
v 0.629267 3.343887 -0.035496
v 0.340700 3.081869 -0.035496
v 0.137921 2.764585 -0.035496
v 0.029591 2.392315 -0.035496
v 0.010620 1.996692 -0.035496
v 0.035327 1.605329 -0.035496
v 0.035496 1.207022 -0.035496
v 0.035496 0.810944 -0.035496
v 0.035496 0.414866 -0.035496
v 0.637060 3.331419 0.000000
v 0.350575 3.070976 0.000000
v 0.152040 2.760481 0.000000
v 0.044277 2.391611 0.000000
v 0.025306 1.995987 -0.000000
v 0.050001 1.606253 0.000000
v 0.050200 1.207022 0.000000
v 0.050200 0.810944 0.000000
v 0.050200 0.414866 0.000000
v 0.629267 3.343887 0.035497
v 0.340700 3.081869 0.035496
v 0.137921 2.764585 0.035496
v 0.029591 2.392315 0.035496
v 0.010620 1.996692 0.035496
v 0.035327 1.605329 0.035496
v 0.035496 1.207022 0.035496
v 0.035496 0.810944 0.035496
v 0.035496 0.414866 0.035496
v 0.610455 3.373989 0.050200
v 0.316859 3.108167 0.050200
v 0.103836 2.774493 0.050200
v -0.005865 2.394015 0.050200
v -0.024836 1.998392 0.050200
v -0.000099 1.603097 0.050200
v -0.000000 1.207022 0.050200
v -0.000000 0.810944 0.050200
v -0.000000 0.414866 0.050200
v 0.591643 3.404090 0.035497
v 0.293018 3.134466 0.035496
v 0.069750 2.784401 0.035496
v -0.041321 2.395715 0.035496
v -0.060291 2.000092 0.035496
v -0.035525 1.600864 0.035496
v -0.035496 1.207022 0.035496
v -0.035496 0.810944 0.035496
v -0.035496 0.414866 0.035496
v 0.583851 3.416559 0.000000
v 0.283143 3.145359 0.000000
v 0.055631 2.788506 0.000000
v -0.056007 2.396420 -0.000000
v -0.074977 2.000796 -0.000000
v -0.050199 1.599940 -0.000000
v -0.050200 1.207022 -0.000000
v -0.050200 0.810944 -0.000000
v -0.050200 0.414866 -0.000000
v 0.591643 3.404090 -0.035496
v 0.293018 3.134466 -0.035496
v 0.069750 2.784401 -0.035496
v -0.041321 2.395715 -0.035496
v -0.060291 2.000092 -0.035496
v -0.035525 1.600864 -0.035496
v -0.035496 1.207022 -0.035496
v -0.035496 0.810944 -0.035496
v -0.035496 0.414866 -0.035496
v 1.011760 3.620667 -0.072042
v 1.036608 3.576197 -0.050941
v 1.046900 3.557776 0.000000
v 1.036608 3.576196 0.050941
v 1.011760 3.620667 0.072042
v 0.986912 3.665137 0.050941
v 0.976620 3.683558 0.000000
v 0.986912 3.665137 -0.050941
v 1.077280 3.657275 -0.225079
v 1.154910 3.518337 -0.159155
v 1.187066 3.460787 0.000000
v 1.154910 3.518337 0.159155
v 1.077280 3.657275 0.225079
v 0.999649 3.796213 0.159155
v 0.967494 3.853763 0.000000
v 0.999649 3.796213 -0.159155
vn -0.130711 -0.066286 -0.989196
vn 0.228004 -0.672353 -0.704184
vn 0.421003 -0.555406 -0.717093
vn 0.378094 -0.925748 0.000000
vn 0.605579 -0.795770 0.000000
vn 0.228004 -0.672353 0.704184
vn 0.421003 -0.555406 0.717093
vn -0.130711 -0.066286 0.989196
vn -0.014588 0.016297 0.999756
vn -0.484359 0.531724 0.694693
vn -0.433027 0.573138 0.695669
vn -0.629353 0.777093 0.000000
vn -0.484359 0.531724 -0.694693
vn -0.433027 0.573138 -0.695669
vn -0.014588 0.016297 -0.999756
vn 0.000000 0.000000 -1.000000
vn 0.707083 0.000000 -0.707083
vn 0.707107 0.000000 -0.707107
vn 0.000031 0.000000 -1.000000
vn 0.707114 0.000153 -0.707053
vn 0.007569 0.000061 -0.999969
vn 0.710654 0.022462 -0.703146
vn -0.013520 -0.000793 -0.999878
vn 0.700552 0.005371 -0.713553
vn -0.028047 0.007843 -0.999573
vn 0.684378 -0.114994 -0.719962
vn -0.030824 0.019227 -0.999329
vn 0.629749 -0.286386 -0.722037
vn -0.028230 0.018159 -0.999420
vn 0.529740 -0.446455 -0.721122
vn 1.000000 0.000000 0.000000
vn 0.999969 0.000244 0.000000
vn 0.999481 0.031953 0.000000
vn 0.999939 0.008423 0.000000
vn 0.985626 -0.168767 0.000000
vn 0.908414 -0.418012 0.000000
vn 0.766991 -0.641621 0.000000
vn 0.707083 0.000000 0.707083
vn 0.707107 0.000000 0.707107
vn 0.707114 0.000153 0.707053
vn 0.710654 0.022462 0.703146
vn 0.700552 0.005371 0.713553
vn 0.684378 -0.114994 0.719962
vn 0.629749 -0.286386 0.722037
vn 0.529740 -0.446486 0.721122
vn 0.000000 0.000000 0.999969
vn -0.000000 0.000000 1.000000
vn 0.000031 0.000000 1.000000
vn 0.007569 0.000061 0.999969
vn -0.013520 -0.000793 0.999878
vn -0.028047 0.007843 0.999573
vn -0.030824 0.019227 0.999329
vn -0.028230 0.018159 0.999420
vn -0.707083 0.000000 0.707083
vn -0.707107 0.000000 0.707107
vn -0.707083 -0.000031 0.707083
vn -0.703085 -0.021729 0.710746
vn -0.713981 -0.005097 0.700125
vn -0.712363 0.117801 0.691824
vn -0.661977 0.298532 0.687460
vn -0.553667 0.467727 0.688925
vn -0.999969 0.000000 0.000000
vn -1.000000 0.000000 0.000000
vn -1.000000 -0.000031 0.000000
vn -0.999512 -0.030610 0.000000
vn -0.999969 -0.006287 0.000000
vn -0.987213 0.159307 0.000000
vn -0.913938 0.405805 0.000000
vn -0.760704 0.649068 0.000000
vn -0.601032 0.799188 0.000000
vn -0.707083 0.000000 -0.707083
vn -0.707107 0.000000 -0.707107
vn -0.707083 -0.000031 -0.707083
vn -0.703085 -0.021729 -0.710746
vn -0.713981 -0.005097 -0.700125
vn -0.712363 0.117801 -0.691824
vn -0.661977 0.298532 -0.687460
vn -0.553667 0.467727 -0.688925
vn -0.855678 0.102847 -0.507157
vn -0.958129 0.286264 0.000000
vn -0.855678 0.102847 0.507157
vn -0.608295 -0.339854 0.717246
vn -0.360912 -0.782617 0.507157
vn -0.258431 -0.966002 0.000000
vn -0.360881 -0.782617 -0.507157
vn -0.608264 -0.339854 -0.717246
vn -0.935659 -0.166132 -0.311355
vn -0.783790 -0.437936 -0.440324
vn -0.998565 -0.053546 0.000000
vn -0.935659 -0.166131 0.311355
vn -0.783790 -0.437937 0.440323
vn -0.631921 -0.709742 0.311357
vn -0.569015 -0.822327 -0.000001
vn -0.631922 -0.709741 -0.311355
g Cylinder_Cylinder.001_vert
s 1
f 92//57 94//58 116//59
f 94//58 96//60 125//61
f 125//61 96//60 98//62
f 134//63 98//62 100//64
f 143//65 100//64 102//66
f 152//67 102//66 104//68
f 104//68 106//69 170//70
f 106//69 92//57 115//71
f 107//72 124//73 93//74
f 108//72 123//73 124//73
f 109//75 122//76 123//73
f 109//75 110//77 121//78
f 111//79 120//80 121//78
f 112//81 119//82 120//80
f 112//81 113//83 118//84
f 113//83 114//85 117//86
f 115//71 116//59 117//86
f 124//73 133//87 95//87
f 123//73 132//87 133//87
f 122//76 131//88 132//87
f 122//76 121//78 130//89
f 120//80 129//90 130//89
f 119//82 128//91 129//90
f 119//82 118//84 127//92
f 118//84 117//86 126//93
f 116//59 125//61 126//93
f 133//87 142//94 97//95
f 132//87 141//94 142//94
f 131//88 140//96 141//94
f 130//89 139//97 140//96
f 130//89 129//90 138//98
f 128//91 137//99 138//98
f 127//92 136//100 137//99
f 126//93 135//101 136//100
f 126//93 125//61 134//63
f 142//94 151//102 99//103
f 141//94 150//103 151//102
f 140//96 149//104 150//103
f 139//97 148//105 149//104
f 139//97 138//98 147//106
f 137//99 146//107 147//106
f 136//100 145//108 146//107
f 135//101 144//109 145//108
f 135//101 134//63 143//65
f 151//102 160//110 101//111
f 150//103 159//110 160//110
f 149//104 158//112 159//110
f 148//105 157//113 158//112
f 148//105 147//106 156//114
f 147//106 146//107 155//115
f 145//108 154//116 155//115
f 144//109 153//117 154//116
f 144//109 143//65 152//67
f 160//110 169//118 103//119
f 159//110 168//119 169//118
f 158//112 167//120 168//119
f 157//113 166//121 167//120
f 157//113 156//114 165//122
f 155//115 164//123 165//122
f 154//116 163//124 164//123
f 153//117 162//125 163//124
f 153//117 152//67 161//126
f 169//118 178//127 105//128
f 168//119 177//127 178//127
f 167//120 176//129 177//127
f 167//120 166//121 175//130
f 165//122 174//131 175//130
f 165//122 164//123 173//132
f 164//123 163//124 172//133
f 163//124 162//125 171//134
f 161//126 170//70 171//134
f 105//128 178//127 107//72
f 178//127 177//127 108//72
f 177//127 176//129 109//75
f 176//129 175//130 110//77
f 174//131 111//79 110//77
f 173//132 112//81 111//79
f 173//132 172//133 113//83
f 172//133 171//134 114//85
f 170//70 115//71 114//85
f 92//57 106//69 186//135
f 106//69 104//68 185//136
f 102//66 184//137 185//136
f 100//64 183//138 184//137
f 98//62 182//139 183//138
f 96//60 181//140 182//139
f 94//58 180//141 181//140
f 92//57 179//142 180//141
f 186//135 194//143 187//144
f 185//136 193//145 194//143
f 185//136 184//137 192//146
f 184//137 183//138 191//147
f 182//139 190//148 191//147
f 181//140 189//149 190//148
f 180//141 188//150 189//149
f 179//142 187//144 188//150
f 115//71 92//57 116//59
f 116//59 94//58 125//61
f 134//63 125//61 98//62
f 143//65 134//63 100//64
f 152//67 143//65 102//66
f 161//126 152//67 104//68
f 161//126 104//68 170//70
f 170//70 106//69 115//71
f 91//72 107//72 93//74
f 107//72 108//72 124//73
f 108//72 109//75 123//73
f 122//76 109//75 121//78
f 110//77 111//79 121//78
f 111//79 112//81 120//80
f 119//82 112//81 118//84
f 118//84 113//83 117//86
f 114//85 115//71 117//86
f 93//74 124//73 95//87
f 124//73 123//73 133//87
f 123//73 122//76 132//87
f 131//88 122//76 130//89
f 121//78 120//80 130//89
f 120//80 119//82 129//90
f 128//91 119//82 127//92
f 127//92 118//84 126//93
f 117//86 116//59 126//93
f 95//87 133//87 97//95
f 133//87 132//87 142//94
f 132//87 131//88 141//94
f 131//88 130//89 140//96
f 139//97 130//89 138//98
f 129//90 128//91 138//98
f 128//91 127//92 137//99
f 127//92 126//93 136//100
f 135//101 126//93 134//63
f 97//95 142//94 99//103
f 142//94 141//94 151//102
f 141//94 140//96 150//103
f 140//96 139//97 149//104
f 148//105 139//97 147//106
f 138//98 137//99 147//106
f 137//99 136//100 146//107
f 136//100 135//101 145//108
f 144//109 135//101 143//65
f 99//103 151//102 101//111
f 151//102 150//103 160//110
f 150//103 149//104 159//110
f 149//104 148//105 158//112
f 157//113 148//105 156//114
f 156//114 147//106 155//115
f 146//107 145//108 155//115
f 145//108 144//109 154//116
f 153//117 144//109 152//67
f 101//111 160//110 103//119
f 160//110 159//110 169//118
f 159//110 158//112 168//119
f 158//112 157//113 167//120
f 166//121 157//113 165//122
f 156//114 155//115 165//122
f 155//115 154//116 164//123
f 154//116 153//117 163//124
f 162//125 153//117 161//126
f 103//119 169//118 105//128
f 169//118 168//119 178//127
f 168//119 167//120 177//127
f 176//129 167//120 175//130
f 166//121 165//122 175//130
f 174//131 165//122 173//132
f 173//132 164//123 172//133
f 172//133 163//124 171//134
f 162//125 161//126 171//134
f 91//72 105//128 107//72
f 107//72 178//127 108//72
f 108//72 177//127 109//75
f 109//75 176//129 110//77
f 175//130 174//131 110//77
f 174//131 173//132 111//79
f 112//81 173//132 113//83
f 113//83 172//133 114//85
f 171//134 170//70 114//85
f 179//142 92//57 186//135
f 186//135 106//69 185//136
f 104//68 102//66 185//136
f 102//66 100//64 184//137
f 100//64 98//62 183//138
f 98//62 96//60 182//139
f 96//60 94//58 181//140
f 94//58 92//57 180//141
f 179//142 186//135 187//144
f 186//135 185//136 194//143
f 193//145 185//136 192//146
f 192//146 184//137 191//147
f 183//138 182//139 191//147
f 182//139 181//140 190//148
f 181//140 180//141 189//149
f 180//141 179//142 188//150
