# Blender v2.67 (sub 0) OBJ File: ''
# www.blender.org
g champi3
v -0.000000 0.000000 0.007862
v 0.000000 0.052431 0.003355
v -0.006809 0.000000 0.003931
v -0.002906 0.052431 0.001678
v -0.006809 0.000000 -0.003931
v -0.002906 0.052431 -0.001678
v 0.000000 0.000000 -0.007862
v 0.000000 0.052431 -0.003355
v 0.006809 0.000000 -0.003931
v 0.002906 0.052431 -0.001678
v 0.006809 0.000000 0.003931
v 0.002906 0.052431 0.001678
v -0.000000 0.044005 0.045700
v -0.039577 0.044005 0.022850
v -0.039577 0.044005 -0.022850
v 0.000000 0.044005 -0.045700
v 0.039577 0.044005 -0.022850
v 0.039577 0.044005 0.022850
v -0.000000 0.058470 0.036797
v -0.031867 0.058470 0.018399
v -0.031867 0.058470 -0.018399
v 0.000000 0.058470 -0.036797
v 0.031867 0.058470 -0.018399
v 0.031867 0.058470 0.018399
v -0.000000 0.072520 0.021741
v -0.018828 0.072520 0.010870
v -0.018828 0.072520 -0.010871
v 0.000000 0.072520 -0.021741
v 0.018828 0.072520 -0.010871
v 0.018828 0.072520 0.010870
v -0.000000 0.076678 0.006918
v -0.005991 0.076678 0.003459
v -0.005991 0.076678 -0.003459
v 0.000000 0.076678 -0.006918
v 0.005991 0.076678 -0.003459
v 0.005991 0.076678 0.003459
v 0.000000 0.077722 -0.000000
v -0.000000 0.045377 0.037116
v -0.032144 0.045377 0.018558
v -0.032144 0.045377 -0.018558
v 0.000000 0.045377 -0.037116
v 0.032144 0.045377 0.018558
v 0.032144 0.045377 -0.018558
v 0.000000 0.007123 -0.004807
v -0.004163 0.007123 -0.002403
v -0.004163 0.007123 0.002403
v -0.000000 0.007123 0.004807
v 0.004163 0.007123 0.002403
v 0.004163 0.007123 -0.002403
v 0.002634 0.010537 0.001521
v 0.002634 0.010537 -0.001521
v -0.002634 0.010537 -0.001521
v -0.002634 0.010537 0.001521
v 0.000000 0.010537 -0.003041
v 0.000000 0.010537 0.003041
vt 0.164151 0.881421
vt 0.164151 0.962332
vt 0.091848 0.881421
vt 0.091848 0.962332
vt 0.019545 0.881421
vt 0.453361 0.881422
vt 0.453361 0.962332
vt 0.381059 0.881422
vt 0.381059 0.962332
vt 0.308756 0.962332
vt 0.567795 0.590244
vt 0.566685 0.766505
vt 0.480970 0.815750
vt 0.236453 0.881421
vt 0.236453 0.962332
vt 0.308756 0.881422
vt 0.719515 0.854324
vt 0.870129 0.766513
vt 0.955850 0.815762
vt 0.720145 0.953184
vt 0.870129 0.592170
vt 0.719515 0.504359
vt 0.955850 0.542921
vt 0.720145 0.405499
vt 0.008365 0.347579
vt 0.084889 0.103236
vt 0.156434 0.164700
vt 0.142466 0.561798
vt 0.193412 0.485599
vt 0.557750 0.131825
vt 0.626045 0.399675
vt 0.480702 0.194069
vt 0.325280 0.006328
vt 0.322959 0.102084
vt 0.389740 0.621069
vt 0.386774 0.527192
vt 0.100397 0.332287
vt 0.217518 0.222575
vt 0.241979 0.412511
vt 0.521272 0.395644
vt 0.408275 0.244526
vt 0.316107 0.187188
vt 0.361564 0.427591
vt 0.184137 0.321586
vt 0.272338 0.277301
vt 0.283816 0.341627
vt 0.421691 0.365078
vt 0.337356 0.285484
vt 0.306207 0.264948
vt 0.324286 0.341369
vt 0.301219 0.304559
vt 0.261869 0.311717
vt 0.338279 0.325596
vt 0.652883 0.640581
vt 0.652399 0.717260
vt 0.718885 0.755464
vt 0.784407 0.717264
vt 0.784407 0.641419
vt 0.718886 0.603219
vt 0.308756 0.800511
vt 0.164151 0.638690
vt 0.164151 0.800511
vt 0.091848 0.638690
vt 0.453361 0.638690
vt 0.453361 0.800511
vt 0.381059 0.638690
vt 0.091848 0.800511
vt 0.019545 0.638690
vt 0.381059 0.800511
vt 0.019545 0.800511
vt 0.236453 0.638690
vt 0.236453 0.800511
vt 0.308756 0.638690
vt 0.019545 0.962332
vt 0.482708 0.539907
vn 0.000000 0.252174 0.967650
vn 0.000000 -0.908750 0.417280
vn -0.838008 0.252174 0.483810
vn -0.361370 -0.908750 0.208625
vn -0.838008 0.252174 -0.483810
vn -0.361370 -0.908750 -0.208625
vn 0.000000 0.252174 -0.967650
vn 0.000000 -0.908750 -0.417280
vn 0.361370 -0.908750 -0.208625
vn 0.000000 -0.984802 0.173528
vn 0.150273 -0.984802 0.086764
vn -0.772057 -0.452956 -0.445753
vn 0.838008 0.252174 0.483810
vn 0.361370 -0.908750 0.208625
vn 0.838008 0.252174 -0.483810
vn 0.150273 -0.984802 -0.086764
vn 0.000000 -0.984802 -0.173528
vn 0.000000 -0.452956 0.891507
vn -0.772057 -0.452956 0.445753
vn -0.150273 -0.984802 -0.086764
vn -0.150273 -0.984802 0.086764
vn 0.772057 -0.452956 0.445753
vn 0.772057 -0.452956 -0.445753
vn 0.684286 0.612873 0.395062
vn -0.684286 0.612873 0.395062
vn 0.000000 -0.452956 -0.891507
vn 0.000000 0.612873 -0.790155
vn 0.684286 0.612873 -0.395062
vn -0.684286 0.612873 -0.395062
vn 0.000000 0.612873 0.790155
vn 0.471755 0.838588 0.272347
vn -0.471755 0.838588 0.272347
vn 0.000000 0.838588 -0.544725
vn 0.471755 0.838588 -0.272347
vn -0.471755 0.838588 -0.272347
vn 0.000000 0.838588 0.544725
vn 0.198767 0.973296 0.114750
vn -0.198767 0.973296 0.114750
vn 0.000000 0.973296 -0.229499
vn 0.198767 0.973296 -0.114750
vn -0.198767 0.973296 -0.114750
vn 0.000000 1.000000 0.000000
vn 0.000000 0.973296 0.229499
vn 0.784845 0.422651 -0.453139
vn 0.000000 0.394116 0.919034
vn 0.000000 0.422651 0.906278
vn -0.795892 0.394116 0.459517
vn -0.795892 0.394116 -0.459517
vn -0.784845 0.422651 -0.453139
vn 0.000000 0.394116 -0.919034
vn -0.784845 0.422651 0.453139
vn 0.000000 0.422651 -0.906278
vn 0.795892 0.394116 0.459517
vn 0.784845 0.422651 0.453139
vn 0.795892 0.394116 -0.459517
s 1
f 55/1/1 2/2/2 53/3/3
f 53/3/3 4/4/4 52/5/5
f 52/6/5 6/7/6 54/8/7
f 54/8/7 8/9/8 10/10/9
f 41/11/10 40/12/11 15/13/12
f 50/14/13 12/15/14 2/2/2
f 51/16/15 10/10/9 12/15/14
f 39/17/16 38/18/17 13/19/18
f 40/12/11 39/17/16 14/20/19
f 38/18/17 42/21/20 13/19/18
f 42/21/20 43/22/21 18/23/22
f 43/22/21 41/11/10 17/24/23
f 13/25/18 18/26/22 24/27/24
f 14/28/19 13/25/18 20/29/25
f 16/30/26 15/31/12 22/32/27
f 18/26/22 17/33/23 23/34/28
f 15/35/12 14/28/19 21/36/29
f 17/33/23 16/30/26 22/32/27
f 19/37/30 24/27/24 30/38/31
f 20/29/25 19/37/30 26/39/32
f 22/32/27 21/40/29 28/41/33
f 24/27/24 23/34/28 29/42/34
f 21/36/29 20/29/25 27/43/35
f 23/34/28 22/32/27 28/41/33
f 25/44/36 30/38/31 36/45/37
f 26/39/32 25/44/36 32/46/38
f 28/41/33 27/47/35 34/48/39
f 30/38/31 29/42/34 35/49/40
f 27/43/35 26/39/32 33/50/41
f 29/42/34 28/41/33 34/48/39
f 35/49/40 34/48/39 37/51/42
f 31/52/43 36/45/37 37/51/42
f 32/46/38 31/52/43 37/51/42
f 34/48/39 33/53/41 37/51/42
f 36/45/37 35/49/40 37/51/42
f 33/50/41 32/46/38 37/51/42
f 8/54/8 6/55/6 40/12/11
f 4/56/4 2/57/2 38/18/17
f 6/55/6 4/56/4 39/17/16
f 2/57/2 12/58/14 38/18/17
f 12/58/14 10/59/9 42/21/20
f 10/59/9 8/54/8 43/22/21
f 49/60/44 51/16/15 50/14/13
f 1/61/45 47/62/46 3/63/47
f 5/64/48 45/65/49 7/66/50
f 3/63/47 46/67/51 5/68/48
f 7/66/50 44/69/52 49/60/44
f 46/67/51 53/3/3 45/70/49
f 11/71/53 48/72/54 47/62/46
f 9/73/55 49/60/44 48/72/54
f 44/69/52 54/8/7 51/16/15
f 48/72/54 50/14/13 55/1/1
f 45/65/49 52/6/5 44/69/52
f 47/62/46 55/1/1 46/67/51
f 2/2/2 4/4/4 53/3/3
f 4/4/4 6/74/6 52/5/5
f 6/7/6 8/9/8 54/8/7
f 51/16/15 54/8/7 10/10/9
f 16/75/26 41/11/10 15/13/12
f 55/1/1 50/14/13 2/2/2
f 50/14/13 51/16/15 12/15/14
f 14/20/19 39/17/16 13/19/18
f 15/13/12 40/12/11 14/20/19
f 42/21/20 18/23/22 13/19/18
f 43/22/21 17/24/23 18/23/22
f 41/11/10 16/75/26 17/24/23
f 19/37/30 13/25/18 24/27/24
f 13/25/18 19/37/30 20/29/25
f 15/31/12 21/40/29 22/32/27
f 24/27/24 18/26/22 23/34/28
f 14/28/19 20/29/25 21/36/29
f 23/34/28 17/33/23 22/32/27
f 25/44/36 19/37/30 30/38/31
f 19/37/30 25/44/36 26/39/32
f 21/40/29 27/47/35 28/41/33
f 30/38/31 24/27/24 29/42/34
f 20/29/25 26/39/32 27/43/35
f 29/42/34 23/34/28 28/41/33
f 31/52/43 25/44/36 36/45/37
f 25/44/36 31/52/43 32/46/38
f 27/47/35 33/53/41 34/48/39
f 36/45/37 30/38/31 35/49/40
f 26/39/32 32/46/38 33/50/41
f 35/49/40 29/42/34 34/48/39
f 41/11/10 8/54/8 40/12/11
f 39/17/16 4/56/4 38/18/17
f 40/12/11 6/55/6 39/17/16
f 12/58/14 42/21/20 38/18/17
f 10/59/9 43/22/21 42/21/20
f 8/54/8 41/11/10 43/22/21
f 48/72/54 49/60/44 50/14/13
f 47/62/46 46/67/51 3/63/47
f 45/65/49 44/69/52 7/66/50
f 46/67/51 45/70/49 5/68/48
f 9/73/55 7/66/50 49/60/44
f 53/3/3 52/5/5 45/70/49
f 1/61/45 11/71/53 47/62/46
f 11/71/53 9/73/55 48/72/54
f 49/60/44 44/69/52 51/16/15
f 47/62/46 48/72/54 55/1/1
f 52/6/5 54/8/7 44/69/52
f 55/1/1 53/3/3 46/67/51
