# Blender v2.67 (sub 0) OBJ File: ''
# www.blender.org
g champi2
v 0.000000 0.000000 0.006232
v 0.000000 0.052431 0.006232
v -0.005397 0.000000 0.003116
v -0.005397 0.052431 0.003116
v -0.005397 0.000000 -0.003116
v -0.005397 0.052431 -0.003116
v 0.000000 0.000000 -0.006232
v 0.000000 0.052431 -0.006232
v 0.005397 0.000000 -0.003116
v 0.005397 0.052431 -0.003116
v 0.005397 0.000000 0.003116
v 0.005397 0.052431 0.003116
v -0.000000 0.054844 0.045700
v -0.043400 0.058814 0.024323
v -0.039577 0.049592 -0.022850
v 0.000000 0.049592 -0.045700
v 0.039577 0.039211 -0.022850
v 0.039577 0.049592 0.022850
v -0.000000 0.063934 0.036797
v -0.031867 0.068650 0.018399
v -0.031867 0.063934 -0.018399
v 0.000000 0.063934 -0.036797
v 0.031867 0.057459 -0.018399
v 0.031867 0.063934 0.018399
v -0.000000 0.072520 0.021741
v -0.018828 0.075230 0.010870
v -0.018828 0.072520 -0.010871
v 0.000000 0.072520 -0.021741
v 0.018828 0.070709 -0.010871
v 0.018828 0.072520 0.010870
v -0.000000 0.076678 0.006918
v -0.005991 0.077664 0.003459
v -0.005991 0.076678 -0.003459
v 0.000000 0.076678 -0.006918
v 0.005991 0.076678 -0.003459
v 0.005991 0.076678 0.003459
v 0.000000 0.077722 -0.000000
v 0.001913 0.013108 0.006232
v 0.004057 0.026215 0.006232
v -0.000713 0.039323 0.006232
v -0.006110 0.039323 0.003116
v -0.001340 0.026215 0.003116
v -0.003484 0.013108 0.003116
v -0.006110 0.039323 -0.003116
v -0.001340 0.026215 -0.003116
v -0.003484 0.013108 -0.003116
v -0.000713 0.039323 -0.006232
v 0.004057 0.026215 -0.006232
v 0.001913 0.013108 -0.006232
v 0.004684 0.039323 -0.003116
v 0.009454 0.026215 -0.003116
v 0.007310 0.013108 -0.003116
v 0.004684 0.039323 0.003116
v 0.009454 0.026215 0.003116
v 0.007310 0.013108 0.003116
vt 0.164151 0.881421
vt 0.164151 0.962332
vt 0.091848 0.881421
vt 0.091848 0.962332
vt 0.019545 0.881421
vt 0.453361 0.881422
vt 0.453361 0.962332
vt 0.381059 0.962332
vt 0.381059 0.881422
vt 0.308756 0.881422
vt 0.652883 0.640581
vt 0.652399 0.717260
vt 0.480970 0.815750
vt 0.236453 0.881421
vt 0.236453 0.962332
vt 0.308756 0.962332
vt 0.718885 0.755464
vt 0.784407 0.717264
vt 0.720145 0.953184
vt 0.784407 0.641419
vt 0.955850 0.542921
vt 0.718886 0.603219
vt 0.720145 0.405499
vt 0.008365 0.347579
vt 0.084889 0.103236
vt 0.156434 0.164700
vt 0.142466 0.561798
vt 0.100397 0.332287
vt 0.557750 0.131825
vt 0.626045 0.399675
vt 0.480702 0.194069
vt 0.325280 0.006328
vt 0.322959 0.102084
vt 0.389740 0.621069
vt 0.193412 0.485599
vt 0.217518 0.222575
vt 0.241979 0.412511
vt 0.521272 0.395644
vt 0.408275 0.244526
vt 0.316107 0.187188
vt 0.386774 0.527192
vt 0.184137 0.321586
vt 0.272338 0.277301
vt 0.261869 0.311717
vt 0.421691 0.365078
vt 0.337356 0.285484
vt 0.306207 0.264948
vt 0.361564 0.427591
vt 0.283816 0.341627
vt 0.301219 0.304559
vt 0.338279 0.325596
vt 0.324286 0.341369
vt 0.164151 0.638690
vt 0.164151 0.719601
vt 0.091848 0.638690
vt 0.164151 0.800511
vt 0.091848 0.719601
vt 0.019545 0.638690
vt 0.091848 0.800511
vt 0.019545 0.719601
vt 0.019545 0.800511
vt 0.453361 0.638690
vt 0.453361 0.719601
vt 0.381059 0.719601
vt 0.453361 0.800511
vt 0.381059 0.800511
vt 0.381059 0.638690
vt 0.308756 0.638690
vt 0.308756 0.719601
vt 0.236453 0.638690
vt 0.236453 0.719601
vt 0.236453 0.800511
vt 0.308756 0.800511
vt 0.019545 0.962332
vt 0.482708 0.539907
vt 0.955850 0.815762
vn -0.063356 -0.019410 0.997772
vn -0.063540 -0.816248 0.574175
vn -0.872219 -0.125553 0.472671
vn -0.555376 -0.764489 0.327189
vn -0.872219 -0.125553 -0.472671
vn -0.511460 -0.832636 -0.212287
vn -0.081057 -0.878811 -0.470199
vn -0.063356 -0.019410 -0.997772
vn 0.839808 0.130680 -0.526902
vn -0.786706 -0.449843 -0.422712
vn 0.839808 0.130680 0.526902
vn 0.349315 -0.887875 0.299387
vn 0.287851 -0.944182 -0.159978
vn -0.868007 -0.147191 0.474166
vn 0.773431 -0.395978 0.494919
vn 0.691610 -0.601825 -0.399304
vn -0.015259 -0.290353 0.956786
vn 0.656728 0.688498 0.307566
vn 0.055208 0.768700 0.637165
vn -0.030396 -0.380078 -0.924436
vn 0.044008 0.682607 -0.729423
vn 0.712394 0.568590 -0.411298
vn -0.481887 0.839351 0.251442
vn 0.383068 0.906186 0.179022
vn -0.274087 0.948485 0.158818
vn -0.617542 0.676504 -0.401166
vn 0.036470 0.906186 -0.421247
vn 0.475143 0.836024 -0.274331
vn 0.061159 0.905393 0.420118
vn 0.198767 0.973296 0.114750
vn 0.073031 0.969848 0.232398
vn -0.333750 0.904965 -0.263802
vn 0.000000 0.973296 -0.229499
vn 0.237007 0.961791 -0.136814
vn -0.089602 0.994263 0.058199
vn 0.040773 0.998871 -0.023530
vn -0.159154 0.970092 -0.183172
vn -0.046022 0.006714 0.998901
vn -0.002686 0.000824 0.999969
vn -0.869594 0.126896 0.477157
vn 0.080538 0.015656 0.996612
vn -0.857784 0.132511 0.496597
vn -0.869594 0.126896 -0.477157
vn -0.839320 -0.083773 0.537095
vn -0.857784 0.132511 -0.496597
vn -0.839320 -0.083773 -0.537095
vn -0.002686 0.000824 -0.999969
vn 0.080538 0.015656 -0.996612
vn -0.046022 0.006714 -0.998901
vn 0.846980 -0.123600 -0.516984
vn 0.856410 -0.132725 -0.498917
vn 0.846980 -0.123600 0.516984
vn 0.856410 -0.132725 0.498917
vn 0.880428 0.079531 0.467422
vn 0.880428 0.079531 -0.467422
s 1
f 40/1/1 2/2/2 41/3/3
f 41/3/3 4/4/4 44/5/5
f 44/6/5 6/7/6 8/8/7
f 47/9/8 8/8/7 50/10/9
f 8/11/7 6/12/6 15/13/10
f 53/14/11 12/15/12 2/2/2
f 50/10/9 10/16/13 12/15/12
f 4/17/4 2/18/2 14/19/14
f 6/12/6 4/17/4 14/19/14
f 2/18/2 12/20/12 18/21/15
f 12/20/12 10/22/13 17/23/16
f 10/22/13 8/11/7 17/23/16
f 13/24/17 18/25/15 24/26/18
f 14/27/14 13/24/17 19/28/19
f 16/29/20 15/30/10 22/31/21
f 18/25/15 17/32/16 23/33/22
f 15/34/10 14/27/14 20/35/23
f 17/32/16 16/29/20 23/33/22
f 19/28/19 24/26/18 30/36/24
f 20/35/23 19/28/19 26/37/25
f 22/31/21 21/38/26 28/39/27
f 24/26/18 23/33/22 29/40/28
f 21/41/26 20/35/23 26/37/25
f 23/33/22 22/31/21 29/40/28
f 25/42/29 30/36/24 36/43/30
f 26/37/25 25/42/29 31/44/31
f 28/39/27 27/45/32 34/46/33
f 30/36/24 29/40/28 35/47/34
f 27/48/32 26/37/25 32/49/35
f 29/40/28 28/39/27 35/47/34
f 35/47/34 34/46/33 37/50/36
f 31/44/31 36/43/30 37/50/36
f 32/49/35 31/44/31 37/50/36
f 34/46/33 33/51/37 37/50/36
f 36/43/30 35/47/34 37/50/36
f 33/52/37 32/49/35 37/50/36
f 1/53/38 38/54/39 3/55/40
f 38/54/39 39/56/41 43/57/42
f 39/56/41 40/1/1 41/3/3
f 3/55/40 43/57/42 5/58/43
f 43/57/42 42/59/44 46/60/45
f 42/59/44 41/3/3 45/61/46
f 5/62/43 46/63/45 49/64/47
f 46/63/45 45/65/46 48/66/48
f 45/65/46 44/6/5 48/66/48
f 7/67/49 49/64/47 9/68/50
f 49/64/47 48/66/48 52/69/51
f 48/66/48 47/9/8 50/10/9
f 11/70/52 55/71/53 38/54/39
f 55/71/53 54/72/54 39/56/41
f 54/72/54 53/14/11 39/56/41
f 9/68/50 52/69/51 55/71/53
f 52/69/51 51/73/55 54/72/54
f 51/73/55 50/10/9 53/14/11
f 2/2/2 4/4/4 41/3/3
f 4/4/4 6/74/6 44/5/5
f 47/9/8 44/6/5 8/8/7
f 8/8/7 10/16/13 50/10/9
f 16/75/20 8/11/7 15/13/10
f 40/1/1 53/14/11 2/2/2
f 53/14/11 50/10/9 12/15/12
f 2/18/2 13/76/17 14/19/14
f 15/13/10 6/12/6 14/19/14
f 13/76/17 2/18/2 18/21/15
f 18/21/15 12/20/12 17/23/16
f 8/11/7 16/75/20 17/23/16
f 19/28/19 13/24/17 24/26/18
f 20/35/23 14/27/14 19/28/19
f 15/30/10 21/38/26 22/31/21
f 24/26/18 18/25/15 23/33/22
f 21/41/26 15/34/10 20/35/23
f 16/29/20 22/31/21 23/33/22
f 25/42/29 19/28/19 30/36/24
f 19/28/19 25/42/29 26/37/25
f 21/38/26 27/45/32 28/39/27
f 30/36/24 24/26/18 29/40/28
f 27/48/32 21/41/26 26/37/25
f 22/31/21 28/39/27 29/40/28
f 31/44/31 25/42/29 36/43/30
f 32/49/35 26/37/25 31/44/31
f 27/45/32 33/51/37 34/46/33
f 36/43/30 30/36/24 35/47/34
f 33/52/37 27/48/32 32/49/35
f 28/39/27 34/46/33 35/47/34
f 38/54/39 43/57/42 3/55/40
f 39/56/41 42/59/44 43/57/42
f 42/59/44 39/56/41 41/3/3
f 43/57/42 46/60/45 5/58/43
f 42/59/44 45/61/46 46/60/45
f 41/3/3 44/5/5 45/61/46
f 7/67/49 5/62/43 49/64/47
f 49/64/47 46/63/45 48/66/48
f 44/6/5 47/9/8 48/66/48
f 49/64/47 52/69/51 9/68/50
f 48/66/48 51/73/55 52/69/51
f 51/73/55 48/66/48 50/10/9
f 1/53/38 11/70/52 38/54/39
f 38/54/39 55/71/53 39/56/41
f 53/14/11 40/1/1 39/56/41
f 11/70/52 9/68/50 55/71/53
f 55/71/53 52/69/51 54/72/54
f 54/72/54 51/73/55 53/14/11
