# Blender v2.67 (sub 0) OBJ File: ''
# www.blender.org
g champi5
v 0.000000 0.000000 0.012704
v 0.000000 0.052431 0.012704
v -0.011002 0.000000 0.006352
v -0.011002 0.052431 0.006352
v -0.011002 0.000000 -0.006352
v -0.011002 0.052431 -0.006352
v 0.000000 0.000000 -0.012704
v 0.000000 0.052431 -0.012704
v 0.011002 0.000000 -0.006352
v 0.011002 0.052431 -0.006352
v 0.011002 0.000000 0.006352
v 0.011002 0.052431 0.006352
v -0.000000 0.049592 0.045700
v -0.039577 0.049592 0.022850
v -0.039577 0.049592 -0.022850
v 0.000000 0.049592 -0.045700
v 0.039577 0.049592 -0.022850
v 0.039577 0.049592 0.022850
v -0.000000 0.063934 0.036797
v -0.031867 0.063934 0.018399
v -0.031867 0.063934 -0.018399
v 0.000000 0.063934 -0.036797
v 0.031867 0.063934 -0.018399
v 0.031867 0.063934 0.018399
v -0.000000 0.072520 0.021741
v -0.018828 0.072520 0.010870
v -0.018828 0.072520 -0.010871
v 0.000000 0.072520 -0.021741
v 0.018828 0.072520 -0.010871
v 0.018828 0.072520 0.010870
v -0.000000 0.076678 0.006918
v -0.005991 0.076678 0.003459
v -0.005991 0.076678 -0.003459
v 0.000000 0.076678 -0.006918
v 0.005991 0.076678 -0.003459
v 0.005991 0.076678 0.003459
v 0.000000 0.077722 -0.000000
vt 0.652883 0.640581
vt 0.652399 0.717260
vt 0.480970 0.815750
vt 0.718885 0.755464
vt 0.784407 0.717264
vt 0.955850 0.815762
vt 0.720145 0.953184
vt 0.784407 0.641419
vt 0.718886 0.603219
vt 0.955850 0.542921
vt 0.720145 0.405499
vt 0.008365 0.347579
vt 0.084889 0.103236
vt 0.156434 0.164700
vt 0.142466 0.561798
vt 0.193412 0.485599
vt 0.557750 0.131825
vt 0.626045 0.399675
vt 0.480702 0.194069
vt 0.325280 0.006328
vt 0.322959 0.102084
vt 0.389740 0.621069
vt 0.386774 0.527192
vt 0.100397 0.332287
vt 0.217518 0.222575
vt 0.241979 0.412511
vt 0.521272 0.395644
vt 0.408275 0.244526
vt 0.316107 0.187188
vt 0.361564 0.427591
vt 0.184137 0.321586
vt 0.272338 0.277301
vt 0.283816 0.341627
vt 0.421691 0.365078
vt 0.337356 0.285484
vt 0.306207 0.264948
vt 0.324286 0.341369
vt 0.301219 0.304559
vt 0.261869 0.311717
vt 0.338279 0.325596
vt 0.482708 0.539907
vt 0.164151 0.638690
vt 0.164151 0.962332
vt 0.091848 0.638690
vt 0.091848 0.962332
vt 0.019545 0.638690
vt 0.453361 0.638690
vt 0.453361 0.962332
vt 0.381059 0.638690
vt 0.381059 0.962332
vt 0.308756 0.962332
vt 0.236453 0.638690
vt 0.236453 0.962332
vt 0.308756 0.638690
vt 0.019545 0.962332
vn 0.000000 -0.869747 -0.493454
vn -0.427320 -0.869747 -0.246712
vn -0.783258 -0.426588 -0.452193
vn -0.427320 -0.869747 0.246712
vn 0.000000 -0.869747 0.493454
vn 0.000000 -0.426588 0.904416
vn -0.783258 -0.426588 0.452193
vn 0.427320 -0.869747 0.246712
vn 0.427320 -0.869747 -0.246712
vn 0.783258 -0.426588 0.452193
vn 0.783258 -0.426588 -0.452193
vn 0.633106 0.682272 0.365520
vn -0.633106 0.682272 0.365520
vn 0.000000 -0.426588 -0.904416
vn 0.000000 0.682272 -0.731071
vn 0.633106 0.682272 -0.365520
vn -0.633106 0.682272 -0.365520
vn 0.000000 0.682272 0.731071
vn 0.362774 0.908017 0.209449
vn -0.362774 0.908017 0.209449
vn 0.000000 0.908017 -0.418897
vn 0.362774 0.908017 -0.209449
vn -0.362774 0.908017 -0.209449
vn 0.000000 0.908017 0.418897
vn 0.198767 0.973296 0.114750
vn -0.198767 0.973296 0.114750
vn 0.000000 0.973296 -0.229499
vn 0.198767 0.973296 -0.114750
vn -0.198767 0.973296 -0.114750
vn 0.000000 1.000000 0.000000
vn 0.000000 0.973296 0.229499
vn 0.000000 0.000000 1.000000
vn -0.866024 0.000000 0.499985
vn -0.866024 0.000000 -0.499985
vn 0.000000 0.000000 -1.000000
vn 0.866024 0.000000 0.499985
vn 0.866024 0.000000 -0.499985
s 1
f 8/1/1 6/2/2 15/3/3
f 4/4/4 2/5/5 13/6/6
f 6/2/2 4/4/4 14/7/7
f 2/5/5 12/8/8 13/6/6
f 12/8/8 10/9/9 18/10/10
f 10/9/9 8/1/1 17/11/11
f 13/12/6 18/13/10 24/14/12
f 14/15/7 13/12/6 20/16/13
f 16/17/14 15/18/3 22/19/15
f 18/13/10 17/20/11 23/21/16
f 15/22/3 14/15/7 21/23/17
f 17/20/11 16/17/14 22/19/15
f 19/24/18 24/14/12 30/25/19
f 20/16/13 19/24/18 26/26/20
f 22/19/15 21/27/17 28/28/21
f 24/14/12 23/21/16 29/29/22
f 21/23/17 20/16/13 27/30/23
f 23/21/16 22/19/15 28/28/21
f 25/31/24 30/25/19 36/32/25
f 26/26/20 25/31/24 32/33/26
f 28/28/21 27/34/23 34/35/27
f 30/25/19 29/29/22 35/36/28
f 27/30/23 26/26/20 33/37/29
f 29/29/22 28/28/21 34/35/27
f 35/36/28 34/35/27 37/38/30
f 31/39/31 36/32/25 37/38/30
f 32/33/26 31/39/31 37/38/30
f 34/35/27 33/40/29 37/38/30
f 36/32/25 35/36/28 37/38/30
f 33/37/29 32/33/26 37/38/30
f 16/41/14 8/1/1 15/3/3
f 14/7/7 4/4/4 13/6/6
f 15/3/3 6/2/2 14/7/7
f 12/8/8 18/10/10 13/6/6
f 10/9/9 17/11/11 18/10/10
f 8/1/1 16/41/14 17/11/11
f 19/24/18 13/12/6 24/14/12
f 13/12/6 19/24/18 20/16/13
f 15/18/3 21/27/17 22/19/15
f 24/14/12 18/13/10 23/21/16
f 14/15/7 20/16/13 21/23/17
f 23/21/16 17/20/11 22/19/15
f 25/31/24 19/24/18 30/25/19
f 19/24/18 25/31/24 26/26/20
f 21/27/17 27/34/23 28/28/21
f 30/25/19 24/14/12 29/29/22
f 20/16/13 26/26/20 27/30/23
f 29/29/22 23/21/16 28/28/21
f 31/39/31 25/31/24 36/32/25
f 25/31/24 31/39/31 32/33/26
f 27/34/23 33/40/29 34/35/27
f 36/32/25 30/25/19 35/36/28
f 26/26/20 32/33/26 33/37/29
f 35/36/28 29/29/22 34/35/27
f 1/42/32 2/43/5 3/44/33
f 3/44/33 4/45/4 5/46/34
f 5/47/34 6/48/2 7/49/35
f 7/49/35 8/50/1 10/51/9
f 11/52/36 12/53/8 2/43/5
f 9/54/37 10/51/9 12/53/8
f 2/43/5 4/45/4 3/44/33
f 4/45/4 6/55/2 5/46/34
f 6/48/2 8/50/1 7/49/35
f 9/54/37 7/49/35 10/51/9
f 1/42/32 11/52/36 2/43/5
f 11/52/36 9/54/37 12/53/8
