# Blender v2.67 (sub 0) OBJ File: ''
# www.blender.org
g champi4
v 0.000000 0.000000 0.012704
v 0.000000 0.052431 0.012704
v -0.011002 0.000000 0.006352
v -0.011002 0.052431 0.006352
v -0.011002 0.000000 -0.006352
v -0.011002 0.052431 -0.006352
v 0.000000 0.000000 -0.012704
v 0.000000 0.052431 -0.012704
v 0.011002 0.000000 -0.006352
v 0.011002 0.052431 -0.006352
v 0.011002 0.000000 0.006352
v 0.011002 0.052431 0.006352
v -0.000000 0.057280 0.045700
v -0.039577 0.057280 0.022850
v -0.039577 0.057280 -0.022850
v 0.000000 0.057280 -0.045700
v 0.039577 0.057280 -0.022850
v 0.039577 0.057280 0.022850
v -0.000000 0.062028 0.036797
v -0.031867 0.062028 0.018399
v -0.031867 0.062028 -0.018399
v 0.000000 0.062028 -0.036797
v 0.031867 0.062028 -0.018399
v 0.031867 0.062028 0.018399
v -0.000000 0.067760 0.021741
v -0.018828 0.067760 0.010870
v -0.018828 0.067760 -0.010871
v 0.000000 0.067760 -0.021741
v 0.018828 0.067760 -0.010871
v 0.018828 0.067760 0.010870
v -0.000000 0.074552 0.006918
v -0.005991 0.074552 0.003459
v -0.005991 0.074552 -0.003459
v 0.000000 0.074552 -0.006918
v 0.005991 0.074552 -0.003459
v 0.005991 0.074552 0.003459
v 0.000000 0.077722 -0.000000
v -0.000000 0.026215 0.015957
v -0.013819 0.026215 0.007978
v -0.013819 0.026215 -0.007978
v 0.000000 0.026215 -0.015957
v 0.013819 0.026215 -0.007978
v 0.013819 0.026215 0.007978
vt 0.164151 0.800511
vt 0.164151 0.962332
vt 0.091848 0.800511
vt 0.091848 0.962332
vt 0.019545 0.800511
vt 0.453361 0.800511
vt 0.453361 0.962332
vt 0.381059 0.800511
vt 0.381059 0.962332
vt 0.308756 0.962332
vt 0.652883 0.640581
vt 0.652399 0.717260
vt 0.482708 0.539907
vt 0.236453 0.800511
vt 0.236453 0.962332
vt 0.308756 0.800511
vt 0.718885 0.755464
vt 0.784407 0.717264
vt 0.720145 0.953184
vt 0.480970 0.815750
vt 0.784407 0.641419
vt 0.955850 0.542921
vt 0.718886 0.603219
vt 0.720145 0.405499
vt 0.008365 0.347579
vt 0.084889 0.103236
vt 0.156434 0.164700
vt 0.142466 0.561798
vt 0.193412 0.485599
vt 0.557750 0.131825
vt 0.626045 0.399675
vt 0.480702 0.194069
vt 0.325280 0.006328
vt 0.322959 0.102084
vt 0.389740 0.621069
vt 0.386774 0.527192
vt 0.100397 0.332287
vt 0.217518 0.222575
vt 0.241979 0.412511
vt 0.521272 0.395644
vt 0.408275 0.244526
vt 0.316107 0.187188
vt 0.361564 0.427591
vt 0.184137 0.321586
vt 0.272338 0.277301
vt 0.283816 0.341627
vt 0.421691 0.365078
vt 0.337356 0.285484
vt 0.306207 0.264948
vt 0.324286 0.341369
vt 0.301219 0.304559
vt 0.261869 0.311717
vt 0.338279 0.325596
vt 0.164151 0.638690
vt 0.091848 0.638690
vt 0.019545 0.638690
vt 0.453361 0.638690
vt 0.381059 0.638690
vt 0.236453 0.638690
vt 0.308756 0.638690
vt 0.019545 0.962332
vt 0.955850 0.815762
vn 0.000000 0.000000 1.000000
vn 0.000000 -0.740867 0.671621
vn -0.866024 0.000000 0.499985
vn -0.581622 -0.740867 0.335795
vn -0.866024 0.000000 -0.499985
vn -0.581622 -0.740867 -0.335795
vn 0.000000 0.000000 -1.000000
vn 0.000000 -0.740867 -0.671621
vn 0.581622 -0.740867 -0.335795
vn 0.000000 -0.135411 -0.990783
vn 0.866024 0.000000 0.499985
vn 0.581622 -0.740867 0.335795
vn 0.866024 0.000000 -0.499985
vn -0.858028 -0.135411 0.495376
vn -0.858028 -0.135411 -0.495376
vn 0.858028 -0.135411 0.495376
vn 0.858028 -0.135411 -0.495376
vn 0.000000 -0.135411 0.990783
vn 0.373211 0.902371 0.215461
vn -0.373211 0.902371 0.215461
vn 0.000000 0.902371 -0.430952
vn 0.373211 0.902371 -0.215461
vn -0.373211 0.902371 -0.215461
vn 0.000000 0.902371 0.430952
vn 0.326518 0.926176 0.188513
vn -0.326518 0.926176 0.188513
vn 0.000000 0.926176 -0.377026
vn 0.326518 0.926176 -0.188513
vn -0.326518 0.926176 -0.188513
vn 0.000000 0.926176 0.377026
vn 0.360759 0.909085 0.208258
vn -0.360759 0.909085 0.208258
vn 0.000000 0.909085 -0.416547
vn 0.360759 0.909085 -0.208258
vn -0.360759 0.909085 -0.208258
vn 0.000000 1.000000 0.000000
vn 0.000000 0.909085 0.416547
vn 0.000000 -0.123142 0.992370
vn -0.859432 -0.123142 0.496170
vn -0.859432 -0.123142 -0.496170
vn 0.000000 -0.123142 -0.992370
vn 0.859432 -0.123142 0.496170
vn 0.859432 -0.123142 -0.496170
s 1
f 38/1/1 2/2/2 39/3/3
f 39/3/3 4/4/4 40/5/5
f 40/6/5 6/7/6 41/8/7
f 41/8/7 8/9/8 10/10/9
f 8/11/8 6/12/6 16/13/10
f 43/14/11 12/15/12 2/2/2
f 42/16/13 10/10/9 12/15/12
f 4/17/4 2/18/2 14/19/14
f 6/12/6 4/17/4 15/20/15
f 2/18/2 12/21/12 18/22/16
f 12/21/12 10/23/9 17/24/17
f 10/23/9 8/11/8 16/13/10
f 13/25/18 18/26/16 24/27/19
f 14/28/14 13/25/18 20/29/20
f 16/30/10 15/31/15 22/32/21
f 18/26/16 17/33/17 23/34/22
f 15/35/15 14/28/14 21/36/23
f 17/33/17 16/30/10 22/32/21
f 19/37/24 24/27/19 30/38/25
f 20/29/20 19/37/24 26/39/26
f 22/32/21 21/40/23 28/41/27
f 24/27/19 23/34/22 29/42/28
f 21/36/23 20/29/20 27/43/29
f 23/34/22 22/32/21 28/41/27
f 25/44/30 30/38/25 36/45/31
f 26/39/26 25/44/30 32/46/32
f 28/41/27 27/47/29 34/48/33
f 30/38/25 29/42/28 35/49/34
f 27/43/29 26/39/26 33/50/35
f 29/42/28 28/41/27 34/48/33
f 35/49/34 34/48/33 37/51/36
f 31/52/37 36/45/31 37/51/36
f 32/46/32 31/52/37 37/51/36
f 34/48/33 33/53/35 37/51/36
f 36/45/31 35/49/34 37/51/36
f 33/50/35 32/46/32 37/51/36
f 1/54/38 38/1/1 3/55/39
f 3/55/39 39/3/3 5/56/40
f 5/57/40 40/6/5 7/58/41
f 7/58/41 41/8/7 42/16/13
f 11/59/42 43/14/11 38/1/1
f 9/60/43 42/16/13 43/14/11
f 2/2/2 4/4/4 39/3/3
f 4/4/4 6/61/6 40/5/5
f 6/7/6 8/9/8 41/8/7
f 42/16/13 41/8/7 10/10/9
f 6/12/6 15/20/15 16/13/10
f 38/1/1 43/14/11 2/2/2
f 43/14/11 42/16/13 12/15/12
f 2/18/2 13/62/18 14/19/14
f 4/17/4 14/19/14 15/20/15
f 13/62/18 2/18/2 18/22/16
f 18/22/16 12/21/12 17/24/17
f 17/24/17 10/23/9 16/13/10
f 19/37/24 13/25/18 24/27/19
f 13/25/18 19/37/24 20/29/20
f 15/31/15 21/40/23 22/32/21
f 24/27/19 18/26/16 23/34/22
f 14/28/14 20/29/20 21/36/23
f 23/34/22 17/33/17 22/32/21
f 25/44/30 19/37/24 30/38/25
f 19/37/24 25/44/30 26/39/26
f 21/40/23 27/47/29 28/41/27
f 30/38/25 24/27/19 29/42/28
f 20/29/20 26/39/26 27/43/29
f 29/42/28 23/34/22 28/41/27
f 31/52/37 25/44/30 36/45/31
f 25/44/30 31/52/37 32/46/32
f 27/47/29 33/53/35 34/48/33
f 36/45/31 30/38/25 35/49/34
f 26/39/26 32/46/32 33/50/35
f 35/49/34 29/42/28 34/48/33
f 38/1/1 39/3/3 3/55/39
f 39/3/3 40/5/5 5/56/40
f 40/6/5 41/8/7 7/58/41
f 9/60/43 7/58/41 42/16/13
f 1/54/38 11/59/42 38/1/1
f 11/59/42 9/60/43 43/14/11
