# Blender v2.75 (sub 0) OBJ File: 'bouteille.blend'
# www.blender.org
g potion_4
v 0.000000 -0.032748 -0.007000
v -0.000000 0.035000 -0.006287
v 0.004950 -0.032748 -0.004950
v 0.004446 0.035000 -0.004446
v 0.007000 -0.032748 0.000000
v 0.006287 0.035000 0.000000
v 0.004950 -0.032748 0.004950
v 0.004446 0.035000 0.004446
v -0.000000 -0.032748 0.007000
v -0.000000 0.035000 0.006287
v -0.004950 -0.032748 0.004950
v -0.004446 0.035000 0.004446
v -0.007000 -0.032748 -0.000000
v -0.006287 0.035000 -0.000000
v -0.004950 -0.032748 -0.004950
v -0.004446 0.035000 -0.004446
v 0.000000 0.033693 -0.007000
v 0.004950 0.033693 -0.004950
v 0.007000 0.033693 0.000000
v 0.004950 0.033693 0.004950
v -0.000000 0.033693 0.007000
v -0.004950 0.033693 0.004950
v -0.007000 0.033693 -0.000000
v -0.004950 0.033693 -0.004950
v 0.002750 0.031809 -0.002750
v 0.003889 0.031809 0.000000
v 0.002750 0.031809 0.002750
v -0.000000 0.031809 0.003889
v -0.002750 0.031809 0.002750
v -0.003889 0.031809 -0.000000
v -0.002750 0.031809 -0.002750
v -0.000000 0.031809 -0.003889
v 0.002750 0.007700 -0.002750
v 0.003889 0.007700 0.000000
v 0.002750 0.007700 0.002750
v -0.000000 0.007700 0.003889
v -0.002750 0.007700 0.002750
v -0.003889 0.007700 -0.000000
v -0.002750 0.007700 -0.002750
v -0.000000 0.007700 -0.003889
v 0.009773 -0.001162 -0.009773
v 0.012887 -0.012399 -0.012887
v 0.011391 -0.023887 -0.011391
v 0.013821 -0.001162 0.000000
v 0.018224 -0.012399 0.000000
v 0.016109 -0.023887 0.000000
v 0.009773 -0.001162 0.009773
v 0.012887 -0.012399 0.012887
v 0.011391 -0.023887 0.011391
v -0.000000 -0.001162 0.013821
v -0.000000 -0.012399 0.018224
v -0.000000 -0.023887 0.016109
v -0.009773 -0.001162 0.009773
v -0.012887 -0.012399 0.012887
v -0.011391 -0.023887 0.011391
v -0.013821 -0.001162 -0.000000
v -0.018224 -0.012399 -0.000000
v -0.016109 -0.023887 -0.000000
v -0.009773 -0.001162 -0.009773
v -0.012887 -0.012399 -0.012887
v -0.011391 -0.023887 -0.011391
v 0.000000 -0.023887 -0.016109
v 0.000000 -0.012399 -0.018224
v 0.000000 -0.001162 -0.013821
v -0.000000 -0.032748 0.000000
v -0.000000 0.035000 0.000000
vt 0.518079 0.824351
vt 0.511955 0.807974
vt 0.546071 0.773199
vt 0.545604 0.724486
vt 0.561981 0.718362
vt 0.510829 0.690370
vt 0.518079 0.674460
vt 0.462115 0.690837
vt 0.455992 0.674460
vt 0.428000 0.725612
vt 0.412090 0.718362
vt 0.428466 0.774325
vt 0.412090 0.780449
vt 0.463242 0.808441
vt 0.455992 0.824351
vt 0.229728 0.875031
vt 0.242123 0.910850
vt 0.186284 0.910831
vt 0.260752 0.875042
vt 0.273147 0.910861
vt 0.217308 0.910842
vt 0.055974 0.910787
vt 0.000135 0.910767
vt 0.012555 0.874957
vt 0.086999 0.910797
vt 0.031160 0.910778
vt 0.043580 0.874968
vt 0.118024 0.910808
vt 0.062185 0.910789
vt 0.074604 0.874978
vt 0.136654 0.875000
vt 0.149048 0.910819
vt 0.093209 0.910799
vt 0.180073 0.910829
vt 0.124234 0.910810
vt 0.211098 0.910840
vt 0.155259 0.910821
vt 0.167678 0.875010
vt 0.198703 0.875021
vt 0.167764 0.623732
vt 0.136740 0.623722
vt 0.105629 0.874989
vt 0.105715 0.623711
vt 0.074691 0.623700
vt 0.043666 0.623690
vt 0.229813 0.623753
vt 0.198789 0.623743
vt 0.771550 0.527066
vt 0.734607 0.517075
vt 0.733059 0.365768
vt 0.803826 0.551107
vt 0.829300 0.375566
vt 0.328779 0.592569
vt 0.305072 0.623408
vt 0.142648 0.561193
vt 0.362639 0.576418
vt 0.228157 0.478711
vt 0.399796 0.573958
vt 0.313405 0.437031
vt 0.530523 0.423056
vt 0.440542 0.578028
vt 0.696727 0.520851
vt 0.666766 0.539688
vt 0.731495 0.176275
vt 0.626581 0.176164
vt 0.651560 0.028277
vt 0.733060 0.267354
vt 0.626163 0.274051
vt 0.640364 0.378925
vt 0.483686 0.158254
vt 0.583073 0.000136
vt 0.505723 0.289484
vt 0.362459 0.218881
vt 0.294444 0.094203
vt 0.388927 0.315731
vt 0.405868 0.418173
vt 0.263517 0.252988
vt 0.285744 0.344213
vt 0.155999 0.275742
vt 0.152527 0.115916
vt 0.178826 0.381612
vt 0.000135 0.283441
vt 0.075378 0.099729
vt 0.033639 0.446660
vt 0.959348 0.117421
vt 0.834756 0.162045
vt 0.788674 0.031315
vt 0.999865 0.262568
vt 0.844570 0.264013
vt 0.951864 0.423769
vt 0.720882 0.038235
vt 0.766949 0.820986
vt 0.711110 0.820986
vt 0.739030 0.753582
vt 0.671626 0.725663
vt 0.711110 0.686179
vt 0.806433 0.725663
vt 0.806433 0.781502
vt 0.671626 0.781502
vt 0.766949 0.686179
vt 0.487035 0.749406
vt 0.561981 0.780449
vt 0.012642 0.623679
vt 0.260838 0.623764
vt 0.352274 0.053089
vt 0.226146 0.112870
vt 0.848984 0.000135
vn 0.341800 0.449900 -0.825100
vn 0.825100 0.449900 -0.341800
vn 0.825100 0.449900 0.341800
vn 0.341800 0.449900 0.825100
vn -0.341800 0.449900 0.825100
vn -0.825100 0.449900 0.341800
vn -0.825100 0.449900 -0.341800
vn -0.341800 0.449900 -0.825100
vn -0.209800 -0.836300 -0.506500
vn -0.506500 -0.836300 -0.209800
vn -0.506500 -0.836300 0.209800
vn -0.209800 -0.836300 0.506500
vn 0.209800 -0.836300 0.506500
vn 0.506500 -0.836300 0.209800
vn 0.506500 -0.836300 -0.209800
vn 0.209800 -0.836300 -0.506500
vn 0.382700 -0.000000 -0.923900
vn 0.923900 0.000000 -0.382700
vn 0.923900 -0.000000 0.382700
vn 0.382700 0.000000 0.923900
vn -0.382700 -0.000000 0.923900
vn -0.923900 0.000000 0.382700
vn -0.923900 -0.000000 -0.382700
vn -0.382700 0.000000 -0.923900
vn -0.265800 0.719300 -0.641800
vn -0.641800 0.719300 -0.265800
vn -0.641800 0.719300 0.265800
vn -0.265800 0.719300 0.641800
vn 0.265800 0.719300 0.641800
vn 0.641800 0.719300 0.265800
vn 0.641800 0.719300 -0.265800
vn 0.265800 0.719300 -0.641800
vn 0.277500 -0.688600 -0.669900
vn 0.377300 -0.167700 -0.910800
vn 0.359800 0.340400 -0.868700
vn 0.669900 -0.688600 -0.277500
vn 0.910800 -0.167700 -0.377300
vn 0.868700 0.340400 -0.359800
vn 0.669900 -0.688600 0.277500
vn 0.910800 -0.167700 0.377300
vn 0.868700 0.340400 0.359800
vn 0.277500 -0.688600 0.669900
vn 0.377300 -0.167700 0.910800
vn 0.359800 0.340400 0.868700
vn -0.277500 -0.688600 0.669900
vn -0.377300 -0.167700 0.910800
vn -0.359800 0.340400 0.868700
vn -0.669900 -0.688600 0.277500
vn -0.910800 -0.167700 0.377300
vn -0.868700 0.340400 0.359800
vn -0.669900 -0.688600 -0.277500
vn -0.910800 -0.167700 -0.377300
vn -0.868700 0.340400 -0.359800
vn -0.277500 -0.688600 -0.669900
vn -0.377300 -0.167700 -0.910800
vn -0.359800 0.340400 -0.868700
vn 0.000000 -1.000000 0.000000
vn -0.000000 1.000000 0.000000
s off
f 17/1/1 2/2/1 4/3/1
f 4/3/2 6/4/2 19/5/2
f 6/4/3 8/6/3 20/7/3
f 8/6/4 10/8/4 21/9/4
f 10/8/5 12/10/5 22/11/5
f 12/10/6 14/12/6 23/13/6
f 23/13/7 14/12/7 16/14/7
f 24/15/8 16/14/8 2/2/8
f 31/16/9 24/17/9 17/18/9
f 30/19/10 23/20/10 24/21/10
f 22/22/11 23/23/11 30/24/11
f 21/25/12 22/26/12 29/27/12
f 20/28/13 21/29/13 28/30/13
f 26/31/14 19/32/14 20/33/14
f 18/34/15 19/35/15 26/31/15
f 17/36/16 18/37/16 25/38/16
f 32/39/17 25/38/17 33/40/17
f 25/38/18 26/31/18 34/41/18
f 26/31/19 27/42/19 35/43/19
f 27/42/20 28/30/20 36/44/20
f 28/30/21 29/27/21 37/45/21
f 37/45/22 29/27/22 30/24/22
f 30/19/23 31/16/23 39/46/23
f 31/16/24 32/39/24 40/47/24
f 39/48/25 40/49/25 64/50/25
f 38/51/26 39/48/26 59/52/26
f 37/53/27 38/54/27 56/55/27
f 36/56/28 37/53/28 53/57/28
f 35/58/29 36/56/29 50/59/29
f 44/60/30 34/61/30 35/58/30
f 33/62/31 34/63/31 44/60/31
f 64/50/32 40/49/32 33/62/32
f 62/64/33 43/65/33 3/66/33
f 63/67/34 42/68/34 43/65/34
f 64/50/35 41/69/35 42/68/35
f 43/65/36 46/70/36 5/71/36
f 43/65/37 42/68/37 45/72/37
f 42/68/38 41/69/38 44/60/38
f 46/70/39 49/73/39 7/74/39
f 46/70/40 45/72/40 48/75/40
f 45/72/41 44/60/41 47/76/41
f 7/74/42 49/73/42 52/77/42
f 48/75/43 51/78/43 52/77/43
f 48/75/44 47/76/44 50/59/44
f 52/77/45 55/79/45 11/80/45
f 51/78/46 54/81/46 55/79/46
f 50/59/47 53/57/47 54/81/47
f 55/79/48 58/82/48 13/83/48
f 55/79/49 54/81/49 57/84/49
f 53/57/50 56/55/50 57/84/50
f 58/85/51 61/86/51 15/87/51
f 57/88/52 60/89/52 61/86/52
f 57/88/53 56/90/53 59/52/53
f 61/86/54 62/64/54 1/91/54
f 61/86/55 60/89/55 63/67/55
f 60/89/56 59/52/56 64/50/56
f 7/92/57 9/93/57 65/94/57
f 13/95/57 15/96/57 65/94/57
f 3/97/57 5/98/57 65/94/57
f 9/93/57 11/99/57 65/94/57
f 15/96/57 1/100/57 65/94/57
f 1/100/57 3/97/57 65/94/57
f 5/98/57 7/92/57 65/94/57
f 11/99/57 13/95/57 65/94/57
f 6/4/58 4/3/58 66/101/58
f 16/14/58 14/12/58 66/101/58
f 10/8/58 8/6/58 66/101/58
f 4/3/58 2/2/58 66/101/58
f 14/12/58 12/10/58 66/101/58
f 8/6/58 6/4/58 66/101/58
f 2/2/58 16/14/58 66/101/58
f 12/10/58 10/8/58 66/101/58
f 18/102/1 17/1/1 4/3/1
f 18/102/2 4/3/2 19/5/2
f 19/5/3 6/4/3 20/7/3
f 20/7/4 8/6/4 21/9/4
f 21/9/5 10/8/5 22/11/5
f 22/11/6 12/10/6 23/13/6
f 24/15/7 23/13/7 16/14/7
f 17/1/8 24/15/8 2/2/8
f 32/39/9 31/16/9 17/18/9
f 31/16/10 30/19/10 24/21/10
f 29/27/11 22/22/11 30/24/11
f 28/30/12 21/25/12 29/27/12
f 27/42/13 20/28/13 28/30/13
f 27/42/14 26/31/14 20/33/14
f 25/38/15 18/34/15 26/31/15
f 32/39/16 17/36/16 25/38/16
f 40/47/17 32/39/17 33/40/17
f 33/40/18 25/38/18 34/41/18
f 34/41/19 26/31/19 35/43/19
f 35/43/20 27/42/20 36/44/20
f 36/44/21 28/30/21 37/45/21
f 38/103/22 37/45/22 30/24/22
f 38/104/23 30/19/23 39/46/23
f 39/46/24 31/16/24 40/47/24
f 59/52/25 39/48/25 64/50/25
f 56/90/26 38/51/26 59/52/26
f 53/57/27 37/53/27 56/55/27
f 50/59/28 36/56/28 53/57/28
f 47/76/29 35/58/29 50/59/29
f 47/76/30 44/60/30 35/58/30
f 41/69/31 33/62/31 44/60/31
f 41/69/32 64/50/32 33/62/32
f 1/91/33 62/64/33 3/66/33
f 62/64/34 63/67/34 43/65/34
f 63/67/35 64/50/35 42/68/35
f 3/66/36 43/65/36 5/71/36
f 46/70/37 43/65/37 45/72/37
f 45/72/38 42/68/38 44/60/38
f 5/105/39 46/70/39 7/74/39
f 49/73/40 46/70/40 48/75/40
f 48/75/41 45/72/41 47/76/41
f 9/106/42 7/74/42 52/77/42
f 49/73/43 48/75/43 52/77/43
f 51/78/44 48/75/44 50/59/44
f 9/106/45 52/77/45 11/80/45
f 52/77/46 51/78/46 55/79/46
f 51/78/47 50/59/47 54/81/47
f 11/80/48 55/79/48 13/83/48
f 58/82/49 55/79/49 57/84/49
f 54/81/50 53/57/50 57/84/50
f 13/107/51 58/85/51 15/87/51
f 58/85/52 57/88/52 61/86/52
f 60/89/53 57/88/53 59/52/53
f 15/87/54 61/86/54 1/91/54
f 62/64/55 61/86/55 63/67/55
f 63/67/56 60/89/56 64/50/56
